<svg width="20" height="20" viewBox="0 0 20 20" fill="none" xmlns="http://www.w3.org/2000/svg">
<path d="M1.42858 4.28572C1.82307 4.28572 2.14287 3.96592 2.14287 3.57143C2.14287 3.17695 1.82307 2.85715 1.42858 2.85715C1.03409 2.85715 0.714294 3.17695 0.714294 3.57143C0.714294 3.96592 1.03409 4.28572 1.42858 4.28572Z" stroke="black" stroke-linecap="round" stroke-linejoin="round"/>
<path d="M6.42859 3.57144H19.2857" stroke="black" stroke-linecap="round" stroke-linejoin="round"/>
<path d="M1.42858 10.7143C1.82307 10.7143 2.14287 10.3945 2.14287 9.99999C2.14287 9.60551 1.82307 9.28571 1.42858 9.28571C1.03409 9.28571 0.714294 9.60551 0.714294 9.99999C0.714294 10.3945 1.03409 10.7143 1.42858 10.7143Z" stroke="black" stroke-linecap="round" stroke-linejoin="round"/>
<path d="M6.42859 10H19.2857" stroke="black" stroke-linecap="round" stroke-linejoin="round"/>
<path d="M1.42858 17.1429C1.82307 17.1429 2.14287 16.823 2.14287 16.4286C2.14287 16.0342 1.82307 15.7143 1.42858 15.7143C1.03409 15.7143 0.714294 16.0342 0.714294 16.4286C0.714294 16.823 1.03409 17.1429 1.42858 17.1429Z" stroke="black" stroke-linecap="round" stroke-linejoin="round"/>
<path d="M6.42859 16.4286H19.2857" stroke="black" stroke-linecap="round" stroke-linejoin="round"/>
</svg>
