<svg width="22" height="23" viewBox="0 0 22 23" fill="none" xmlns="http://www.w3.org/2000/svg">
<path fill-rule="evenodd" clip-rule="evenodd" d="M13.3112 3.9924L14.1686 4.07279C13.6979 4.5114 13.4311 5.12962 13.4182 5.76244L11.4954 4.8767C10.9857 4.64186 10.4117 4.58539 9.86597 4.71637L6.92205 5.42292C6.97109 4.95547 6.87424 4.47376 6.65239 4.0543L8.11549 3.90988C8.5852 3.86352 9.0322 3.68513 9.40477 3.39535L11.1205 2.06093C11.3457 3.06961 12.1951 3.88774 13.3112 3.9924ZM11.056 0.210749C11.8043 -0.371253 12.8607 0.34225 12.6003 1.25375C12.4317 1.84367 12.8404 2.44167 13.4513 2.49895L16.5743 2.7918C17.7306 2.90023 17.804 4.56101 16.6617 4.77096L16.6177 4.77905C19.2648 6.43305 21.027 9.37338 21.027 12.7266C21.027 17.8987 16.8342 22.0915 11.6622 22.0915H9.36486C4.19279 22.0915 0 17.8987 0 12.7266C0 9.12179 2.0369 5.99401 5.01924 4.42907C4.93336 4.38232 4.83471 4.35004 4.72405 4.33698C3.77304 4.22473 3.73994 2.83448 4.69293 2.74042L7.96814 2.41714C8.15603 2.39859 8.33483 2.32724 8.48386 2.21132L11.056 0.210749ZM4.47445 6.56652C2.66123 8.00794 1.5 10.2321 1.5 12.7266C1.5 17.0702 5.02122 20.5915 9.36486 20.5915H11.6622C16.0058 20.5915 19.527 17.0702 19.527 12.7266C19.527 9.55732 17.6522 6.82427 14.9487 5.57904C14.8738 5.85782 14.9375 6.17435 15.1766 6.40722C15.8604 7.07317 15.0955 8.18667 14.2286 7.78729L10.8678 6.23908C10.6639 6.14515 10.4343 6.12256 10.216 6.17495L5.4431 7.32047C4.87385 7.45709 4.48875 7.01654 4.47445 6.56652Z" fill="black"/>
</svg>
