<svg width="223" height="208" viewBox="0 0 223 208" fill="none" xmlns="http://www.w3.org/2000/svg">
<g clip-path="url(#clip0_2_1093)">
<path d="M9.70159 206.237C9.46735 206.237 9.2427 206.33 9.07706 206.495C8.91142 206.66 8.81836 206.885 8.81836 207.118C8.81836 207.352 8.91142 207.576 9.07706 207.742C9.2427 207.907 9.46735 208 9.70159 208H215.091C215.325 208 215.55 207.907 215.715 207.742C215.881 207.576 215.974 207.352 215.974 207.118C215.974 206.885 215.881 206.66 215.715 206.495C215.55 206.33 215.325 206.237 215.091 206.237H9.70159Z" fill="black"/>
<path d="M197.16 176.416C194.704 176.416 192.694 178.423 192.694 180.875C192.694 183.327 194.704 185.333 197.16 185.333C199.617 185.333 201.628 183.327 201.628 180.875C201.628 178.423 199.617 176.416 197.16 176.416ZM197.16 178.179C198.663 178.179 199.862 179.376 199.862 180.875C199.862 182.374 198.663 183.571 197.16 183.571C195.658 183.571 194.459 182.374 194.459 180.875C194.459 179.376 195.658 178.179 197.16 178.179Z" fill="black"/>
<path d="M196.547 142.007C193.358 141.882 189.804 142.111 185.849 142.797C185.734 142.817 185.625 142.859 185.527 142.921C185.429 142.983 185.344 143.063 185.278 143.158C185.211 143.253 185.163 143.36 185.138 143.473C185.113 143.586 185.11 143.703 185.13 143.817C185.17 144.047 185.3 144.252 185.492 144.387C185.683 144.521 185.921 144.574 186.151 144.534C201.536 141.867 210.192 146.228 215.135 151.178C217.089 153.135 218.327 155.107 219.264 156.873C207.564 145.138 189.859 144.25 175.93 155.182C158.9 168.55 165.299 191.426 165.299 191.426C165.33 191.537 165.383 191.642 165.454 191.733C165.526 191.824 165.615 191.9 165.716 191.957C165.817 192.014 165.928 192.05 166.043 192.064C166.159 192.078 166.275 192.069 166.387 192.038C166.613 191.975 166.804 191.826 166.919 191.622C167.034 191.419 167.064 191.178 167.001 190.953C167.001 190.953 160.934 169.197 177.022 156.568C191.781 144.984 210.534 147.178 221.404 162.025C221.523 162.188 221.695 162.305 221.89 162.357C222.085 162.408 222.292 162.392 222.477 162.31C222.661 162.228 222.812 162.085 222.904 161.905C222.995 161.726 223.023 161.52 222.981 161.323C222.981 161.323 221.7 155.255 216.386 149.934C212.401 145.942 206.115 142.381 196.547 142.007Z" fill="black"/>
<path d="M182.565 150.975C182.461 151.025 182.368 151.096 182.291 151.183C182.214 151.269 182.155 151.37 182.117 151.48C182.079 151.589 182.063 151.705 182.07 151.82C182.078 151.936 182.107 152.049 182.158 152.153L196.365 181.261C196.416 181.365 196.486 181.458 196.573 181.535C196.66 181.611 196.761 181.67 196.871 181.708C196.981 181.746 197.097 181.761 197.212 181.754C197.328 181.747 197.441 181.718 197.546 181.667C197.65 181.616 197.743 181.546 197.82 181.459C197.897 181.372 197.956 181.271 197.994 181.162C198.032 181.052 198.048 180.937 198.04 180.821C198.033 180.705 198.004 180.592 197.953 180.488L183.746 151.381C183.695 151.277 183.624 151.184 183.538 151.107C183.451 151.03 183.35 150.971 183.24 150.934C183.13 150.896 183.014 150.88 182.899 150.887C182.783 150.894 182.669 150.924 182.565 150.975Z" fill="black"/>
<path d="M164.088 80.298C162.741 80.2979 161.742 81.351 161.105 82.6641C160.469 83.9772 160.112 85.6831 160.112 87.5608C160.112 89.4385 160.469 91.1444 161.105 92.4575C161.742 93.7706 162.741 94.8247 164.088 94.8246C165.435 94.8246 166.434 93.7706 167.07 92.4575C167.707 91.1444 168.065 89.4385 168.065 87.5608C168.065 85.6832 167.707 83.9772 167.07 82.6641C166.434 81.351 165.435 80.298 164.088 80.298ZM164.088 82.0591C164.45 82.0591 164.999 82.4346 165.482 83.4316C165.966 84.4285 166.3 85.9134 166.3 87.5608C166.3 89.2082 165.966 90.6941 165.482 91.6911C164.999 92.6881 164.45 93.0635 164.088 93.0635C163.726 93.0635 163.177 92.6881 162.694 91.6911C162.21 90.6941 161.875 89.2082 161.875 87.5608C161.875 85.9134 162.21 84.4285 162.694 83.4316C163.177 82.4346 163.726 82.0591 164.088 82.0591Z" fill="black"/>
<path d="M163.342 80.2793C161.78 80.3083 158.321 80.7099 155.644 83.463V83.464C154.407 84.7392 153.66 86.5174 153.62 88.3292C153.58 90.141 154.314 92.0281 156.041 93.2328C159.268 95.4853 162.606 95.0277 164.203 94.8178C164.318 94.8026 164.429 94.765 164.529 94.7071C164.63 94.6491 164.718 94.572 164.788 94.4801C164.859 94.3882 164.91 94.2833 164.94 94.1714C164.97 94.0595 164.978 93.9428 164.963 93.828C164.948 93.7132 164.91 93.6025 164.852 93.5022C164.794 93.402 164.716 93.3141 164.624 93.2437C164.532 93.1732 164.427 93.1216 164.315 93.0917C164.203 93.0618 164.086 93.0542 163.971 93.0695C162.357 93.2817 159.731 93.6565 157.053 91.7875C155.827 90.9319 155.357 89.7059 155.386 88.3676C155.415 87.0293 156.01 85.6211 156.913 84.6909C159.854 81.6661 164 82.0552 164 82.0552C164.233 82.0782 164.465 82.008 164.647 81.8598C164.828 81.7116 164.943 81.4977 164.966 81.2651C164.989 81.0325 164.918 80.8002 164.77 80.6194C164.622 80.4386 164.407 80.3241 164.174 80.3009C164.174 80.3009 163.864 80.2696 163.343 80.2793L163.342 80.2793Z" fill="black"/>
<path d="M164.184 93.0724C164.08 93.1237 163.987 93.195 163.91 93.2822C163.834 93.3693 163.776 93.4707 163.738 93.5804C163.701 93.6902 163.686 93.8061 163.694 93.9217C163.702 94.0373 163.732 94.1502 163.784 94.254L188.206 143.613C188.257 143.717 188.328 143.81 188.416 143.886C188.503 143.963 188.604 144.021 188.714 144.058C188.824 144.096 188.941 144.111 189.056 144.103C189.172 144.095 189.285 144.065 189.39 144.014C189.494 143.962 189.587 143.891 189.663 143.804C189.739 143.717 189.798 143.615 189.835 143.506C189.872 143.396 189.887 143.28 189.88 143.164C189.872 143.049 189.841 142.936 189.79 142.832L165.367 93.4728C165.263 93.2632 165.08 93.1032 164.858 93.0281C164.637 92.953 164.394 92.9689 164.184 93.0724Z" fill="black"/>
<path d="M166.93 85.2547C166.7 85.2991 166.497 85.4329 166.366 85.6265C166.301 85.7225 166.256 85.8303 166.233 85.9438C166.21 86.0573 166.209 86.1742 166.231 86.2878C166.254 86.4015 166.298 86.5097 166.362 86.6062C166.426 86.7028 166.509 86.7858 166.605 86.8505C168.47 88.1072 168.882 89.6462 168.536 91.2227C168.189 92.7993 166.937 94.3867 165.246 95.2536C165.038 95.3606 164.881 95.5456 164.81 95.7681C164.738 95.9906 164.758 96.2323 164.865 96.4402C164.972 96.6481 165.157 96.8051 165.38 96.8767C165.603 96.9483 165.845 96.9286 166.054 96.8219C168.194 95.7243 169.783 93.7784 170.262 91.6005C170.741 89.4226 169.962 86.9854 167.592 85.3894C167.496 85.3247 167.388 85.2794 167.275 85.2563C167.161 85.2332 167.044 85.2326 166.93 85.2547Z" fill="black"/>
<path d="M170.036 85.3826C169.939 85.4461 169.856 85.5281 169.791 85.6239C169.725 85.7196 169.68 85.8273 169.656 85.9407C169.633 86.054 169.632 86.1709 169.653 86.2847C169.675 86.3984 169.719 86.5068 169.783 86.6035C170.994 88.4436 171.166 90.2231 170.756 91.4303C170.346 92.6376 169.482 93.3215 168.085 93.2456C167.852 93.233 167.622 93.3136 167.448 93.4696C167.274 93.6257 167.169 93.8445 167.156 94.0779C167.149 94.1936 167.166 94.3093 167.204 94.4186C167.243 94.5279 167.303 94.6285 167.38 94.7148C167.457 94.801 167.551 94.8712 167.656 94.9213C167.76 94.9714 167.874 95.0004 167.99 95.0067C170.096 95.1212 171.807 93.8271 172.429 91.9961C173.051 90.165 172.713 87.8464 171.259 85.6364C171.13 85.441 170.929 85.3046 170.7 85.257C170.471 85.2094 170.232 85.2545 170.036 85.3826Z" fill="black"/>
<path d="M169.384 82.6435C167.697 82.5331 166.327 82.9642 166.327 82.9642C166.103 83.0335 165.916 83.1887 165.807 83.3955C165.698 83.6023 165.676 83.8439 165.745 84.0671C165.78 84.1777 165.835 84.2805 165.91 84.3696C165.984 84.4586 166.075 84.5322 166.178 84.5861C166.28 84.64 166.393 84.6732 166.508 84.6838C166.624 84.6943 166.74 84.682 166.851 84.6476C166.851 84.6476 167.941 84.3168 169.268 84.4036C170.595 84.4904 172.016 84.9287 172.955 86.5592C174.446 89.1481 172.94 92.0745 170.306 92.5224C170.075 92.5619 169.87 92.6912 169.734 92.8819C169.599 93.0727 169.545 93.3093 169.585 93.5397C169.624 93.7701 169.753 93.9755 169.944 94.1107C170.135 94.2459 170.372 94.2999 170.603 94.2609C174.409 93.6137 176.538 89.2434 174.486 85.6806C173.214 83.4727 171.07 82.7538 169.384 82.6435Z" fill="black"/>
<path d="M142.23 92.8194C140.519 91.377 137.904 91.7845 136.398 93.5634C134.893 95.3423 134.928 97.9841 136.64 99.4265C138.351 100.869 140.966 100.461 142.471 98.6826C143.977 96.9037 143.942 94.2619 142.23 92.8194ZM141.091 94.1657C141.989 94.9223 142.075 96.4182 141.122 97.545C140.168 98.6717 138.676 98.8369 137.779 98.0803C136.881 97.3237 136.794 95.8271 137.747 94.7004C138.701 93.5736 140.194 93.4091 141.091 94.1657Z" fill="black"/>
<path d="M93.0035 60.0059C92.8131 60.142 92.6847 60.348 92.6464 60.5786C92.6081 60.8092 92.6632 61.0456 92.7995 61.2357C92.7995 61.2357 96.4511 66.374 97.7549 72.0365C97.7818 72.1545 97.8328 72.2657 97.9047 72.3631C97.9047 72.3631 99.2134 74.1066 102.339 76.3232C105.464 78.5398 110.456 81.2968 117.965 83.5388C134.587 88.5002 151.992 86.9981 151.992 86.9981C152.108 86.9883 152.22 86.9558 152.323 86.9026C152.426 86.8494 152.518 86.7764 152.592 86.6879C152.667 86.5994 152.724 86.497 152.759 86.3866C152.794 86.2763 152.807 86.1601 152.797 86.0447C152.777 85.8118 152.665 85.5965 152.486 85.4459C152.307 85.2954 152.075 85.222 151.842 85.2419C151.842 85.2419 134.675 86.6858 118.471 81.8495C111.137 79.6597 106.327 76.9889 103.362 74.8858C100.511 72.8636 99.4757 71.4986 99.3952 71.3911C97.9369 65.3733 94.2357 60.2095 94.2357 60.2095C94.0994 60.0194 93.893 59.8912 93.6619 59.853C93.4308 59.8148 93.194 59.8698 93.0035 60.0059Z" fill="black"/>
<path d="M106.935 30.4271C106.824 30.3951 106.707 30.3853 106.592 30.3983C106.477 30.4114 106.365 30.4469 106.263 30.503C106.162 30.5591 106.072 30.6347 106 30.7253C105.928 30.8159 105.874 30.9199 105.842 31.0312C105.629 31.77 105.343 32.2442 105.075 32.508C104.808 32.7717 104.579 32.8572 104.271 32.8592C103.656 32.8632 102.595 32.3085 101.522 31.0125C101.372 30.8324 101.158 30.7188 100.925 30.6966C100.692 30.6745 100.459 30.7456 100.279 30.8944C100.189 30.9682 100.115 31.0588 100.061 31.1611C100.006 31.2635 99.9727 31.3755 99.9617 31.4908C99.9507 31.6061 99.9626 31.7224 99.9967 31.8332C100.031 31.9439 100.086 32.0468 100.16 32.1361C101.419 33.6559 102.798 34.6319 104.283 34.6223C105.025 34.6172 105.761 34.3099 106.316 33.7624C106.872 33.2148 107.268 32.4599 107.54 31.5182C107.572 31.407 107.582 31.2905 107.569 31.1754C107.556 31.0604 107.52 30.9491 107.464 30.8477C107.408 30.7464 107.332 30.6571 107.242 30.5849C107.151 30.5128 107.047 30.4591 106.935 30.4271Z" fill="black"/>
<path d="M103.33 40.7862C103.218 40.7596 103.101 40.7554 102.986 40.774C102.871 40.7926 102.762 40.8335 102.663 40.8944C102.464 41.0173 102.322 41.2142 102.268 41.4417C102.214 41.6691 102.253 41.9086 102.376 42.1075C103.166 43.383 104.579 44.1228 106.265 44.0595C106.499 44.0505 106.72 43.9492 106.879 43.7778C107.038 43.6064 107.123 43.379 107.114 43.1455C107.105 42.9119 107.003 42.6916 106.832 42.5327C106.66 42.3739 106.432 42.2896 106.198 42.2983C104.987 42.3438 104.381 41.9916 103.879 41.1807C103.755 40.9819 103.558 40.84 103.33 40.7862Z" fill="black"/>
<path d="M113.186 37.3131C112.962 37.2439 112.72 37.266 112.513 37.3747C112.306 37.4833 112.151 37.6696 112.081 37.8926C112.081 37.8926 110.89 41.623 108.388 44.3438C107.137 45.7042 105.597 46.7839 103.738 47.1094C101.88 47.4349 99.6333 47.0428 96.8352 45.2047C96.6795 45.1023 96.4954 45.0517 96.3091 45.0602C96.1228 45.0687 95.944 45.1358 95.7982 45.2519C95.7982 45.2519 94.3373 46.4249 93.2027 48.6531C92.0682 50.8813 91.2201 54.2354 92.2604 58.5743C92.2873 58.6869 92.3363 58.7931 92.4044 58.8868C92.4725 58.9806 92.5585 59.06 92.6573 59.1206C92.7562 59.1811 92.866 59.2217 92.9806 59.2399C93.0951 59.2581 93.2122 59.2536 93.325 59.2266C93.4378 59.1997 93.5442 59.1508 93.6381 59.0829C93.732 59.0149 93.8116 58.9291 93.8723 58.8304C93.9329 58.7318 93.9736 58.6221 93.9918 58.5078C94.0101 58.3935 94.0055 58.2766 93.9785 58.1641C93.0353 54.2301 93.8016 51.3696 94.778 49.452C95.4716 48.0896 96.1049 47.4093 96.4981 47.0307C99.3109 48.7166 101.861 49.2282 104.044 48.8459C106.393 48.4345 108.264 47.0853 109.689 45.5352C112.54 42.435 113.768 38.417 113.768 38.417C113.802 38.3064 113.814 38.1901 113.804 38.0748C113.793 37.9594 113.76 37.8473 113.706 37.7448C113.652 37.6423 113.578 37.5514 113.489 37.4773C113.4 37.4032 113.297 37.3475 113.186 37.3131Z" fill="black"/>
<path d="M100.229 0.00615322C99.4324 -0.0141574 98.6204 0.0158453 97.7995 0.0956845C91.3094 0.726876 84.238 4.50629 80.0421 11.6039C74.8229 13.6933 70.8573 20.4662 71.6583 29.0585C72.1081 33.8946 74.3338 37.7722 77.1322 40.2814C79.9306 42.7907 83.3246 43.9966 86.21 43.2675C88.8543 42.5985 90.0712 41.4419 90.4142 40.2667C90.7573 39.0915 90.1737 38.1179 90.1737 38.1179C90.0833 37.9666 89.9495 37.8458 89.7896 37.7711C89.6297 37.6964 89.451 37.6712 89.2767 37.6988C87.7992 37.9328 86.7505 37.5608 85.9379 36.8802C85.1253 36.1997 84.5665 35.1581 84.3292 34.0605C84.0919 32.9629 84.1895 31.8278 84.5539 31.0341C84.9183 30.2404 85.4383 29.7852 86.3431 29.7158C87.3773 29.6364 88.0674 29.8847 88.6241 30.2903C89.1807 30.696 89.6022 31.2953 89.9046 31.9452C90.5095 33.245 90.5966 34.639 90.5966 34.639C90.6048 34.7952 90.6544 34.9464 90.7404 35.0771C90.8265 35.2077 90.9458 35.3133 91.0861 35.3827C91.2265 35.4522 91.3828 35.4832 91.5391 35.4725C91.6955 35.4618 91.8461 35.4098 91.9756 35.3218C94.191 33.8196 95.1119 31.1767 95.55 28.9798C95.7686 27.8837 95.8618 26.8724 95.9009 26.1335C99.0257 27.1225 102.165 26.5367 104.892 26.1119C106.435 25.8715 107.855 25.7107 109.073 25.8797C110.184 26.0339 111.115 26.4828 111.996 27.3801C111.834 28.2406 111.766 29.0571 111.807 29.822C111.795 29.8724 111.787 29.9237 111.783 29.9755C111.799 29.9855 111.815 29.995 111.831 30.004C112.221 35.3003 116.801 38.2438 116.801 38.2438C116.9 38.3046 117.009 38.3453 117.124 38.3637C117.239 38.3821 117.356 38.3778 117.468 38.351C117.581 38.3242 117.688 38.2755 117.782 38.2077C117.876 38.1398 117.955 38.0542 118.016 37.9556C118.139 37.7566 118.178 37.517 118.124 37.2895C118.07 37.062 117.928 36.8652 117.728 36.7425C117.728 36.7425 114.156 34.5333 113.63 30.3631C119.11 28.667 123.446 23.563 124.2 18.4181C124.595 15.7226 123.935 12.9643 121.84 10.9043C119.833 8.93106 116.568 7.65971 111.916 7.36934C111.015 4.75872 109.181 2.77141 106.797 1.55965C104.872 0.580755 102.62 0.0670806 100.229 0.00615322ZM100.182 1.77021C102.346 1.82716 104.346 2.2924 105.995 3.13089C108.194 4.24888 109.777 5.99131 110.448 8.42307C110.497 8.60314 110.603 8.76285 110.749 8.8792C110.895 8.99555 111.075 9.06252 111.262 9.07045C115.97 9.26859 118.924 10.5123 120.601 12.1608C122.277 13.8092 122.784 15.8975 122.452 18.1633C121.842 22.3299 118.133 26.8464 113.624 28.5056C113.666 28.0821 113.67 27.6767 113.781 27.2217C113.815 27.0845 113.815 26.9412 113.782 26.8039C113.749 26.6666 113.683 26.5392 113.59 26.4326C112.366 25.029 110.857 24.3472 109.316 24.1333C107.775 23.9195 106.2 24.1232 104.619 24.3695C101.457 24.8621 98.3097 25.5146 95.4188 24.155C95.2819 24.0905 95.1307 24.0623 94.9798 24.0729C94.8288 24.0835 94.6831 24.1326 94.5567 24.2156C94.4302 24.2985 94.3272 24.4125 94.2575 24.5466C94.1879 24.6808 94.154 24.8305 94.159 24.9814C94.159 24.9814 94.2126 26.656 93.818 28.6355C93.5213 30.1229 92.9609 31.7213 92.0307 32.8789C91.9033 32.3504 91.7901 31.8121 91.5064 31.2024C91.1174 30.3666 90.542 29.5042 89.6659 28.8657C88.7898 28.2273 87.6113 27.8499 86.2079 27.9576C84.6724 28.0754 83.5148 29.0647 82.948 30.2992C82.3813 31.5337 82.2942 33.009 82.602 34.4324C82.9098 35.8558 83.6263 37.2452 84.8023 38.2301C85.7962 39.0626 87.1441 39.5353 88.694 39.4884C88.7091 39.6088 88.7654 39.6099 88.7177 39.7738C88.5913 40.2065 88.0982 40.9711 85.7763 41.5585C83.6903 42.0856 80.7851 41.1865 78.3131 38.97C75.8411 36.7534 73.825 33.2846 73.4168 28.8952C72.6591 20.767 76.5909 14.6844 80.948 13.1131C81.1449 13.0422 81.3101 12.9038 81.4142 12.7225C85.2885 5.98491 91.9635 2.43415 97.9709 1.84991C98.7218 1.77688 99.4606 1.75123 100.182 1.77021Z" fill="black"/>
<path fill-rule="evenodd" clip-rule="evenodd" d="M112.641 29.7669C112.606 28.9146 112.681 27.9957 112.924 27.0114C108.568 22.0169 101.457 27.9695 95.042 24.9527C95.042 24.9527 95.2742 32.0186 91.4788 34.5922C91.4788 34.5922 91.1507 28.4622 86.2753 28.8365C81.3948 29.2108 82.6162 39.6456 89.4145 38.5692C89.4145 38.5692 90.959 41.1569 85.9927 42.4132C81.0213 43.6695 73.3952 38.2024 72.5372 28.977C71.7499 20.5309 75.7825 14.0382 80.6478 12.2837C88.6979 -1.71613 108.346 -2.51354 111.299 8.18934C130.689 9.00539 123.533 27.1177 112.641 29.7669Z" fill="black"/>
<path d="M81.7257 54.0171C78.9766 54.2605 76.1074 55.5988 73.5962 57.6928C67.7678 62.5575 55.6837 75.2728 49.5784 98.0753C49.3043 99.0874 49.6036 100.176 50.364 100.905C50.3692 100.91 50.3744 100.915 50.3797 100.92C52.682 103.023 59.405 107.939 70.9317 107.15C73.1 107.002 75.6308 106.715 78.3652 105.082C81.0996 103.449 84.006 100.514 87.161 95.1976C87.2803 94.9965 87.3147 94.7564 87.2566 94.53C87.1986 94.3036 87.0529 94.1095 86.8515 93.9903C86.65 93.8713 86.4095 93.837 86.1827 93.895C85.9559 93.9529 85.7614 94.0983 85.642 94.2993C82.5841 99.4525 79.8656 102.132 77.4583 103.57C75.051 105.008 72.9229 105.248 70.8114 105.392C59.8433 106.142 53.6521 101.515 51.5852 99.6288C51.2898 99.3425 51.1761 98.9294 51.2837 98.5338C51.2837 98.5328 51.2837 98.5318 51.2837 98.5308C57.2812 76.1311 69.1398 63.7095 74.7278 59.0455C77.0113 57.1414 79.6001 55.9751 81.8804 55.7732C84.1607 55.5713 86.0855 56.2481 87.442 58.1168C88.0576 58.9659 88.5643 60.5448 88.8694 62.3985C89.1744 64.2523 89.3072 66.3796 89.3435 68.3814C89.4164 72.385 89.1099 75.8735 89.1099 75.8735C89.097 76.0197 89.1209 76.1669 89.1794 76.3016C89.2379 76.4363 89.3293 76.5543 89.4451 76.6448C105.638 89.3025 126.315 91.0793 129.431 91.2876C128.437 94.3596 127.289 96.4943 126.354 97.7014C125.445 98.8737 124.914 99.225 124.764 99.3179C113.22 100.618 102.761 98.2408 94.3728 94.495C85.9329 90.7261 79.5885 85.5523 76.4341 81.5031C73.4448 77.6699 73.4149 74.9707 73.9776 73.1679C74.5404 71.365 75.7392 70.4652 75.7392 70.4652C75.8318 70.3955 75.9098 70.3083 75.9686 70.2085C76.0275 70.1087 76.066 69.9984 76.0822 69.8837C76.0983 69.7691 76.0917 69.6523 76.0626 69.5403C76.0335 69.4282 75.9825 69.3229 75.9127 69.2305C75.8428 69.138 75.7555 69.0602 75.6555 69.0014C75.5555 68.9427 75.4449 68.9042 75.33 68.8881C75.2151 68.872 75.0982 68.8787 74.9859 68.9077C74.8736 68.9368 74.7682 68.9876 74.6756 69.0573C74.6756 69.0573 73.0216 70.303 72.291 72.6435C71.5605 74.984 71.7965 78.4268 75.0403 82.5864C78.4472 86.9595 84.9656 92.2259 93.6513 96.1046C102.337 99.9834 113.192 102.448 125.18 101.052C125.298 101.039 125.412 101.001 125.516 100.942C125.516 100.942 126.554 100.325 127.751 98.7797C128.949 97.2347 130.394 94.7131 131.509 90.7603C131.545 90.6326 131.552 90.4985 131.529 90.3678C131.506 90.2372 131.453 90.1135 131.376 90.0059C131.298 89.8983 131.197 89.8095 131.08 89.7463C130.963 89.6831 130.834 89.6469 130.701 89.6406C130.701 89.6406 107.792 88.4871 90.902 75.5222C90.9561 74.8561 91.1766 72.0092 91.11 68.3499C91.0727 66.294 90.9388 64.0978 90.6122 62.1132C90.2856 60.1286 89.7946 58.3538 88.8733 57.0828C87.1512 54.7105 84.4748 53.7737 81.7257 54.0171Z" fill="black"/>
<path d="M141.406 89.1871C140.773 89.1841 140.097 89.2669 139.365 89.4026C135.221 90.1715 130.766 89.6456 130.766 89.6456C130.651 89.6316 130.534 89.6404 130.422 89.6715C130.31 89.7025 130.206 89.7553 130.114 89.8268C130.023 89.8982 129.946 89.987 129.889 90.0879C129.832 90.1888 129.796 90.3 129.782 90.415C129.754 90.6471 129.819 90.8808 129.964 91.0648C130.109 91.2487 130.32 91.3678 130.553 91.3959C130.553 91.3959 135.182 91.9721 139.688 91.1362C141.015 90.8902 141.915 90.8955 142.571 91.1402C143.227 91.3847 143.769 91.876 144.387 92.9525C144.89 93.8329 144.95 95.2947 144.449 96.3389C143.948 97.3832 143.097 98.0822 141.322 97.8186C141.091 97.7842 140.855 97.8431 140.667 97.9822C140.478 98.1213 140.353 98.3293 140.319 98.5605C140.284 98.7916 140.343 99.027 140.483 99.2148C140.622 99.4027 140.83 99.5275 141.062 99.562C143.466 99.919 145.27 98.7098 146.042 97.1014C146.814 95.493 146.766 93.5568 145.922 92.0788V92.0778C145.187 90.7968 144.312 89.9064 143.19 89.4883C142.629 89.2792 142.04 89.1902 141.407 89.1872L141.406 89.1871Z" fill="black"/>
<path d="M137.472 92.6375C134.853 93.8414 133.479 96.3281 131.508 97.7359C130.704 98.3088 129.943 98.183 129.22 97.8874C128.497 97.5918 127.983 97.1328 127.983 97.1328C127.81 96.9756 127.581 96.8934 127.348 96.9043C127.114 96.9152 126.894 97.0182 126.736 97.1908C126.658 97.2764 126.597 97.3765 126.558 97.4855C126.519 97.5944 126.501 97.71 126.507 97.8256C126.512 97.9413 126.54 98.0548 126.589 98.1596C126.639 98.2644 126.708 98.3584 126.794 98.4364C126.794 98.4364 127.504 99.0908 128.551 99.5186C129.598 99.9465 131.154 100.155 132.535 99.1704C132.535 99.17 132.535 99.1697 132.535 99.1694C134.925 97.463 136.286 95.1238 138.21 94.2392C138.316 94.1908 138.41 94.1221 138.489 94.0371C138.568 93.9521 138.629 93.8524 138.669 93.7438C138.71 93.6352 138.728 93.5197 138.723 93.404C138.719 93.2883 138.692 93.1746 138.643 93.0694C138.545 92.8572 138.367 92.6926 138.147 92.6116C137.927 92.5306 137.685 92.5399 137.472 92.6375Z" fill="black"/>
<path d="M143.583 89.0218C143.033 89.0312 142.451 89.1061 141.84 89.256C141.727 89.2836 141.621 89.333 141.527 89.4015C141.434 89.47 141.355 89.5563 141.295 89.6553C141.234 89.7544 141.195 89.8643 141.177 89.9787C141.159 90.0932 141.165 90.21 141.192 90.3225C141.22 90.435 141.269 90.541 141.338 90.6343C141.407 90.7277 141.493 90.8067 141.592 90.8667C141.692 90.9267 141.802 90.9666 141.916 90.9842C142.031 91.0017 142.148 90.9965 142.261 90.9689C144.262 90.4779 145.454 90.9285 146.264 91.7373C147.074 92.5461 147.492 93.8461 147.47 95.1139C147.449 96.3817 146.969 97.5506 146.319 98.0911C145.669 98.6316 144.864 98.8087 143.385 97.8913C143.186 97.7679 142.946 97.7284 142.718 97.7816C142.489 97.8347 142.292 97.9761 142.168 98.1747C142.107 98.273 142.066 98.3824 142.047 98.4966C142.028 98.6109 142.032 98.7277 142.058 98.8404C142.085 98.9532 142.133 99.0596 142.2 99.1537C142.268 99.2478 142.353 99.3277 142.452 99.3888C144.351 100.566 146.239 100.452 147.45 99.4458C148.66 98.4394 149.209 96.8048 149.237 95.1444C149.265 93.484 148.755 91.7309 147.513 90.4907C146.581 89.5606 145.231 88.994 143.583 89.0218Z" fill="black"/>
<path d="M146.539 89.0947C146.04 89.0779 145.511 89.1107 144.954 89.1999C144.839 89.2182 144.729 89.2589 144.631 89.3196C144.532 89.3803 144.446 89.4598 144.378 89.5537C144.31 89.6475 144.261 89.7538 144.234 89.8665C144.207 89.9792 144.203 90.096 144.221 90.2104C144.24 90.3247 144.28 90.4344 144.341 90.533C144.402 90.6316 144.482 90.7174 144.576 90.7852C144.67 90.8531 144.776 90.9019 144.889 90.9286C145.002 90.9554 145.119 90.9598 145.234 90.9414C147.064 90.6482 148.202 91.0652 148.96 91.7501C149.718 92.435 150.119 93.4737 150.165 94.5423C150.209 95.6109 149.876 96.6698 149.344 97.2961C148.813 97.9224 148.201 98.208 147.153 97.9032C146.928 97.8377 146.686 97.864 146.481 97.9764C146.276 98.0888 146.124 98.2779 146.058 98.5023C145.992 98.7267 146.019 98.968 146.131 99.1729C146.244 99.3779 146.433 99.5299 146.658 99.5954C148.283 100.068 149.795 99.4946 150.693 98.4364C151.591 97.3782 151.992 95.9264 151.93 94.4685C151.868 93.0106 151.322 91.5069 150.145 90.4435C149.262 89.646 148.036 89.1448 146.539 89.0947Z" fill="black"/>
<path d="M154.163 87.6641C153.464 87.9531 151.839 88.4088 150.45 88.7601C149.062 89.1114 147.877 89.378 147.877 89.378C147.648 89.4296 147.45 89.5696 147.325 89.7672C147.2 89.9648 147.159 90.2038 147.21 90.4317C147.262 90.6598 147.402 90.858 147.6 90.983C147.798 91.1079 148.037 91.1492 148.266 91.0978C148.266 91.0978 149.47 90.8268 150.884 90.4691C152.298 90.1114 153.888 89.6865 154.84 89.2924C155.056 89.2028 155.228 89.031 155.317 88.815C155.407 88.5989 155.407 88.3562 155.317 88.1403C155.227 87.9244 155.055 87.7529 154.839 87.6636C154.622 87.5743 154.379 87.5745 154.163 87.6641Z" fill="black"/>
<path d="M153.701 94.4675C151.94 94.4715 150.542 95.1503 150.542 95.1503C150.437 95.2002 150.343 95.2702 150.266 95.3564C150.188 95.4425 150.129 95.543 150.09 95.6522C150.051 95.7613 150.035 95.877 150.041 95.9927C150.047 96.1083 150.076 96.2216 150.126 96.326C150.176 96.4306 150.246 96.5243 150.332 96.6018C150.418 96.6793 150.519 96.7391 150.629 96.7777C150.738 96.8164 150.854 96.8331 150.97 96.827C151.086 96.8209 151.199 96.7921 151.304 96.7422C151.304 96.7422 152.399 96.2335 153.705 96.2306C155.011 96.2276 156.398 96.5948 157.412 98.6794C157.412 98.6797 157.412 98.6801 157.412 98.6804C159.956 103.907 184.255 151.219 184.255 151.219C184.362 151.426 184.547 151.583 184.77 151.655C184.993 151.727 185.235 151.707 185.443 151.6C185.547 151.547 185.639 151.475 185.714 151.387C185.789 151.299 185.846 151.196 185.881 151.086C185.917 150.976 185.931 150.86 185.921 150.745C185.912 150.629 185.88 150.517 185.827 150.414C185.827 150.414 161.443 102.927 159.001 97.9101V97.909C157.717 95.2698 155.462 94.4635 153.701 94.4675Z" fill="black"/>
<path d="M161.745 104.724C161.745 104.724 158.907 105.213 155.858 107.745C152.81 110.277 149.489 114.877 148.214 122.945C145.724 138.733 144.175 150.364 144.211 158.897C144.23 162.855 143.785 166.725 145.609 170.771C147.213 174.326 150.727 177.897 157.363 181.765L142.25 182.067C142.134 182.07 142.02 182.095 141.913 182.141C141.807 182.188 141.711 182.255 141.631 182.338C141.55 182.422 141.487 182.52 141.445 182.628C141.403 182.736 141.382 182.851 141.384 182.967C141.387 183.082 141.412 183.197 141.458 183.303C141.505 183.409 141.572 183.505 141.656 183.585C141.739 183.665 141.838 183.728 141.946 183.77C142.054 183.812 142.169 183.833 142.285 183.831L160.525 183.465C160.721 183.46 160.909 183.391 161.062 183.268C161.214 183.145 161.321 182.976 161.366 182.785C161.411 182.595 161.391 182.395 161.31 182.217C161.229 182.04 161.09 181.894 160.917 181.803C152.474 177.391 148.825 173.606 147.22 170.047C145.615 166.487 145.998 162.972 145.977 158.888C145.942 150.577 147.472 138.986 149.959 123.22C151.177 115.511 154.257 111.367 156.988 109.099C159.718 106.831 162.035 106.464 162.035 106.464C162.149 106.445 162.259 106.403 162.357 106.342C162.456 106.281 162.541 106.201 162.609 106.107C162.676 106.013 162.724 105.906 162.751 105.793C162.777 105.68 162.781 105.564 162.761 105.449C162.742 105.335 162.701 105.226 162.64 105.127C162.578 105.029 162.498 104.944 162.404 104.877C162.309 104.809 162.203 104.761 162.09 104.735C161.977 104.709 161.86 104.705 161.745 104.724Z" fill="black"/>
<path fill-rule="evenodd" clip-rule="evenodd" d="M45.0992 181.764C45.0992 183.008 44.6036 184.202 43.7216 185.083C42.8396 185.963 41.6434 186.458 40.396 186.458C39.7784 186.458 39.1668 186.336 38.5962 186.1C38.0256 185.864 37.5071 185.519 37.0704 185.083C36.6337 184.647 36.2872 184.129 36.0509 183.56C35.8145 182.99 35.6929 182.38 35.6929 181.764C35.6929 181.147 35.8145 180.537 36.0509 179.967C36.2872 179.398 36.6337 178.88 37.0704 178.444C37.5071 178.008 38.0256 177.663 38.5962 177.427C39.1668 177.191 39.7784 177.069 40.396 177.069C41.6434 177.069 42.8396 177.564 43.7216 178.444C44.6036 179.325 45.0992 180.519 45.0992 181.764Z" fill="black"/>
<path d="M44.0797 141.886L1.94178 142.237C1.7077 142.239 1.48403 142.334 1.31989 142.5C1.15576 142.667 1.0646 142.892 1.06643 143.125C1.06734 143.241 1.09108 143.355 1.1363 143.462C1.18152 143.569 1.24734 143.665 1.33 143.747C1.41266 143.828 1.51051 143.892 1.61802 143.935C1.72553 143.979 1.84058 144.001 1.95657 144L44.0945 143.649C44.3286 143.647 44.5523 143.552 44.7164 143.385C44.8805 143.219 44.9717 142.994 44.9699 142.76C44.969 142.644 44.9452 142.53 44.9 142.423C44.8548 142.317 44.789 142.22 44.7063 142.139C44.6236 142.058 44.5258 141.994 44.4183 141.95C44.3108 141.907 44.1957 141.885 44.0797 141.886Z" fill="black"/>
<path d="M19.0545 113.582C17.3901 113.591 15.36 113.628 13.348 113.681C11.3361 113.735 9.3443 113.805 7.75388 113.882C6.1635 113.959 5.09731 114.01 4.48611 114.136C3.69201 114.299 2.6235 114.499 1.7605 115.376C0.897207 116.253 0.368309 117.661 0.219774 119.948C0.0745202 122.185 0.00664056 126.734 0.000937389 131.001C-0.00410966 133.135 0.0115377 135.192 0.0403059 136.84C0.0695788 138.489 0.104146 139.673 0.179297 140.281C0.205603 140.495 0.309598 140.692 0.471634 140.835C0.63367 140.977 0.842502 141.056 1.05859 141.055L27.6009 140.978L33.8289 140.961C34.063 140.96 34.2872 140.866 34.4523 140.701C34.6173 140.535 34.7097 140.311 34.7092 140.077C34.7089 139.961 34.6859 139.847 34.6412 139.74C34.5966 139.633 34.5313 139.536 34.4491 139.454C34.3669 139.373 34.2694 139.308 34.1622 139.264C34.0549 139.22 33.94 139.197 33.824 139.198L28.5453 139.212C28.5736 138.432 28.7168 134.55 28.846 129.63C28.9167 126.934 28.9757 124.168 28.9938 121.928C29.012 119.688 29.0201 118.11 28.8835 117.288C28.8835 117.287 28.8835 117.287 28.8835 117.286C28.6422 115.854 27.5978 114.907 26.4289 114.429C25.2599 113.951 23.9226 113.796 22.6219 113.655C21.9623 113.583 20.719 113.573 19.0545 113.582ZM19.0646 115.345C20.7107 115.336 22.0382 115.364 22.4309 115.407C23.7093 115.546 24.9251 115.719 25.7598 116.06C26.5936 116.401 27.0032 116.764 27.1408 117.576C27.1908 117.878 27.2455 119.694 27.2276 121.914C27.2099 124.135 27.1513 126.894 27.0807 129.583C26.951 134.529 26.8045 138.49 26.7781 139.218L1.9027 139.29C1.86737 138.713 1.828 138.053 1.8061 136.809C1.77733 135.176 1.76468 133.128 1.76771 131.003C1.77326 126.754 1.84518 122.178 1.98261 120.063C2.11666 117.998 2.57265 117.067 3.02159 116.611C3.47052 116.155 4.0426 116.027 4.84326 115.863C4.9866 115.833 6.26771 115.719 7.83896 115.643C9.41021 115.567 11.3939 115.497 13.3956 115.443C15.3974 115.39 17.4185 115.354 19.0646 115.345Z" fill="black"/>
<path d="M28.0516 119.031C19.0049 119.662 10.0309 119.779 1.05777 119.812C0.823527 119.813 0.599179 119.906 0.434099 120.072C0.269019 120.238 0.176709 120.462 0.177495 120.696C0.177883 120.812 0.201137 120.927 0.245943 121.034C0.29075 121.14 0.356202 121.237 0.438596 121.319C0.520991 121.401 0.618707 121.465 0.726128 121.509C0.833549 121.553 0.948602 121.575 1.06467 121.575C10.0489 121.542 19.0622 121.425 28.1748 120.789C28.4084 120.772 28.6259 120.664 28.7795 120.488C28.9331 120.311 29.0102 120.081 28.994 119.848C28.9776 119.615 28.8691 119.398 28.6923 119.245C28.5156 119.091 28.2852 119.014 28.0516 119.031Z" fill="black"/>
<path d="M29.684 142.07C29.684 142.07 23.3327 144.682 17.1837 150.042C11.0346 155.402 4.99771 163.626 5.81301 174.735C5.82851 174.94 5.91517 175.132 6.05803 175.28C6.20089 175.428 6.391 175.522 6.59551 175.544C6.80002 175.567 7.00612 175.518 7.17822 175.406C7.35031 175.293 7.47756 175.124 7.53808 174.928C7.53808 174.928 9.35236 169.02 14.048 163.086C18.7436 157.152 26.2166 151.265 37.7011 151.219C43.5733 151.196 50.612 152.309 56.6256 155.729C62.6392 159.15 67.6618 164.826 69.67 174.182C70.48 177.961 70.6473 180.702 71.3044 183.087C71.9615 185.471 73.2067 187.468 75.9157 189.312C77.2178 190.197 78.4531 190.973 80.5596 191.523C82.6662 192.074 85.6304 192.43 90.6113 192.647C100.573 193.081 118.632 192.947 153.842 192.444C153.958 192.443 154.073 192.418 154.18 192.373C154.286 192.327 154.383 192.26 154.464 192.177C154.545 192.094 154.609 191.996 154.651 191.888C154.694 191.781 154.715 191.666 154.714 191.55C154.712 191.434 154.688 191.32 154.642 191.213C154.596 191.107 154.529 191.011 154.446 190.93C154.363 190.85 154.265 190.786 154.157 190.743C154.049 190.701 153.934 190.679 153.818 190.681C118.612 191.184 100.541 191.314 90.6882 190.885C85.7618 190.67 82.8973 190.311 81.0072 189.817C79.117 189.323 78.1883 188.723 76.9114 187.854C74.4623 186.188 73.5898 184.731 73.0078 182.619C72.4258 180.508 72.2324 177.71 71.3971 173.813C69.2919 164.006 63.8831 157.828 57.4999 154.198C51.1167 150.567 43.7936 149.432 37.6942 149.456C25.6039 149.504 17.5747 155.784 12.662 161.993C10.3737 164.885 8.7952 167.722 7.70171 169.987C8.60463 161.898 13.3514 155.723 18.3459 151.369C24.2556 146.218 30.3582 143.699 30.3582 143.699C30.5747 143.61 30.7467 143.438 30.8366 143.222C30.9264 143.006 30.9267 142.764 30.8373 142.548C30.7479 142.332 30.5761 142.16 30.3598 142.07C30.1436 141.981 29.9005 141.98 29.684 142.07Z" fill="black"/>
<path d="M57.2218 154.044C57.1242 153.982 57.0151 153.939 56.9009 153.919C56.7867 153.898 56.6697 153.9 56.5563 153.925C56.443 153.95 56.3357 153.997 56.2405 154.063C56.1453 154.129 56.0641 154.213 56.0015 154.311L40.4966 178.471C40.434 178.569 40.3912 178.678 40.3708 178.792C40.3503 178.906 40.3526 179.023 40.3774 179.136C40.4022 179.249 40.449 179.356 40.5153 179.451C40.5816 179.546 40.666 179.627 40.7637 179.689C40.8614 179.752 40.9705 179.794 41.0848 179.815C41.199 179.835 41.3161 179.833 41.4295 179.808C41.5428 179.783 41.6501 179.736 41.7453 179.67C41.8404 179.604 41.9216 179.519 41.9841 179.422L57.489 155.262C57.5516 155.165 57.5943 155.056 57.6148 154.942C57.6352 154.828 57.633 154.711 57.6082 154.598C57.5834 154.485 57.5365 154.378 57.4702 154.283C57.4039 154.188 57.3195 154.107 57.2218 154.044Z" fill="black"/>
<path d="M42.0078 181.466C41.8918 181.466 41.7769 181.488 41.6694 181.531C41.562 181.575 41.4643 181.64 41.3819 181.721C41.2994 181.802 41.2338 181.899 41.1888 182.006C41.1438 182.113 41.1203 182.227 41.1196 182.343C41.119 182.459 41.1412 182.573 41.185 182.681C41.2288 182.788 41.2933 182.885 41.3748 182.968C41.4564 183.05 41.5534 183.115 41.6603 183.16C41.7672 183.205 41.882 183.229 41.9979 183.229L72.0634 183.396C72.1794 183.396 72.2943 183.374 72.4017 183.33C72.5092 183.287 72.6069 183.222 72.6893 183.141C72.7718 183.06 72.8374 182.963 72.8824 182.856C72.9274 182.749 72.9509 182.635 72.9515 182.519C72.9522 182.403 72.93 182.288 72.8862 182.181C72.8424 182.074 72.7779 181.977 72.6964 181.894C72.6148 181.812 72.5178 181.746 72.4109 181.702C72.304 181.657 72.1892 181.633 72.0732 181.633L42.0078 181.466Z" fill="black"/>
<path d="M34.5614 85.0333C32.4571 85.0442 30.2919 85.471 28.1234 86.0614C23.1364 87.4176 18.9742 92.4862 17.156 94.9437C17.156 94.9447 17.156 94.9457 17.156 94.9467C16.3045 96.0812 16.2645 97.6314 17.0406 98.8103C17.0436 98.8146 17.0466 98.8189 17.0497 98.8231C18.3906 100.785 20.3674 102.252 22.3353 103.265C24.3032 104.279 26.242 104.847 27.7038 104.919C29.1036 104.988 31.6569 105.191 34.0529 105.094C35.2509 105.046 36.4125 104.927 37.4193 104.652C38.4261 104.376 39.3488 103.953 39.8541 103.072C41.2047 100.715 42.6753 98.0981 43.6275 95.7427C44.1037 94.5649 44.4548 93.4539 44.5808 92.4271C44.7067 91.4002 44.6146 90.3983 44.0169 89.6093C41.9682 86.904 39.3874 85.5632 36.6455 85.1701C35.96 85.0718 35.265 85.0297 34.5636 85.0334L34.5614 85.0333ZM34.57 86.7993C35.1948 86.7948 35.8028 86.831 36.3917 86.9154C38.7472 87.2531 40.8078 88.2988 42.6049 90.6718C42.6049 90.6721 42.6049 90.6724 42.6049 90.6728C42.8046 90.9366 42.9201 91.4346 42.8247 92.2125C42.7293 92.9905 42.4293 93.9881 41.9868 95.0824C41.102 97.2712 39.6633 99.8496 38.3188 102.197C38.1932 102.416 37.7403 102.735 36.9496 102.951C36.1589 103.167 35.1013 103.288 33.9796 103.333C31.736 103.424 29.2499 103.229 27.788 103.158C26.7363 103.106 24.9177 102.613 23.1432 101.699C21.372 100.787 19.6264 99.4604 18.5141 97.8372C18.1432 97.2699 18.1611 96.5437 18.5683 96.0023C18.57 96.0004 18.5717 95.9984 18.5734 95.9965C20.2899 93.6758 24.4829 88.8788 28.5876 87.7625C30.6738 87.1946 32.6957 86.8126 34.57 86.7993Z" fill="black"/>
<path fill-rule="evenodd" clip-rule="evenodd" d="M39.2419 102.354C39.1915 102.448 39.1359 102.541 39.0854 102.634C37.8237 104.834 30.6064 104.178 27.7447 104.038C25.2313 103.915 20.2297 101.916 17.7768 98.3264C17.5699 98.0131 17.4387 97.665 17.3882 97.3093C21.5974 97.2166 28.0778 97.2297 30.9294 98.0488C34.2655 99.0039 36.9253 99.8794 39.2419 102.354Z" fill="black"/>
<path d="M35.1715 85.048C34.938 85.0648 34.7206 85.1734 34.5673 85.3501C34.5673 85.3501 28.6894 92.0057 29.6789 99.983C29.6932 100.098 29.7299 100.209 29.7872 100.31C29.8445 100.41 29.9211 100.499 30.0126 100.57C30.1042 100.641 30.2089 100.694 30.3208 100.725C30.4326 100.755 30.5495 100.764 30.6647 100.749C30.7798 100.735 30.891 100.698 30.9919 100.641C31.0929 100.584 31.1815 100.508 31.2528 100.416C31.3242 100.325 31.3767 100.22 31.4075 100.109C31.4384 99.9972 31.4469 99.8805 31.4326 99.7656C30.5648 92.7699 35.902 86.5042 35.902 86.5042C36.0551 86.3276 36.1318 86.0975 36.1152 85.8645C36.0986 85.6315 35.99 85.4147 35.8132 85.2615C35.7256 85.1856 35.6237 85.1277 35.5136 85.091C35.4035 85.0544 35.2873 85.0398 35.1715 85.048Z" fill="black"/>
<path d="M76.4124 56.0163C76.2989 55.9926 76.1818 55.9914 76.0678 56.0128C75.9538 56.0343 75.8451 56.0779 75.748 56.1413C75.748 56.1413 67.0196 61.8352 57.5244 68.3175C52.7768 71.5586 47.8379 74.9969 43.6953 78.0243C39.5527 81.0516 36.2347 83.6313 34.6008 85.3137C34.52 85.3968 34.4564 85.4949 34.4136 85.6025C34.3708 85.7101 34.3497 85.8251 34.3514 85.9408C34.3532 86.0566 34.3777 86.1708 34.4237 86.2771C34.4697 86.3834 34.5362 86.4796 34.6194 86.5602C34.7027 86.6408 34.8011 86.7042 34.909 86.7468C35.0168 86.7894 35.132 86.8104 35.248 86.8086C35.364 86.8067 35.4785 86.7821 35.5849 86.7361C35.6913 86.6901 35.7877 86.6237 35.8684 86.5405C37.2879 85.0789 40.6213 82.4555 44.7382 79.4469C48.8551 76.4383 53.7836 73.0074 58.522 69.7726C67.9986 63.303 76.715 57.617 76.715 57.617C76.911 57.4891 77.0482 57.2888 77.0962 57.06C77.1443 56.8312 77.0993 56.5928 76.9713 56.397C76.9078 56.3 76.8257 56.2164 76.7298 56.1511C76.6339 56.0858 76.5261 56.04 76.4124 56.0163Z" fill="black"/>
<path d="M14.7143 80.7938C14.1354 80.7108 13.5044 80.96 13.1351 81.4304C12.3965 82.3712 12.5581 83.7798 13.5482 85.418C15.4953 88.6397 19.0863 90.7206 22.6398 91.0555C22.873 91.0774 23.1053 91.0059 23.2857 90.8568C23.4662 90.7078 23.5799 90.4933 23.6019 90.2605C23.6238 90.0279 23.5523 89.7961 23.4032 89.6161C23.254 89.436 23.0394 89.3224 22.8063 89.3003C19.839 89.0206 16.6764 87.1819 15.0603 84.5079C14.3239 83.2894 14.4767 82.6978 14.5201 82.5894C14.556 82.6037 14.6026 82.6065 14.7064 82.7547C14.7064 82.755 14.7064 82.7553 14.7064 82.7557C15.7266 84.2073 17.3442 84.9946 19.1236 85.3324C20.9029 85.6702 22.8844 85.5875 24.8518 85.2724C30.8663 84.3092 34.7793 86.6822 34.7793 86.6822C34.8786 86.742 34.9888 86.7817 35.1035 86.7989C35.2182 86.8162 35.3352 86.8107 35.4478 86.7829C35.5604 86.755 35.6664 86.7053 35.7597 86.6365C35.853 86.5678 35.9319 86.4813 35.9918 86.3822C36.0516 86.283 36.0912 86.1729 36.1085 86.0584C36.1257 85.9439 36.1201 85.8271 36.0921 85.7147C36.0641 85.6023 36.0142 85.4966 35.9453 85.4035C35.8763 85.3103 35.7896 85.2317 35.6901 85.172C35.6901 85.172 31.1648 82.4751 24.5718 83.5309C22.7437 83.8238 20.9386 83.8826 19.4538 83.6008C17.969 83.319 16.8442 82.7261 16.1535 81.7433C15.797 81.235 15.293 80.8768 14.7143 80.7938Z" fill="black"/>
<path d="M51.0194 94.6869C46.5656 95.6597 42.9304 94.7686 42.9304 94.7686C42.7029 94.7128 42.4626 94.7494 42.2622 94.8704C42.0618 94.9915 41.9178 95.187 41.8618 95.414C41.8058 95.6409 41.8424 95.8806 41.9635 96.0806C42.0845 96.2806 42.2802 96.4244 42.5075 96.4805C42.5075 96.4805 46.5238 97.474 51.397 96.4097C51.5103 96.3849 51.6177 96.3382 51.7129 96.272C51.8081 96.2059 51.8894 96.1217 51.952 96.0242C52.0146 95.9267 52.0574 95.8178 52.0778 95.7039C52.0983 95.5899 52.096 95.473 52.0712 95.3599C52.0465 95.2467 51.9996 95.1396 51.9333 95.0445C51.8671 94.9495 51.7827 94.8684 51.685 94.8059C51.5873 94.7434 51.4783 94.7007 51.3641 94.6803C51.2499 94.6599 51.1328 94.6621 51.0194 94.6869Z" fill="black"/>
<path d="M78.7783 102.678C78.6036 102.833 78.4979 103.052 78.4846 103.285C78.4713 103.519 78.5514 103.748 78.7074 103.922C80.013 105.382 82.5173 106.483 85.8462 107.648C89.1751 108.814 93.3107 109.951 97.7077 111.055C106.502 113.264 116.35 115.344 122.652 117.154C128.886 118.945 132.262 121.442 134.18 124.479C136.097 127.517 136.589 131.216 136.706 135.505C136.753 137.222 136.117 140.232 135.06 143.708C134.003 147.184 132.542 151.166 131.002 155.041C127.921 162.791 124.492 170.172 123.4 172.204C123.4 172.205 123.4 172.205 123.4 172.205C122.742 173.434 122.655 174.659 123.146 175.625C123.638 176.591 124.547 177.208 125.573 177.694C127.625 178.667 130.351 179.176 132.474 179.828C134.581 180.476 135.514 181.159 135.782 181.543C135.917 181.735 135.928 181.834 135.918 181.969C135.909 182.104 135.847 182.288 135.72 182.504C135.72 182.505 135.72 182.505 135.72 182.505C135.677 182.58 135.333 182.839 134.711 182.994C134.089 183.15 133.265 183.23 132.461 183.253C130.855 183.3 129.346 183.139 129.346 183.139C129.231 183.126 129.114 183.137 129.003 183.169C128.892 183.201 128.788 183.256 128.697 183.328C128.607 183.401 128.532 183.49 128.476 183.592C128.42 183.693 128.385 183.805 128.373 183.92C128.36 184.035 128.37 184.152 128.403 184.263C128.436 184.374 128.49 184.477 128.563 184.568C128.636 184.658 128.725 184.733 128.827 184.788C128.929 184.844 129.041 184.879 129.156 184.891C129.156 184.891 130.757 185.066 132.513 185.015C133.391 184.989 134.311 184.911 135.14 184.704C135.969 184.497 136.783 184.187 137.246 183.393C137.458 183.031 137.645 182.6 137.681 182.094C137.717 181.588 137.571 181.021 137.231 180.535C136.552 179.563 135.272 178.843 132.994 178.143C130.726 177.447 128.031 176.907 126.332 176.101C125.482 175.699 124.934 175.244 124.722 174.827C124.51 174.411 124.474 173.942 124.958 173.038V173.037C126.158 170.801 129.54 163.5 132.644 155.691C134.196 151.786 135.671 147.769 136.75 144.219C137.83 140.67 138.531 137.627 138.471 135.457C138.351 131.064 137.861 127.004 135.674 123.539C133.487 120.073 129.636 117.324 123.141 115.459C116.715 113.614 106.884 111.542 98.1384 109.345C93.7656 108.247 89.6663 107.118 86.4307 105.985C83.1951 104.852 80.8066 103.621 80.0253 102.748C79.8692 102.573 79.6501 102.468 79.4162 102.455C79.1824 102.442 78.953 102.522 78.7783 102.678Z" fill="black"/>
<path d="M29.9602 140.091C34.871 129.426 62.9982 129.919 62.9982 129.919C43.3652 117.563 52.2278 101.311 52.2278 101.311C55.1753 103.556 61.2822 106.927 70.8716 106.271C71.1189 106.254 71.3712 106.236 71.6185 106.214C79.7947 113.905 100.609 116.89 115.604 119.631C130.593 122.373 135.696 131.181 133.692 140.034C131.694 148.888 119.131 179.34 116.785 179.925C101.341 183.779 93.0887 174.017 93.3613 172.189C93.8962 168.66 108.457 139.866 108.457 139.866L29.9602 140.091Z" fill="black"/>
<path d="M52.0436 100.449C51.9191 100.476 51.8018 100.529 51.6997 100.605C51.5976 100.681 51.5132 100.778 51.4522 100.889C51.4522 100.889 49.1192 105.162 49.3683 111.019C49.5971 116.398 52.1305 123.142 60.2914 129.092C57.713 129.132 53.5869 129.279 48.1824 130.134C44.3137 130.747 40.2768 131.693 36.8404 133.194C33.404 134.695 30.5198 136.763 29.1574 139.722C29.0953 139.857 29.0682 140.005 29.0786 140.152C29.0889 140.3 29.1364 140.443 29.2166 140.568C29.2969 140.692 29.4073 140.795 29.5377 140.866C29.6682 140.936 29.8144 140.973 29.9628 140.973L107.033 140.752C106.482 141.843 103.705 147.333 100.315 154.32C98.4594 158.143 96.5873 162.078 95.1407 165.288C94.4175 166.892 93.8001 168.315 93.3427 169.46C92.8854 170.605 92.586 171.412 92.4881 172.058C92.4881 172.058 92.4881 172.059 92.4881 172.06C92.3978 172.665 92.6026 173.1 92.8755 173.616C93.1483 174.132 93.5452 174.694 94.0702 175.292C95.1201 176.487 96.6822 177.816 98.7515 178.959C102.89 181.246 109.071 182.758 116.999 180.78C117.538 180.645 117.741 180.363 118.009 180.052C118.277 179.74 118.55 179.351 118.85 178.876C119.45 177.926 120.149 176.637 120.926 175.084C122.48 171.979 124.337 167.829 126.184 163.42C129.878 154.603 133.515 144.831 134.554 140.229V140.228C135.605 135.583 134.779 130.855 131.713 126.993C128.647 123.131 123.405 120.162 115.763 118.764C108.25 117.39 99.3162 115.961 91.2716 113.924C83.2271 111.888 76.0823 109.201 72.2249 105.572C72.134 105.487 72.0259 105.422 71.9078 105.381C71.7897 105.34 71.6643 105.325 71.5398 105.336C71.3031 105.357 71.0561 105.375 70.8104 105.392C61.4531 106.032 55.5819 102.756 52.7632 100.61C52.6619 100.533 52.5452 100.479 52.421 100.451C52.2968 100.423 52.1681 100.423 52.0436 100.449ZM52.6509 102.631C55.968 104.918 61.9163 107.767 70.9316 107.15C71.0612 107.141 71.1967 107.13 71.3299 107.12C75.684 111.029 82.8655 113.616 90.8359 115.633C98.9912 117.698 107.961 119.131 115.443 120.498C122.791 121.842 127.596 124.648 130.327 128.088C133.058 131.528 133.783 135.632 132.83 139.84C131.87 144.092 128.227 153.973 124.554 162.741C122.717 167.124 120.869 171.25 119.345 174.296C118.583 175.819 117.899 177.074 117.355 177.936C117.083 178.367 116.843 178.701 116.669 178.903C116.497 179.102 116.34 179.128 116.566 179.071C109.052 180.945 103.386 179.505 99.6062 177.417C97.7161 176.373 96.3013 175.158 95.3981 174.13C94.9464 173.615 94.6225 173.145 94.4359 172.793C94.2496 172.44 94.2558 172.174 94.2338 172.32C94.2697 172.083 94.5418 171.218 94.983 170.114C95.4244 169.008 96.0334 167.603 96.7505 166.012C98.1846 162.83 100.053 158.904 101.904 155.088C105.607 147.457 109.245 140.263 109.245 140.263C109.313 140.129 109.345 139.979 109.338 139.828C109.332 139.678 109.287 139.531 109.207 139.403C109.128 139.275 109.017 139.169 108.885 139.096C108.753 139.023 108.604 138.985 108.453 138.985L31.5568 139.205C32.8467 137.424 34.927 135.954 37.5472 134.81C40.7658 133.404 44.6816 132.474 48.4585 131.876C56.0122 130.681 62.9816 130.8 62.9816 130.8C63.1744 130.804 63.3631 130.744 63.5188 130.631C63.6745 130.517 63.7887 130.356 63.8439 130.171C63.8991 129.987 63.8923 129.789 63.8245 129.609C63.7567 129.429 63.6317 129.276 63.4685 129.173C53.8505 123.12 51.3597 116.302 51.1318 110.944C50.9434 106.513 52.159 103.675 52.6499 102.631L52.6509 102.631Z" fill="black"/>
<path fill-rule="evenodd" clip-rule="evenodd" d="M79.3661 103.335C83.54 108.002 110.168 112.651 122.897 116.307C135.626 119.962 137.352 126.799 137.589 135.481C137.629 136.865 137.301 138.798 136.721 141.064C136.721 141.064 139.461 129.478 128.595 122.282C118.521 115.61 98.1108 117.327 79.3661 108.298C78.7251 107.989 75.929 110.491 75.0306 111.08C74.1322 111.668 68.0203 107.85 68.0203 107.85L68.202 106.353C69.06 106.36 69.9482 106.334 70.8719 106.271C73.4055 106.098 76.2117 105.761 79.3661 103.335Z" fill="black"/>
<path d="M67.6915 139.163C67.4743 139.25 67.3006 139.42 67.2085 139.635C67.1627 139.741 67.1385 139.855 67.137 139.971C67.1356 140.087 67.1571 140.202 67.2002 140.31C67.2433 140.417 67.3072 140.515 67.3883 140.598C67.4694 140.681 67.5661 140.747 67.6728 140.793C78.6516 145.485 84.6709 157.726 86.9679 169.03C88.1164 174.683 88.3298 180.082 87.8147 184.071C87.5571 186.065 87.1119 187.705 86.5598 188.814C86.0077 189.922 85.4092 190.417 84.8702 190.509C84.6394 190.548 84.4337 190.677 84.2982 190.868C84.1627 191.058 84.1085 191.295 84.1477 191.525C84.1671 191.639 84.2089 191.749 84.2707 191.847C84.3325 191.945 84.4129 192.03 84.5076 192.097C84.6022 192.164 84.7092 192.211 84.8223 192.237C84.9355 192.263 85.0526 192.266 85.1669 192.246C86.4815 192.023 87.4533 190.979 88.1409 189.599C88.8286 188.218 89.2921 186.419 89.5663 184.296C90.1149 180.049 89.8821 174.503 88.6989 168.68C86.3324 157.033 80.146 144.205 68.3677 139.171C68.2611 139.126 68.1465 139.101 68.0304 139.1C67.9144 139.099 67.7992 139.12 67.6915 139.163Z" fill="black"/>
<path d="M94.2309 139.027C94.115 139.033 94.0015 139.062 93.897 139.112C93.7924 139.162 93.6987 139.233 93.6213 139.319C93.544 139.405 93.4844 139.506 93.4461 139.615C93.4078 139.725 93.3914 139.841 93.3979 139.956C93.3979 139.956 93.4511 140.792 92.8715 141.815C92.2919 142.837 91.1164 144.023 88.269 144.517C86.7621 144.779 85.197 145.491 84.399 147.018C83.601 148.546 83.6835 150.666 84.9165 153.463C87.1736 158.594 86.9135 162.911 86.3596 166.045C86.3189 166.275 86.3715 166.512 86.5057 166.704C86.6399 166.895 86.8447 167.026 87.0753 167.067C87.1895 167.087 87.3067 167.084 87.42 167.059C87.5333 167.034 87.6406 166.988 87.7357 166.921C87.8308 166.855 87.9119 166.77 87.9743 166.673C88.0367 166.575 88.0793 166.466 88.0995 166.352C88.6862 163.032 88.9602 158.267 86.5341 152.752C85.4202 150.226 85.5038 148.719 85.9663 147.834C86.4288 146.949 87.3844 146.461 88.5726 146.255C91.8322 145.689 93.5867 144.136 94.4102 142.684C95.2337 141.231 95.1624 139.858 95.1624 139.858C95.1494 139.624 95.0441 139.406 94.8696 139.25C94.6951 139.094 94.4657 139.014 94.2318 139.027H94.2309Z" fill="black"/>
<path d="M97.0128 175.723C96.795 175.636 96.5519 175.64 96.3369 175.733C96.1219 175.826 95.9526 176 95.8664 176.217C95.8664 176.217 93.4265 182.025 95.2089 186.813C95.3683 187.241 95.6599 187.454 95.9432 187.628C96.2266 187.802 96.5422 187.935 96.9083 188.059C97.6404 188.308 98.573 188.514 99.6783 188.698C101.889 189.065 104.78 189.328 107.849 189.46C113.987 189.725 120.717 189.522 124.216 188.335C125.926 187.754 127.019 186.506 127.143 185.114C127.268 183.723 126.357 182.35 124.796 181.712C123.377 181.133 122.041 180.968 120.866 180.686C119.691 180.404 118.686 180.041 117.681 179.104C117.596 179.025 117.497 178.963 117.388 178.923C117.279 178.882 117.164 178.863 117.048 178.867C116.932 178.871 116.818 178.898 116.712 178.945C116.606 178.993 116.511 179.062 116.432 179.146C116.272 179.317 116.187 179.544 116.195 179.778C116.203 180.011 116.303 180.232 116.474 180.392C117.756 181.588 119.152 182.089 120.453 182.401C121.754 182.713 122.967 182.871 124.127 183.344C125.145 183.76 125.436 184.376 125.384 184.958C125.332 185.54 124.869 186.251 123.648 186.665C120.792 187.634 113.957 187.958 107.926 187.698C104.911 187.568 102.067 187.307 99.9691 186.958C98.9199 186.784 98.054 186.585 97.479 186.39C97.1916 186.292 96.9767 186.193 96.8689 186.127C96.7611 186.061 96.8007 186.026 96.8638 186.199C95.4464 182.391 97.5086 176.867 97.5086 176.867C97.5948 176.649 97.591 176.407 97.498 176.192C97.405 175.978 97.2306 175.809 97.0128 175.723Z" fill="black"/>
<path d="M88.3766 176.151C88.2817 176.218 88.2009 176.303 88.1387 176.401C88.0766 176.498 88.0344 176.608 88.0145 176.722C87.9947 176.836 87.9975 176.953 88.0229 177.066C88.0483 177.179 88.0958 177.286 88.1627 177.38C88.1627 177.38 90.607 180.811 95.5401 181.446C95.7723 181.475 96.007 181.412 96.1924 181.269C96.3778 181.126 96.4988 180.916 96.5288 180.684C96.5437 180.569 96.5358 180.453 96.5055 180.341C96.4753 180.229 96.4232 180.124 96.3524 180.032C96.2815 179.941 96.1932 179.864 96.0926 179.806C95.9919 179.748 95.8809 179.711 95.7658 179.696C91.5435 179.153 89.6068 176.366 89.6068 176.366C89.4721 176.175 89.2669 176.045 89.0362 176.004C88.8055 175.964 88.5682 176.017 88.3766 176.151Z" fill="black"/>
<path d="M40.3975 156.555C54.3778 156.555 65.7287 167.883 65.7287 181.837C65.7287 195.79 54.3778 207.119 40.3975 207.119C26.4172 207.119 15.0664 195.79 15.0664 181.837C15.0664 167.883 26.4172 156.555 40.3975 156.555ZM39.5749 164.514C29.7533 164.514 21.7739 172.475 21.7739 182.282C21.7739 192.088 29.7533 200.049 39.5749 200.049C49.4015 200.049 57.3809 192.088 57.3809 182.282C57.3809 172.475 49.4015 164.514 39.5749 164.514Z" fill="black"/>
<path d="M40.398 155.673C25.9396 155.673 14.1829 167.407 14.1829 181.837C14.1829 196.268 25.9396 208 40.398 208C54.8563 208 66.6121 196.268 66.6121 181.837C66.6121 167.407 54.8563 155.673 40.398 155.673ZM40.398 157.436C53.9002 157.436 64.8456 168.361 64.8456 181.837C64.8456 195.314 53.9002 206.237 40.398 206.237C26.8957 206.237 15.9493 195.314 15.9493 181.837C15.9493 168.361 26.8957 157.436 40.398 157.436ZM39.5749 163.633C29.2751 163.633 20.8909 171.998 20.8909 182.282C20.8909 192.565 29.2751 200.93 39.5749 200.93C49.8794 200.93 58.2637 192.565 58.2637 182.282C58.2637 171.998 49.8794 163.633 39.5749 163.633ZM39.5749 165.396C48.9235 165.396 56.4973 172.953 56.4973 182.282C56.4973 191.611 48.9235 199.167 39.5749 199.167C30.2315 199.167 22.6574 191.611 22.6574 182.282C22.6574 172.953 30.2315 165.396 39.5749 165.396Z" fill="black"/>
<path d="M196.064 155.875C210.231 155.875 221.733 167.356 221.733 181.497C221.733 195.638 210.231 207.119 196.064 207.119C181.897 207.119 170.389 195.638 170.389 181.497C170.389 167.356 181.897 155.875 196.064 155.875ZM196.064 164.429C186.161 164.429 178.121 172.453 178.121 182.337C178.121 192.22 186.161 200.244 196.064 200.244C205.966 200.244 214.006 192.22 214.006 182.337C214.006 172.453 205.966 164.429 196.064 164.429Z" fill="black"/>
<path d="M196.064 154.994C181.419 154.994 169.506 166.879 169.506 181.497C169.506 196.115 181.419 208 196.064 208C210.709 208 222.616 196.115 222.616 181.497C222.616 166.879 210.709 154.994 196.064 154.994ZM196.064 156.757C209.753 156.757 220.85 167.833 220.85 181.497C220.85 195.161 209.753 206.237 196.064 206.237C182.375 206.237 171.272 195.16 171.272 181.497C171.272 167.833 182.375 156.757 196.064 156.757ZM196.064 163.547C185.684 163.547 177.238 171.976 177.238 182.337C177.238 192.697 185.684 201.126 196.064 201.126C206.444 201.126 214.889 192.697 214.889 182.337C214.889 171.976 206.444 163.547 196.064 163.547ZM196.064 165.31C205.488 165.31 213.122 172.93 213.122 182.337C213.122 191.743 205.488 199.363 196.064 199.363C186.64 199.363 179.005 191.743 179.005 182.337C179.005 172.93 186.64 165.31 196.064 165.31Z" fill="black"/>
</g>
<defs>
<clipPath id="clip0_2_1093">
<rect width="223" height="208" fill="white"/>
</clipPath>
</defs>
</svg>
