<svg width="181" height="151" viewBox="0 0 181 151" fill="none" xmlns="http://www.w3.org/2000/svg">
<g clip-path="url(#clip0_230_21)">
<mask id="mask0_230_21" style="mask-type:luminance" maskUnits="userSpaceOnUse" x="-545" y="-31" width="614" height="3247">
<path d="M-543.988 3215.33L-544.204 -30.8904L68.4106 -30.8491L68.6266 3215.37L-543.988 3215.33Z" fill="white"/>
</mask>
<g mask="url(#mask0_230_21)">
<path fill-rule="evenodd" clip-rule="evenodd" d="M9.6203 32.916C9.45853 34.1396 9.54327 35.3836 9.86968 36.577C10.1961 37.7705 10.7578 38.8901 11.5227 39.8718C12.2876 40.8535 13.2407 41.6782 14.3277 42.2987C15.4146 42.9192 16.6141 43.3234 17.8576 43.4882C20.369 43.821 22.9073 43.1587 24.9141 41.6468C26.921 40.1348 28.2319 37.8972 28.5586 35.4262C28.8854 32.9552 28.2011 30.4531 26.6563 28.4704C25.1115 26.4878 22.8327 25.1869 20.3214 24.854C19.0778 24.6892 17.8147 24.767 16.6039 25.083C15.3931 25.3989 14.2585 25.9468 13.2648 26.6955C12.2711 27.4441 11.4379 28.3787 10.8125 29.4461C10.1872 30.5134 9.78208 31.6925 9.6203 32.916Z" fill="#FD7E14"/>
</g>
<mask id="mask1_230_21" style="mask-type:luminance" maskUnits="userSpaceOnUse" x="-112" y="-67" width="883" height="4673">
<path d="M770.616 4605.66L770.443 -66.6482L-111.429 -66.6811L-111.256 4605.62L770.616 4605.66Z" fill="white"/>
</mask>
<g mask="url(#mask1_230_21)">
<path fill-rule="evenodd" clip-rule="evenodd" d="M180.979 49.6136C180.806 52.2472 179.636 54.7069 177.724 56.4517C175.812 58.1965 173.316 59.0835 170.785 58.9175C168.254 58.7515 165.895 57.5461 164.227 55.5666C162.559 53.587 161.719 50.9954 161.891 48.3619C161.976 47.0579 162.308 45.7828 162.866 44.6096C163.424 43.4363 164.199 42.3877 165.146 41.5238C166.092 40.6599 167.192 39.9974 168.383 39.5744C169.573 39.1513 170.831 38.9758 172.084 39.058C173.338 39.1402 174.562 39.4784 175.687 40.0534C176.812 40.6283 177.817 41.4288 178.643 42.4089C179.469 43.3891 180.1 44.5299 180.501 45.7661C180.902 47.0022 181.064 48.3097 180.979 49.6136Z" fill="#FD7E14"/>
</g>
<mask id="mask2_230_21" style="mask-type:luminance" maskUnits="userSpaceOnUse" x="-25" y="-39" width="614" height="3248">
<path d="M588.222 3208.07L588.222 -38.1917L-24.608 -38.1917L-24.608 3208.07H588.222Z" fill="white"/>
</mask>
<g mask="url(#mask2_230_21)">
<path fill-rule="evenodd" clip-rule="evenodd" d="M38.2681 75.6258C45.484 75.9253 52.8261 76.6984 53.6069 78.3953C58.5961 89.2385 57.4803 111.337 56.0307 120.563H17.1148C16.1633 93.9483 22.5782 82.4247 22.5782 82.4247C19.9817 80.6932 20.9648 76.1499 23.823 75.6597C24.0258 75.6248 24.4377 75.5917 25.0191 75.563C24.2136 81.9825 28.8465 88.6788 38.0262 83.904C36.8187 82.5296 36.0901 78.3674 38.2681 75.6258Z" fill="#FD7E14"/>
</g>
<path d="M76.5428 70.4108C76.4656 70.4647 76.3997 70.5333 76.3489 70.6127C76.2982 70.6922 76.2635 70.7808 76.247 70.8736C76.2304 70.9664 76.2323 71.0616 76.2525 71.1537C76.2728 71.2457 76.3109 71.3329 76.3648 71.4102C77.3558 72.8325 78.1885 75.983 77.9597 78.4044C77.9418 78.5939 77.9998 78.7827 78.121 78.9293C78.2422 79.076 78.4166 79.1685 78.6058 79.1864C78.7951 79.2043 78.9838 79.1463 79.1303 79.025C79.2768 78.9037 79.3692 78.7291 79.3871 78.5396C79.6542 75.714 78.8474 72.4635 77.5413 70.5891C77.4874 70.5117 77.4189 70.4457 77.3396 70.3949C77.2602 70.3441 77.1717 70.3094 77.079 70.2929C76.9862 70.2763 76.8912 70.2782 76.7992 70.2985C76.7072 70.3187 76.6201 70.3569 76.5428 70.4108Z" fill="black"/>
<path d="M69.0935 59.2219C67.7621 59.2325 66.374 59.326 64.9154 59.4813C64.7264 59.5015 64.5531 59.596 64.4337 59.744C64.3142 59.892 64.2584 60.0814 64.2784 60.2707C64.2883 60.3644 64.3166 60.4553 64.3616 60.5381C64.4067 60.621 64.4675 60.6941 64.5408 60.7534C64.6141 60.8126 64.6983 60.8568 64.7887 60.8835C64.879 60.9102 64.9737 60.9188 65.0674 60.9088C70.765 60.3021 75.0397 60.6547 79.1894 63.1646C83.3391 65.6746 87.4226 70.4307 92.4553 78.7668C92.5537 78.9297 92.7127 79.0468 92.8973 79.0923C93.0819 79.1379 93.277 79.1082 93.4398 79.0098C93.6025 78.9113 93.7195 78.7522 93.765 78.5674C93.8105 78.3826 93.7809 78.1872 93.6825 78.0243C88.5977 69.602 84.4078 64.6435 79.9311 61.9357C76.5736 59.905 73.0879 59.1904 69.0935 59.2219Z" fill="black"/>
<mask id="mask3_230_21" style="mask-type:luminance" maskUnits="userSpaceOnUse" x="-25" y="-39" width="614" height="3248">
<path d="M588.222 3208.07L588.222 -38.1917L-24.608 -38.1917L-24.608 3208.07H588.222Z" fill="white"/>
</mask>
<g mask="url(#mask3_230_21)">
<path fill-rule="evenodd" clip-rule="evenodd" d="M98.9963 86.6116C97.3884 89.0227 97.2794 90.2282 97.9008 91.4235C98.3433 92.2745 98.8619 93.1669 99.4436 94.0748C96.2686 98.0995 94.1638 104.23 94.6498 106.779C95.2368 109.857 97.4017 111.617 99.8162 112.514C99.7586 115.755 99.6691 118.567 99.5933 120.563H61.5264C61.7381 107.347 65.426 90.6877 65.426 90.6877C59.5199 88.6695 61.1165 77.9332 66.5593 77.1838C69.4855 76.7812 92.772 74.8988 96.338 77.8412C97.6177 78.897 98.4577 82.2127 98.9963 86.6116Z" fill="#FD7E14"/>
</g>
<path d="M60.2271 38.2331C60.1543 38.293 60.0941 38.3666 60.0497 38.4498C60.0054 38.533 59.9779 38.6241 59.9687 38.7179C59.9596 38.8118 59.969 38.9065 59.9964 38.9967C60.0239 39.0869 60.0688 39.1708 60.1287 39.2436C61.8532 41.3427 63.8067 42.1637 65.6025 42.0391C67.3983 41.9144 68.9582 40.9123 70.1054 39.6634C70.1691 39.594 70.2186 39.5127 70.251 39.4242C70.2834 39.3357 70.298 39.2416 70.2941 39.1474C70.2902 39.0532 70.2677 38.9607 70.228 38.8752C70.1884 38.7897 70.1323 38.7128 70.0629 38.649C69.9936 38.5852 69.9124 38.5356 69.8239 38.5032C69.7355 38.4708 69.6415 38.4561 69.5474 38.4601C69.4533 38.464 69.3609 38.4865 69.2755 38.5262C69.19 38.5659 69.1132 38.6221 69.0495 38.6915C68.0851 39.7415 66.8172 40.5156 65.5031 40.6068C64.1889 40.698 62.7503 40.1746 61.2362 38.3316C61.1154 38.1846 60.9412 38.0917 60.752 38.0732C60.5628 38.0547 60.374 38.1122 60.2271 38.2331Z" fill="black"/>
<path d="M71.0271 22.0866C70.933 22.0896 70.8404 22.1112 70.7547 22.1501C70.6689 22.1889 70.5916 22.2443 70.5272 22.3131C69.613 23.2892 68.7359 24.8825 68.1954 26.7108C67.6549 28.5391 67.4593 30.6064 68.1327 32.4558C68.2955 32.9028 68.2562 33.1417 68.1761 33.3016C68.096 33.4615 67.9295 33.6111 67.5989 33.7224C66.9378 33.9448 65.7177 33.8772 64.5501 33.3871C64.4632 33.3507 64.37 33.3317 64.2759 33.3313C64.1817 33.3309 64.0883 33.349 64.0012 33.3848C63.914 33.4205 63.8347 33.473 63.7679 33.5394C63.701 33.6058 63.6478 33.6847 63.6115 33.7716C63.575 33.8586 63.5561 33.9518 63.5557 34.0461C63.5553 34.1404 63.5734 34.2338 63.6091 34.3211C63.6448 34.4083 63.6973 34.4877 63.7636 34.5546C63.8299 34.6215 63.9087 34.6747 63.9956 34.7112C65.4215 35.3096 66.8883 35.4754 68.0555 35.0826C68.6391 34.8863 69.1723 34.5162 69.4583 33.9451C69.7443 33.374 69.737 32.6703 69.48 31.9645V31.964C68.9592 30.5333 69.0891 28.7475 69.5707 27.118C70.0525 25.4885 70.8947 24.0192 71.5734 23.2947C71.7034 23.1558 71.773 22.9709 71.7669 22.7807C71.7607 22.5904 71.6793 22.4104 71.5406 22.2803C71.4019 22.1501 71.2172 22.0804 71.0271 22.0866Z" fill="black"/>
<path d="M61.8528 24.7522C60.5411 24.854 59.2034 25.403 58.6235 26.5878C58.5398 26.7587 58.5273 26.9559 58.5889 27.136C58.6504 27.3161 58.7809 27.4643 58.9516 27.5481C59.0362 27.5896 59.1281 27.614 59.2221 27.6199C59.3161 27.6258 59.4103 27.6131 59.4994 27.5825C59.5884 27.552 59.6707 27.5042 59.7413 27.4418C59.8119 27.3795 59.8696 27.3038 59.911 27.2192C60.1422 26.7469 61.0154 26.2571 61.9638 26.1835C62.9123 26.1099 63.7591 26.4155 64.0732 26.9747C64.1664 27.1406 64.3216 27.2627 64.5046 27.314C64.6877 27.3654 64.8837 27.3419 65.0494 27.2486C65.2151 27.1553 65.337 27 65.3884 26.8167C65.4397 26.6335 65.4162 26.4373 65.323 26.2714C64.6277 25.0331 63.1646 24.6504 61.8528 24.7522Z" fill="black"/>
<path d="M62.3526 19.7057C60.7156 19.6801 58.9912 20.2329 57.8657 21.5606C57.7426 21.7057 57.6822 21.8938 57.6977 22.0835C57.7132 22.2732 57.8033 22.4489 57.9482 22.5721C58.0931 22.6953 58.281 22.7558 58.4705 22.7403C58.66 22.7248 58.8356 22.6346 58.9587 22.4895C59.7357 21.573 61.0359 21.1211 62.3304 21.1413C63.625 21.1615 64.8476 21.6737 65.4281 22.4151C65.4861 22.4893 65.5583 22.5513 65.6403 22.5976C65.7223 22.6439 65.8126 22.6736 65.9061 22.6849C65.9996 22.6963 66.0944 22.6891 66.1851 22.6638C66.2758 22.6384 66.3606 22.5955 66.4347 22.5373C66.5088 22.4792 66.5708 22.407 66.617 22.3249C66.6633 22.2428 66.6929 22.1524 66.7042 22.0588C66.7156 21.9653 66.7084 21.8704 66.6831 21.7796C66.6578 21.6888 66.6149 21.6039 66.5568 21.5297C65.6059 20.3153 63.9896 19.7312 62.3526 19.7057Z" fill="black"/>
<path d="M73.3322 25.6323C72.2838 25.5697 71.1124 25.9698 70.3484 26.9853C70.2918 27.0606 70.2505 27.1463 70.2269 27.2376C70.2033 27.3289 70.198 27.4239 70.2111 27.5172C70.2242 27.6106 70.2556 27.7004 70.3034 27.7816C70.3513 27.8628 70.4146 27.9338 70.4898 27.9905C70.6417 28.1049 70.8327 28.1543 71.021 28.1278C71.2092 28.1012 71.3792 28.001 71.4936 27.849C71.9472 27.2461 72.6087 27.0274 73.2472 27.0655C73.8858 27.1036 74.4177 27.4379 74.5806 27.7611C74.623 27.8452 74.6816 27.9202 74.7529 27.9817C74.8243 28.0432 74.9071 28.09 74.9965 28.1195C75.086 28.1489 75.1803 28.1605 75.2742 28.1534C75.3681 28.1464 75.4597 28.1209 75.5438 28.0785C75.6279 28.036 75.7027 27.9774 75.7642 27.9059C75.8256 27.8345 75.8724 27.7516 75.9018 27.6621C75.9313 27.5726 75.9428 27.4781 75.9358 27.3841C75.9287 27.2901 75.9033 27.1984 75.8609 27.1143C75.3898 26.1798 74.3805 25.6948 73.3322 25.6323Z" fill="black"/>
<path d="M63.0945 0.00484C53.4281 -0.193949 48.3737 5.79318 47.8375 6.45844C44.6323 6.65333 42.1516 8.47453 40.5096 10.9127C38.8135 13.4313 37.9368 16.5957 37.8236 19.5038C37.2683 33.7849 37.1868 41.8884 37.7754 46.6282C38.0697 48.9981 38.5241 50.5502 39.267 51.6259C40.01 52.7016 41.0696 53.2038 42.1919 53.4127C45.0241 53.94 47.6808 54.0586 49.7287 53.6122C50.7526 53.389 51.6375 53.0241 52.2999 52.4307C52.9622 51.8372 53.3609 50.9792 53.3393 50.0231C53.0265 36.1796 50.728 26.6163 50.481 25.6207C53.391 22.6929 55.6559 19.0162 57.1738 14.5158C62.3763 19.3208 68.3403 22.4472 75.4667 22.5335C75.5737 23.2812 75.9708 26.1336 76.2002 29.972C76.4618 34.3491 76.3869 39.4939 75.3364 42.1977C71.8158 51.2585 62.4087 53.258 55.9018 48.7913C55.745 48.6838 55.5519 48.643 55.3651 48.6778C55.1782 48.7127 55.0128 48.8204 54.9053 48.9773C54.852 49.055 54.8145 49.1425 54.795 49.2348C54.7755 49.327 54.7744 49.4222 54.7916 49.5148C54.8089 49.6075 54.8442 49.6959 54.8956 49.7749C54.947 49.8539 55.0134 49.922 55.0911 49.9753C59.4731 52.9834 65.0822 53.2617 69.67 50.8313C71.0435 51.3877 72.9957 51.5993 75.1506 51.5597C77.4648 51.5172 79.9457 51.17 81.9255 50.4603C82.814 50.1417 83.4527 49.3856 83.8167 48.4092C84.1806 47.4328 84.337 46.2071 84.3832 44.6719C84.4757 41.6013 84.1005 37.2798 83.6 31.4874C82.675 20.7794 80.5282 13.4798 77.7039 8.6201C74.8796 3.76045 71.3347 1.34935 67.7735 0.572428C66.114 0.210396 64.5538 0.0348502 63.0945 0.00484ZM63.0521 1.42792C64.424 1.46231 65.8956 1.63219 67.4681 1.97522C70.6272 2.66443 73.7958 4.75047 76.4642 9.34179C79.1326 13.9331 81.2578 21.0378 82.1711 31.611C82.6715 37.403 83.0376 41.7184 82.95 44.6289C82.9061 46.0841 82.7421 47.1849 82.4727 47.9078C82.2033 48.6307 81.8954 48.9466 81.4419 49.1092C79.6857 49.7388 77.3107 50.0844 75.1246 50.1246C73.6952 50.1508 72.3637 50.0227 71.3282 49.813C73.5727 48.1907 75.4634 45.8306 76.6727 42.7184C77.9244 39.4968 77.8974 34.3348 77.6315 29.8861C77.3656 25.4373 76.8097 21.7369 76.8097 21.7369C76.7838 21.5654 76.6967 21.409 76.5645 21.2967C76.4323 21.1845 76.264 21.1239 76.0907 21.1264C68.7419 21.2292 62.7409 17.9679 57.3669 12.7536C57.2785 12.6679 57.1696 12.6063 57.0506 12.5749C56.9317 12.5435 56.8066 12.5433 56.6875 12.5742C56.5684 12.6052 56.4593 12.6663 56.3706 12.7517C56.2819 12.8371 56.2167 12.9439 56.1812 13.0618C54.6905 18.0094 52.3091 21.8725 49.1998 24.9048C49.1094 24.9929 49.0437 25.1034 49.0096 25.225C48.9755 25.3466 48.974 25.4751 49.0053 25.5975C49.0053 25.5975 51.579 35.6027 51.9056 50.056C51.9185 50.634 51.7401 51.0057 51.3434 51.3612C50.9466 51.7167 50.2905 52.0204 49.4232 52.2094C47.6888 52.5875 45.1609 52.5057 42.4539 52.0017C41.5387 51.8313 40.9682 51.565 40.4464 50.8095C39.9246 50.054 39.4793 48.7122 39.1985 46.4514C38.637 41.9298 38.7021 33.8247 39.2569 19.5598C39.3602 16.9039 40.1892 13.9572 41.6992 11.715C43.2091 9.47283 45.3316 7.93912 48.1879 7.86412C48.2959 7.86128 48.4018 7.83403 48.4978 7.78443C48.5939 7.73483 48.6774 7.66415 48.7423 7.57767C48.7423 7.57767 53.4483 1.18718 63.0521 1.42792Z" fill="black"/>
<mask id="mask4_230_21" style="mask-type:luminance" maskUnits="userSpaceOnUse" x="-25" y="-39" width="614" height="3248">
<path d="M588.222 3208.07L588.222 -38.1917L-24.608 -38.1917L-24.608 3208.07H588.222Z" fill="white"/>
</mask>
<g mask="url(#mask4_230_21)">
<path fill-rule="evenodd" clip-rule="evenodd" d="M69.6586 50.0691C72.3357 48.552 74.6204 46.0209 76.0048 42.4582C78.3071 36.5328 76.1009 21.844 76.1009 21.844C68.5332 21.9499 62.3274 18.5663 56.8679 13.2691C55.346 18.3207 52.8969 22.3013 49.7002 25.4189C49.7002 25.4189 52.2945 35.5084 52.6229 50.0397C52.6921 53.1084 47.8625 53.7386 42.3233 52.7073C38.2482 51.9487 37.4304 48.0781 38.5405 19.5321C38.757 13.968 41.9524 7.31007 48.1694 7.14684C48.1694 7.14684 54.6932 -1.54633 67.6212 1.2739C74.3415 2.74003 81.0477 10.2683 82.8859 31.5495C83.8868 43.1339 84.3681 48.8226 81.6841 49.7849C77.9481 51.1242 71.9723 51.1707 69.6586 50.0691Z" fill="black"/>
</g>
<path d="M66.3359 53.73C64.1659 53.64 61.8702 53.7654 59.6957 54.0402C57.5212 54.3149 55.4756 54.7445 53.8059 55.2903C52.1363 55.8361 50.8366 56.4415 50.1041 57.3602C49.6483 57.9319 49.5166 58.6467 49.442 59.4248C49.3674 60.2028 49.3856 61.0544 49.4367 61.8618C49.4426 61.9558 49.467 62.0478 49.5085 62.1325C49.55 62.2171 49.6077 62.2927 49.6784 62.355C49.749 62.4173 49.8313 62.4651 49.9204 62.4956C50.0095 62.5261 50.1037 62.5387 50.1977 62.5327C50.2917 62.5268 50.3836 62.5023 50.4681 62.4608C50.5527 62.4193 50.6282 62.3616 50.6905 62.2908C50.7527 62.2201 50.8004 62.1378 50.8309 62.0486C50.8614 61.9594 50.874 61.865 50.868 61.771C50.8197 61.0078 50.8068 60.2154 50.8695 59.562C50.9322 58.9085 51.1065 58.4046 51.2251 58.2558C51.5768 57.8147 52.6998 57.162 54.2509 56.6549C55.8019 56.1479 57.775 55.7296 59.8753 55.4642C64.0757 54.9334 68.8155 55.0371 71.7451 56.0675C71.9764 56.1489 72.269 56.5036 72.4496 57.2559C72.6303 58.0081 72.673 59.0566 72.5679 60.1677C72.559 60.2616 72.5687 60.3562 72.5964 60.4463C72.6241 60.5364 72.6693 60.6202 72.7294 60.6928C72.7894 60.7654 72.8632 60.8255 72.9464 60.8696C73.0296 60.9137 73.1208 60.9409 73.2145 60.9498C73.4038 60.9677 73.5924 60.9096 73.739 60.7883C73.8855 60.667 73.9779 60.4924 73.9958 60.303C74.1118 59.0768 74.0804 57.905 73.8438 56.9201C73.6072 55.9353 73.1395 55.0363 72.2204 54.7131C70.5499 54.1255 68.5059 53.8201 66.3359 53.73Z" fill="black"/>
<path d="M59.8074 60.1913C53.3548 60.6234 48.2958 61.1364 44.3439 62.225C40.392 63.3135 37.5118 65.0181 35.6426 67.7999C35.5365 67.9578 35.4974 68.1514 35.5338 68.3382C35.5703 68.525 35.6794 68.6897 35.8371 68.7959C35.9949 68.9021 36.1884 68.9412 36.375 68.9046C36.5616 68.868 36.7261 68.7587 36.8322 68.6008C38.4757 66.1549 40.965 64.6444 44.7242 63.6089C48.4833 62.5735 53.4768 62.0539 59.903 61.6236C59.997 61.6173 60.0888 61.5926 60.1733 61.5508C60.2577 61.509 60.3331 61.451 60.3951 61.38C60.4571 61.309 60.5046 61.2265 60.5347 61.1372C60.5649 61.0479 60.5772 60.9535 60.5709 60.8594C60.5646 60.7653 60.5398 60.6735 60.498 60.589C60.4563 60.5045 60.3983 60.4291 60.3274 60.3671C60.2565 60.305 60.1741 60.2576 60.0849 60.2274C59.9957 60.1973 59.9014 60.185 59.8074 60.1913Z" fill="black"/>
<path d="M54.0696 55.2419C53.9754 55.2418 53.8821 55.2602 53.7951 55.2962C53.708 55.3321 53.6289 55.3849 53.5622 55.4515C53.4955 55.5181 53.4426 55.5971 53.4065 55.6842C53.3703 55.7712 53.3516 55.8645 53.3515 55.9588L53.3481 59.0199C53.348 59.2102 53.4233 59.3928 53.5576 59.5275C53.6919 59.6622 53.8742 59.738 54.0643 59.7382C54.1585 59.7383 54.2517 59.7199 54.3388 59.684C54.4258 59.648 54.505 59.5952 54.5717 59.5287C54.6383 59.4621 54.6913 59.383 54.7274 59.296C54.7636 59.2089 54.7822 59.1156 54.7824 59.0214L54.7857 55.9602C54.7859 55.7699 54.7105 55.5874 54.5762 55.4527C54.4419 55.318 54.2597 55.2422 54.0696 55.2419Z" fill="black"/>
<path d="M57.7859 54.3386C57.6917 54.3385 57.5984 54.3569 57.5114 54.3929C57.4243 54.4288 57.3452 54.4816 57.2785 54.5482C57.2118 54.6147 57.1589 54.6938 57.1228 54.7808C57.0866 54.8679 57.0679 54.9612 57.0678 55.0555L57.0635 59.0199C57.0633 59.2102 57.1387 59.3928 57.273 59.5275C57.4073 59.6622 57.5895 59.738 57.7796 59.7382C57.8738 59.7383 57.9671 59.7199 58.0541 59.6839C58.1412 59.648 58.2203 59.5952 58.287 59.5287C58.3537 59.4621 58.4066 59.383 58.4427 59.296C58.4789 59.2089 58.4976 59.1156 58.4977 59.0213L58.502 55.0574C58.5022 54.9631 58.4838 54.8698 58.4478 54.7826C58.4119 54.6955 58.3592 54.6163 58.2927 54.5495C58.2262 54.4828 58.1472 54.4298 58.0603 54.3936C57.9733 54.3574 57.8801 54.3387 57.7859 54.3386Z" fill="black"/>
<path d="M63.363 53.7378C63.2689 53.7377 63.1756 53.7561 63.0885 53.792C63.0015 53.828 62.9224 53.8808 62.8557 53.9473C62.789 54.0139 62.7361 54.093 62.6999 54.18C62.6638 54.2671 62.6451 54.3604 62.645 54.4546L62.6406 58.1201C62.6405 58.2143 62.6589 58.3077 62.6948 58.3948C62.7307 58.482 62.7835 58.5612 62.85 58.6279C62.9165 58.6947 62.9954 58.7477 63.0824 58.7839C63.1694 58.82 63.2626 58.8387 63.3568 58.8388C63.4509 58.839 63.5442 58.8205 63.6313 58.7846C63.7183 58.7486 63.7975 58.6959 63.8641 58.6293C63.9308 58.5627 63.9837 58.4837 64.0199 58.3966C64.0561 58.3096 64.0747 58.2163 64.0748 58.122L64.0792 54.4566C64.0793 54.3623 64.0609 54.2689 64.025 54.1818C63.9891 54.0947 63.9364 54.0154 63.8699 53.9487C63.8033 53.882 63.7244 53.829 63.6374 53.7928C63.5504 53.7566 63.4572 53.7379 63.363 53.7378Z" fill="black"/>
<path d="M68.9407 53.9692C68.8465 53.9691 68.7532 53.9875 68.6662 54.0235C68.5791 54.0594 68.5 54.1122 68.4333 54.1788C68.3666 54.2453 68.3137 54.3244 68.2775 54.4115C68.2414 54.4985 68.2227 54.5918 68.2226 54.6861L68.2188 58.1201C68.2186 58.2144 68.237 58.3078 68.273 58.395C68.3089 58.4822 68.3617 58.5614 68.4282 58.6282C68.4948 58.6949 68.5738 58.7479 68.6609 58.7841C68.7479 58.8202 68.8412 58.8389 68.9354 58.8389C69.0295 58.839 69.1228 58.8205 69.2098 58.7845C69.2969 58.7485 69.376 58.6956 69.4426 58.629C69.5092 58.5624 69.5621 58.4833 69.5982 58.3962C69.6343 58.3092 69.6529 58.2158 69.653 58.1216L69.6568 54.6875C69.657 54.4972 69.5816 54.3147 69.4473 54.18C69.313 54.0453 69.1308 53.9695 68.9407 53.9692Z" fill="black"/>
<path d="M51.9723 76.8899C50.3664 77.5909 48.9322 79.0404 48.051 80.5838C47.6103 81.3556 47.3073 82.1541 47.2436 82.944C47.1799 83.7339 47.3961 84.5643 48.0167 85.1289C48.6756 85.7284 49.5396 85.876 50.2307 85.6588C50.9219 85.4417 51.4568 84.9547 51.8348 84.3966C52.2128 83.8385 52.4553 83.1964 52.3927 82.5194C52.33 81.8425 51.7759 81.143 50.9811 80.9751C50.7951 80.9359 50.6011 80.9722 50.4419 81.0761C50.2826 81.18 50.1711 81.343 50.1318 81.5292C50.0926 81.7154 50.1289 81.9096 50.2327 82.069C50.3365 82.2284 50.4993 82.34 50.6853 82.3794C50.9916 82.4441 50.9464 82.4535 50.9647 82.6518C50.9831 82.8501 50.8788 83.2497 50.6477 83.5909C50.4166 83.932 50.0792 84.202 49.8012 84.2894C49.5233 84.3767 49.321 84.3762 48.9809 84.0667C48.7328 83.841 48.6336 83.5481 48.673 83.0595C48.7124 82.5709 48.9311 81.9358 49.2965 81.2959C50.0272 80.016 51.3416 78.7313 52.5456 78.2058C52.6319 78.1681 52.71 78.1138 52.7753 78.0459C52.8407 77.978 52.892 77.8979 52.9264 77.8102C52.9609 77.7224 52.9777 77.6288 52.9759 77.5345C52.9742 77.4403 52.9539 77.3473 52.9162 77.2609C52.8786 77.1745 52.8243 77.0964 52.7565 77.031C52.6887 76.9656 52.6087 76.9142 52.5211 76.8797C52.4334 76.8453 52.3398 76.8285 52.2457 76.8302C52.1515 76.832 52.0586 76.8523 51.9723 76.8899Z" fill="black"/>
<path d="M38.2595 74.8351C38.0703 74.8537 37.8962 74.9466 37.7754 75.0936C36.2714 76.923 35.9739 79.2766 36.2399 81.2003C36.3729 82.1622 36.6443 83.0242 37.0221 83.7055C37.4 84.3867 37.8859 84.9731 38.6624 85.0691C41.4883 85.4181 49.2279 85.7294 49.2279 85.7294C49.4178 85.7373 49.6032 85.6693 49.7431 85.5404C49.883 85.4115 49.966 85.2322 49.9739 85.0421C49.9778 84.9479 49.9631 84.8538 49.9307 84.7653C49.8982 84.6768 49.8487 84.5955 49.7849 84.5261C49.7211 84.4568 49.6442 84.4007 49.5588 84.3611C49.4733 84.3215 49.3808 84.2991 49.2867 84.2953C49.2867 84.2953 41.4434 83.9658 38.8381 83.6441C38.8339 83.6436 38.5417 83.4877 38.2759 83.0084C38.01 82.5291 37.7719 81.8119 37.6601 81.0032C37.4365 79.386 37.7092 77.4327 38.8825 76.0056C39.0032 75.8586 39.0608 75.6697 39.0424 75.4802C39.024 75.2908 38.9313 75.1165 38.7845 74.9955C38.7118 74.9356 38.628 74.8906 38.5379 74.863C38.4478 74.8355 38.3532 74.826 38.2595 74.8351Z" fill="black"/>
<path d="M32.5615 66.66C30.3946 66.7669 28.3893 67.784 27.036 69.3033C23.8674 72.8603 23.4045 78.2405 25.3885 82.0312C26.3805 83.9266 28.0319 85.4313 30.2523 85.9947C32.4728 86.558 35.204 86.1806 38.3567 84.5407C38.5253 84.4529 38.6522 84.3017 38.7095 84.1202C38.7668 83.9388 38.7497 83.742 38.6621 83.5731C38.5744 83.4043 38.4233 83.2773 38.2421 83.22C38.0608 83.1626 37.8642 83.1797 37.6955 83.2674C34.7623 84.7931 32.4066 85.0602 30.6046 84.603C28.8026 84.1458 27.4958 82.9647 26.6586 81.3651C24.9843 78.1659 25.3802 73.3191 28.1063 70.2587C29.5656 68.6206 32.0185 67.6749 34.4218 68.2657C36.8251 68.8564 39.2931 70.9597 40.7666 75.7607C40.8226 75.9426 40.9484 76.0949 41.1165 76.1839C41.2845 76.2729 41.481 76.2915 41.6628 76.2356C41.8445 76.1797 41.9966 76.0538 42.0856 75.8857C42.1747 75.7176 42.1934 75.5209 42.1376 75.339C40.5642 70.2125 37.7236 67.5991 34.7639 66.8716C34.024 66.6897 33.2837 66.6244 32.5615 66.66Z" fill="black"/>
<path d="M30.6138 74.4033C28.2407 76.1564 27.1737 80.4085 28.2154 84.8734C28.2368 84.9652 28.276 85.0519 28.3309 85.1285C28.3858 85.2051 28.4552 85.2702 28.5352 85.3199C28.6152 85.3696 28.7042 85.4031 28.7971 85.4184C28.89 85.4338 28.9851 85.4306 29.0768 85.4092C29.1685 85.3877 29.255 85.3484 29.3316 85.2935C29.4081 85.2385 29.4731 85.1691 29.5228 85.089C29.5725 85.0089 29.6059 84.9198 29.6212 84.8268C29.6365 84.7338 29.6334 84.6387 29.6119 84.5469C28.6715 80.5158 29.8938 76.719 31.465 75.5582C31.5408 75.5023 31.6049 75.432 31.6535 75.3512C31.7022 75.2705 31.7344 75.181 31.7485 75.0878C31.7626 74.9946 31.7582 74.8995 31.7355 74.808C31.7129 74.7165 31.6724 74.6303 31.6165 74.5545C31.5606 74.4786 31.4903 74.4145 31.4097 74.3659C31.329 74.3172 31.2395 74.285 31.1464 74.2709C31.0533 74.2569 30.9583 74.2614 30.8669 74.2841C30.7755 74.3068 30.6895 74.3473 30.6138 74.4033Z" fill="black"/>
<path d="M34.5311 75.7283C34.4369 75.728 34.3436 75.7463 34.2565 75.7821C34.1694 75.8179 34.0902 75.8705 34.0234 75.937C32.8678 77.087 32.2177 78.9354 31.8885 80.7931C31.5593 82.6508 31.5462 84.4889 32.0704 85.7806C32.1059 85.8679 32.1582 85.9474 32.2243 86.0145C32.2904 86.0816 32.3691 86.135 32.4559 86.1716C32.5426 86.2083 32.6358 86.2275 32.7299 86.2281C32.8241 86.2287 32.9174 86.2108 33.0047 86.1753C33.0919 86.1398 33.1713 86.0874 33.2383 86.0212C33.3054 85.955 33.3587 85.8763 33.3953 85.7894C33.4319 85.7026 33.4511 85.6094 33.4517 85.5151C33.4523 85.4209 33.4344 85.3274 33.3989 85.2401C33.0811 84.457 33.0033 82.7207 33.3005 81.0438C33.5977 79.3669 34.2655 77.7204 35.0349 76.9547C35.1697 76.8205 35.2457 76.6382 35.2462 76.4479C35.2468 76.2576 35.1718 76.0748 35.0378 75.9399C34.9713 75.873 34.8924 75.8199 34.8054 75.7836C34.7185 75.7473 34.6253 75.7285 34.5311 75.7283Z" fill="black"/>
<path d="M22.6946 81.7164C22.6016 81.701 22.5066 81.7041 22.4149 81.7256C22.3231 81.747 22.2365 81.7863 22.16 81.8413C22.0834 81.8962 22.0185 81.9657 21.9688 82.0458C21.9191 82.1259 21.8856 82.2151 21.8703 82.3081C21.8395 82.4958 21.8844 82.6882 21.9952 82.8428C22.1059 82.9974 22.2735 83.1017 22.461 83.1327L26.8847 83.8626C26.9777 83.8779 27.0727 83.8748 27.1644 83.8534C27.2561 83.832 27.3427 83.7927 27.4192 83.7378C27.4957 83.6829 27.5607 83.6135 27.6104 83.5334C27.6602 83.4534 27.6936 83.3643 27.709 83.2713C27.7243 83.1783 27.7212 83.0832 27.6998 82.9914C27.6784 82.8996 27.6392 82.8129 27.5844 82.7363C27.5295 82.6597 27.4601 82.5947 27.3802 82.5449C27.3002 82.4951 27.2112 82.4616 27.1183 82.4463L22.6946 81.7164Z" fill="black"/>
<path d="M66.7256 80.6517C66.1902 80.6904 65.7007 80.976 65.2909 81.3241C64.7444 81.7883 64.2707 82.4182 63.8798 83.1148C63.4889 83.8114 63.1857 84.5725 63.0344 85.3161C62.8831 86.0597 62.8586 86.8056 63.2086 87.4647C63.4475 87.9146 63.8914 88.2821 64.3986 88.3071C64.9059 88.3322 65.3131 88.0713 65.6152 87.7569C66.2193 87.1282 66.5803 86.1519 66.5818 85.0166C66.5819 84.8263 66.5066 84.6437 66.3723 84.509C66.238 84.3743 66.0557 84.2985 65.8656 84.2983C65.7715 84.2981 65.6782 84.3166 65.5911 84.3525C65.5041 84.3885 65.4249 84.4413 65.3583 84.5078C65.2916 84.5744 65.2386 84.6534 65.2025 84.7405C65.1663 84.8275 65.1477 84.9209 65.1476 85.0151C65.1466 85.8127 64.8243 86.5092 64.5815 86.7619C64.495 86.8519 64.5015 86.8382 64.5019 86.8416C64.4929 86.8255 64.4963 86.8312 64.4749 86.7908C64.3768 86.6062 64.3263 86.1597 64.4396 85.6025C64.553 85.0454 64.8049 84.3973 65.1302 83.8176C65.4555 83.238 65.8587 82.7242 66.2189 82.4182C66.5791 82.1123 66.8279 82.0687 66.9143 82.0912C66.8578 82.0765 66.879 82.0591 66.9451 82.1574C67.0113 82.2557 67.0995 82.4476 67.17 82.7037C67.3111 83.2159 67.3884 83.9759 67.3524 84.8127C67.2805 86.4864 66.7492 88.4697 65.7295 89.708C65.6696 89.7807 65.6246 89.8646 65.597 89.9547C65.5695 90.0449 65.5599 90.1395 65.5689 90.2334C65.5779 90.3272 65.6053 90.4184 65.6495 90.5016C65.6937 90.5849 65.7539 90.6586 65.8265 90.7185C65.8992 90.7785 65.983 90.8236 66.0731 90.8511C66.1631 90.8787 66.2578 90.8882 66.3515 90.8791C66.4453 90.8701 66.5363 90.8426 66.6195 90.7983C66.7026 90.754 66.7762 90.6937 66.8361 90.621C68.1604 89.0128 68.703 86.7863 68.7852 84.8746C68.8263 83.9187 68.7509 83.0418 68.5526 82.3221C68.4535 81.9623 68.3255 81.6397 68.1342 81.3555C67.9429 81.0713 67.6659 80.8036 67.2752 80.7019C67.2751 80.7019 67.2749 80.7019 67.2747 80.7019C67.0873 80.6532 66.904 80.6388 66.7256 80.6517Z" fill="black"/>
<path d="M16.4065 34.339C16.4993 34.3227 16.5943 34.3248 16.6863 34.3452C16.7782 34.3656 16.8652 34.404 16.9423 34.4581C17.0195 34.5122 17.0852 34.581 17.1357 34.6605C17.1863 34.74 17.2207 34.8287 17.237 34.9216C17.6244 37.1278 18.937 38.287 20.2604 38.572C21.5837 38.8569 22.9328 38.3272 23.6548 36.7098C23.7324 36.5362 23.8757 36.4004 24.0533 36.3325C24.2308 36.2646 24.428 36.27 24.6016 36.3475C24.6876 36.386 24.7652 36.441 24.83 36.5094C24.8947 36.5779 24.9454 36.6584 24.979 36.7465C25.0127 36.8345 25.0287 36.9284 25.0261 37.0226C25.0235 37.1169 25.0024 37.2097 24.964 37.2958C24.0002 39.4548 21.8886 40.3908 19.9587 39.9753C18.0289 39.5597 16.2955 37.8522 15.8245 35.1698C15.7917 34.9824 15.8346 34.7896 15.9437 34.6338C16.0528 34.478 16.2193 34.372 16.4065 34.339Z" fill="black"/>
<mask id="mask5_230_21" style="mask-type:luminance" maskUnits="userSpaceOnUse" x="-545" y="-31" width="614" height="3247">
<path d="M-544.203 3215.37L-544.203 -30.8904L68.627 -30.8904L68.627 3215.37H-544.203Z" fill="white"/>
</mask>
<g mask="url(#mask5_230_21)">
<path fill-rule="evenodd" clip-rule="evenodd" d="M17.8188 32.4129C17.8188 32.8444 17.9358 33.2583 18.1439 33.5635C18.352 33.8686 18.6343 34.0401 18.9287 34.0401C19.2231 34.0401 19.5054 33.8686 19.7135 33.5635C19.9216 33.2583 20.0386 32.8444 20.0386 32.4129C20.0386 31.9813 19.9216 31.5674 19.7135 31.2622C19.5054 30.9571 19.2231 30.7856 18.9287 30.7856C18.6343 30.7856 18.352 30.9571 18.1439 31.2622C17.9358 31.5674 17.8188 31.9813 17.8188 32.4129Z" fill="black"/>
</g>
<mask id="mask6_230_21" style="mask-type:luminance" maskUnits="userSpaceOnUse" x="-112" y="-67" width="883" height="4673">
<path d="M770.615 4605.66L770.615 -66.6812L-111.43 -66.6812L-111.43 4605.66H770.615Z" fill="white"/>
</mask>
<g mask="url(#mask6_230_21)">
<path fill-rule="evenodd" clip-rule="evenodd" d="M171.434 45.6794C171.434 45.8879 171.462 46.0943 171.517 46.2869C171.571 46.4795 171.651 46.6545 171.751 46.8019C171.852 46.9493 171.971 47.0662 172.103 47.146C172.234 47.2257 172.375 47.2668 172.517 47.2668C172.804 47.2668 173.079 47.0996 173.282 46.8019C173.486 46.5042 173.6 46.1004 173.6 45.6794C173.6 45.2584 173.486 44.8547 173.282 44.557C173.079 44.2593 172.804 44.092 172.517 44.092C172.375 44.092 172.234 44.1331 172.103 44.2129C171.971 44.2926 171.852 44.4096 171.751 44.557C171.651 44.7044 171.571 44.8794 171.517 45.072C171.462 45.2645 171.434 45.471 171.434 45.6794Z" fill="black"/>
</g>
<mask id="mask7_230_21" style="mask-type:luminance" maskUnits="userSpaceOnUse" x="-112" y="-67" width="883" height="4673">
<path d="M770.615 4605.66L770.615 -66.6812L-111.43 -66.6812L-111.43 4605.66H770.615Z" fill="white"/>
</mask>
<g mask="url(#mask7_230_21)">
<path fill-rule="evenodd" clip-rule="evenodd" d="M166.715 45.4866C166.715 45.8564 166.815 46.2111 166.993 46.4726C167.172 46.7341 167.413 46.881 167.666 46.881C167.791 46.881 167.914 46.8449 168.03 46.7748C168.145 46.7048 168.25 46.6021 168.338 46.4726C168.426 46.3431 168.497 46.1894 168.544 46.0202C168.592 45.851 168.617 45.6697 168.617 45.4866C168.617 45.3035 168.592 45.1222 168.544 44.953C168.497 44.7839 168.426 44.6302 168.338 44.5007C168.25 44.3712 168.145 44.2685 168.03 44.1984C167.914 44.1283 167.791 44.0923 167.666 44.0923C167.413 44.0923 167.172 44.2392 166.993 44.5007C166.815 44.7622 166.715 45.1168 166.715 45.4866Z" fill="black"/>
</g>
<mask id="mask8_230_21" style="mask-type:luminance" maskUnits="userSpaceOnUse" x="-545" y="-31" width="614" height="3247">
<path d="M-544.203 3215.37L-544.203 -30.8904L68.627 -30.8904L68.627 3215.37H-544.203Z" fill="white"/>
</mask>
<g mask="url(#mask8_230_21)">
<path fill-rule="evenodd" clip-rule="evenodd" d="M22.2288 33.2136C22.2288 33.4004 22.2539 33.5854 22.3027 33.758C22.3514 33.9306 22.4229 34.0875 22.513 34.2196C22.6031 34.3517 22.7101 34.4565 22.8278 34.5279C22.9455 34.5994 23.0717 34.6362 23.1991 34.6362C23.3265 34.6362 23.4527 34.5994 23.5704 34.5279C23.6882 34.4565 23.7951 34.3517 23.8852 34.2196C23.9753 34.0875 24.0468 33.9306 24.0956 33.758C24.1443 33.5854 24.1694 33.4004 24.1694 33.2136C24.1694 32.8363 24.0672 32.4745 23.8852 32.2077C23.7033 31.9409 23.4565 31.791 23.1991 31.791C23.0717 31.791 22.9455 31.8278 22.8278 31.8993C22.7101 31.9708 22.6031 32.0756 22.513 32.2077C22.4229 32.3398 22.3514 32.4966 22.3027 32.6692C22.2539 32.8418 22.2288 33.0268 22.2288 33.2136Z" fill="black"/>
</g>
<path d="M117.958 80.656C117.864 80.6433 117.769 80.649 117.678 80.673C117.587 80.697 117.502 80.7387 117.427 80.7958C117.352 80.8529 117.289 80.9241 117.241 81.0056C117.194 81.087 117.163 81.177 117.15 81.2704C115.802 91.1933 114.52 99.9501 113.814 106.591C113.46 109.911 113.25 112.7 113.251 114.863C113.252 117.027 113.371 118.538 114.075 119.534C114.682 120.391 115.748 121.017 117.172 121.626C118.596 122.235 120.391 122.792 122.461 123.301C126.6 124.32 131.831 125.141 137.232 125.674C142.633 126.207 148.2 126.452 153.005 126.307C157.809 126.163 161.822 125.663 164.282 124.558C164.975 124.247 165.413 123.594 165.696 122.816C165.98 122.039 166.135 121.088 166.216 119.964C166.378 117.717 166.227 114.773 165.918 111.341C165.301 104.478 164.038 95.6834 163.244 87.0183C163.226 86.8288 163.134 86.6539 162.988 86.5321C162.842 86.4104 162.654 86.3517 162.464 86.3691C162.37 86.3777 162.279 86.4047 162.196 86.4486C162.112 86.4925 162.039 86.5524 161.978 86.6249C161.918 86.6974 161.873 86.781 161.845 86.8711C161.817 86.9611 161.807 87.0558 161.816 87.1497C162.614 95.8645 163.879 104.672 164.491 111.47C164.797 114.869 164.937 117.77 164.786 119.862C164.711 120.908 164.558 121.751 164.349 122.325C164.14 122.899 163.9 123.157 163.694 123.249C161.64 124.172 157.684 124.731 152.962 124.872C148.239 125.014 142.721 124.773 137.373 124.245C132.025 123.717 126.844 122.902 122.804 121.908C120.783 121.411 119.048 120.867 117.735 120.306C116.423 119.745 115.547 119.131 115.245 118.704C114.986 118.338 114.686 116.931 114.685 114.862C114.684 112.794 114.889 110.038 115.24 106.743C115.941 100.152 117.222 91.3952 118.571 81.4637C118.597 81.2751 118.547 81.0841 118.431 80.9326C118.316 80.7812 118.146 80.6817 117.958 80.656Z" fill="black"/>
<path d="M125.199 61.1585C124.396 61.175 123.46 61.3259 122.418 61.6512C120.334 62.3019 117.877 63.7024 115.512 66.3325C107.021 75.7747 102.119 81.2102 99.4796 84.704C98.1598 86.4509 97.3931 87.7119 97.0421 88.8215C96.6912 89.9312 96.8327 90.924 97.2646 91.7546C97.7183 92.6271 98.2479 93.5375 98.8402 94.4622C102.07 99.504 107.123 105.013 112.246 106.873C112.971 107.136 113.7 107.324 114.427 107.422C114.615 107.447 114.806 107.396 114.957 107.281C115.108 107.165 115.207 106.994 115.233 106.806C115.245 106.712 115.239 106.617 115.215 106.526C115.191 106.435 115.149 106.349 115.092 106.275C115.035 106.2 114.963 106.137 114.882 106.089C114.8 106.042 114.71 106.011 114.617 105.999C114.006 105.917 113.377 105.756 112.735 105.523H112.735C108.201 103.877 103.16 98.5472 100.047 93.6873C99.4762 92.7961 98.968 91.9215 98.5367 91.0919C98.2317 90.5053 98.15 90.0742 98.4093 89.2544C98.6685 88.4345 99.3457 87.261 100.623 85.5701C103.178 82.1882 108.086 76.7354 116.578 67.2928C118.782 64.8411 121.012 63.5939 122.845 63.0216C124.678 62.4494 126.168 62.6045 126.636 62.7985C126.748 62.8453 126.79 62.8954 126.753 62.8516C129.323 65.8919 134.088 67.4182 138.759 67.9488C143.429 68.4794 147.983 68.0516 150.448 66.5605C150.918 66.2763 151.461 66.1093 152.078 66.0702C153.822 65.9597 156.17 66.9313 158.446 69.3004C162.472 73.491 164.998 79.7418 166.963 85.7213C168.927 91.7008 170.29 97.3575 172.335 100.566C172.457 100.758 172.465 100.862 172.383 101.092C172.301 101.321 172.072 101.65 171.686 101.993C171.686 101.993 171.686 101.993 171.686 101.993C170.391 103.145 167.474 104.368 164.489 104.783C164.396 104.796 164.306 104.827 164.225 104.875C164.143 104.923 164.072 104.986 164.015 105.061C163.959 105.137 163.917 105.222 163.894 105.313C163.87 105.405 163.864 105.5 163.877 105.593C163.904 105.782 164.004 105.952 164.155 106.067C164.307 106.182 164.498 106.231 164.686 106.205C167.908 105.757 170.956 104.562 172.638 103.066C173.139 102.62 173.532 102.139 173.733 101.574C173.935 101.009 173.888 100.333 173.544 99.7941C173.544 99.7941 173.544 99.7941 173.544 99.7941C171.768 97.0082 170.31 91.3141 168.325 85.2726C166.34 79.231 163.788 72.7901 159.479 68.3053C157.001 65.7254 154.319 64.4897 151.987 64.6375C151.163 64.6898 150.385 64.9218 149.706 65.3321C147.861 66.4487 143.383 67.0293 138.921 66.5223C134.459 66.0154 129.989 64.4585 127.847 61.9246C127.655 61.6971 127.432 61.5744 127.186 61.472C127.185 61.472 127.185 61.472 127.185 61.472C126.673 61.2597 126.002 61.142 125.199 61.1585Z" fill="black"/>
<path d="M172.013 101.828C171.92 101.847 171.833 101.885 171.755 101.938C171.678 101.992 171.612 102.06 171.56 102.139C171.509 102.218 171.474 102.307 171.457 102.399C171.44 102.492 171.441 102.587 171.46 102.679C171.912 104.799 171.459 107.683 170.314 110.202C169.168 112.722 167.345 114.852 165.273 115.663C165.185 115.697 165.105 115.748 165.037 115.814C164.969 115.879 164.915 115.957 164.877 116.044C164.839 116.13 164.819 116.223 164.817 116.317C164.815 116.411 164.832 116.505 164.866 116.593C164.9 116.681 164.952 116.761 165.017 116.829C165.082 116.897 165.16 116.951 165.246 116.989C165.333 117.027 165.425 117.047 165.52 117.049C165.614 117.051 165.707 117.034 165.795 117C168.377 115.99 170.365 113.555 171.619 110.797C172.872 108.04 173.407 104.934 172.863 102.38C172.844 102.288 172.806 102.201 172.753 102.123C172.699 102.045 172.631 101.979 172.552 101.928C172.473 101.876 172.385 101.841 172.292 101.824C172.2 101.807 172.105 101.808 172.013 101.828Z" fill="black"/>
<path d="M99.8879 93.5115C99.814 93.453 99.7293 93.4097 99.6387 93.3841C99.5481 93.3584 99.4534 93.3508 99.3598 93.3618C99.2663 93.3728 99.1759 93.4021 99.0937 93.4481C99.0115 93.4941 98.9391 93.5558 98.8808 93.6298C97.2313 95.7207 95.8873 98.3131 95.0009 100.733C94.1145 103.153 93.6469 105.347 93.9455 106.913C94.5707 110.192 96.8983 112.153 99.4063 113.126C101.914 114.1 104.614 114.185 106.419 113.821C109.355 113.228 111.476 110.313 113.148 106.485C113.224 106.311 113.227 106.113 113.158 105.936C113.089 105.759 112.952 105.617 112.778 105.54C112.604 105.464 112.406 105.46 112.229 105.53C112.052 105.599 111.91 105.736 111.834 105.91C110.238 109.565 108.272 111.982 106.135 112.414C104.663 112.711 102.124 112.642 99.925 111.788C97.726 110.934 95.8786 109.394 95.3541 106.644C95.1667 105.661 95.509 103.516 96.3473 101.227C97.1855 98.9386 98.4806 96.4534 100.006 94.5196C100.064 94.4456 100.108 94.3609 100.133 94.2702C100.159 94.1795 100.167 94.0846 100.156 93.991C100.145 93.8974 100.115 93.8069 100.069 93.7246C100.023 93.6423 99.9618 93.5699 99.8879 93.5115Z" fill="black"/>
<path d="M145.787 122.138C145.639 122.128 145.491 122.165 145.365 122.243C145.238 122.32 145.139 122.435 145.08 122.572C144.78 123.275 143.778 124.848 142.735 126.058C142.213 126.662 141.672 127.189 141.237 127.493C141.019 127.646 140.829 127.74 140.712 127.775C140.595 127.809 140.582 127.79 140.602 127.799C140.31 127.669 140.328 127.645 140.326 127.462C140.324 127.278 140.45 126.887 140.76 126.445C141.38 125.562 142.649 124.511 144.042 123.879C144.128 123.84 144.205 123.784 144.269 123.716C144.334 123.647 144.384 123.566 144.417 123.478C144.45 123.389 144.466 123.296 144.462 123.201C144.459 123.107 144.438 123.014 144.399 122.929C144.36 122.843 144.305 122.765 144.236 122.701C144.167 122.636 144.086 122.586 143.998 122.553C143.91 122.52 143.816 122.504 143.722 122.508C143.628 122.511 143.535 122.533 143.449 122.572C141.825 123.309 140.412 124.444 139.587 125.62C139.174 126.207 138.885 126.813 138.892 127.476C138.899 128.139 139.348 128.812 140.022 129.111C140.392 129.275 140.788 129.25 141.123 129.15C141.457 129.05 141.759 128.879 142.059 128.669C142.659 128.249 143.251 127.656 143.82 126.996C144.506 126.202 145.091 125.366 145.585 124.578C145.77 125.078 145.953 125.589 146.235 126.187C146.997 127.806 148.031 129.649 149.78 130.088C150.1 130.169 150.537 130.093 150.803 129.846C151.068 129.599 151.156 129.301 151.195 129.025C151.273 128.474 151.163 127.886 150.94 127.225C150.492 125.904 149.527 124.337 147.967 123.284C147.889 123.231 147.802 123.195 147.709 123.176C147.617 123.157 147.522 123.157 147.43 123.175C147.337 123.193 147.249 123.229 147.171 123.281C147.092 123.333 147.025 123.4 146.972 123.478C146.919 123.556 146.882 123.644 146.864 123.736C146.845 123.828 146.844 123.924 146.862 124.016C146.88 124.109 146.916 124.197 146.968 124.275C147.02 124.354 147.087 124.422 147.165 124.474C148.394 125.304 149.229 126.645 149.582 127.686C149.69 128.006 149.736 128.271 149.758 128.489C149.003 128.034 148.134 126.852 147.532 125.575C146.83 124.086 146.43 122.661 146.43 122.661C146.39 122.518 146.307 122.391 146.192 122.297C146.076 122.203 145.935 122.148 145.787 122.138Z" fill="black"/>
<path d="M114.471 117.678C114.378 117.659 114.283 117.657 114.191 117.675C114.098 117.692 114.01 117.727 113.931 117.779C113.852 117.83 113.784 117.897 113.731 117.975C113.678 118.052 113.64 118.14 113.621 118.232C112.137 125.262 110.173 140.235 110.127 146.525C110.126 146.715 110.2 146.898 110.334 147.034C110.467 147.169 110.649 147.246 110.839 147.248C111.029 147.249 111.212 147.175 111.348 147.041C111.483 146.908 111.56 146.726 111.561 146.535C111.605 140.535 113.573 125.402 115.024 118.529C115.063 118.343 115.027 118.148 114.923 117.989C114.819 117.829 114.657 117.718 114.471 117.678Z" fill="black"/>
<path d="M164.448 122.679C164.263 122.722 164.102 122.836 164.001 122.998C163.901 123.159 163.868 123.354 163.911 123.54C164.834 127.541 165.608 134.337 166.342 150.315C166.346 150.409 166.369 150.502 166.409 150.587C166.449 150.673 166.506 150.749 166.575 150.813C166.645 150.876 166.726 150.925 166.815 150.957C166.904 150.989 166.998 151.004 167.092 150.999C167.282 150.991 167.46 150.907 167.588 150.766C167.716 150.625 167.784 150.44 167.775 150.25C167.039 134.244 166.272 127.392 165.308 123.216C165.265 123.031 165.151 122.87 164.989 122.769C164.828 122.669 164.633 122.636 164.448 122.679Z" fill="black"/>
<path d="M0.717114 119.845C0.622576 119.845 0.528971 119.864 0.441684 119.9C0.354396 119.937 0.27515 119.99 0.208503 120.057C0.141857 120.124 0.0891259 120.204 0.053345 120.291C0.0175641 120.379 -0.000560409 120.473 1.32014e-05 120.567L0.0328281 126.136C0.033973 126.325 0.11003 126.507 0.244389 126.64C0.378748 126.774 0.560492 126.849 0.749931 126.849H112.968C113.158 126.849 113.34 126.773 113.475 126.639C113.609 126.504 113.684 126.321 113.684 126.131C113.684 125.941 113.609 125.759 113.474 125.624C113.34 125.49 113.158 125.414 112.968 125.414H1.46269L1.43808 121.281H113.893C114.083 121.281 114.266 121.205 114.4 121.07C114.535 120.936 114.61 120.753 114.61 120.563C114.61 120.373 114.535 120.19 114.4 120.056C114.266 119.921 114.083 119.845 113.893 119.845H0.717114ZM165.442 119.845C165.348 119.845 165.255 119.864 165.168 119.9C165.081 119.936 165.002 119.989 164.935 120.055C164.869 120.122 164.816 120.201 164.78 120.288C164.744 120.375 164.725 120.469 164.725 120.563C164.725 120.657 164.744 120.751 164.78 120.838C164.816 120.925 164.869 121.004 164.935 121.071C165.002 121.137 165.081 121.19 165.168 121.226C165.255 121.262 165.348 121.281 165.442 121.281H173.786L174.179 125.414H165.143C164.952 125.414 164.77 125.489 164.636 125.624C164.501 125.758 164.426 125.941 164.425 126.131C164.425 126.225 164.444 126.319 164.48 126.406C164.516 126.493 164.569 126.572 164.635 126.639C164.702 126.705 164.781 126.758 164.868 126.794C164.955 126.83 165.048 126.849 165.143 126.849H174.967C175.067 126.849 175.166 126.828 175.257 126.788C175.349 126.747 175.43 126.688 175.498 126.614C175.565 126.54 175.616 126.453 175.647 126.358C175.679 126.263 175.69 126.163 175.681 126.064L175.152 120.495C175.135 120.317 175.052 120.152 174.92 120.032C174.788 119.912 174.616 119.845 174.438 119.845H165.442Z" fill="black"/>
<path d="M121.893 23.4272C121.799 23.4331 121.707 23.4575 121.622 23.4989C121.538 23.5404 121.462 23.5981 121.4 23.6688C121.338 23.7395 121.29 23.8217 121.259 23.9109C121.229 24.0001 121.216 24.0944 121.222 24.1885C121.322 25.7791 121.406 28.2723 121.359 30.6257C121.312 32.979 121.088 35.2588 120.754 36.1383C117.622 44.3683 125.581 53.3894 133.106 50.7101C133.195 50.6785 133.277 50.6297 133.347 50.5665C133.417 50.5034 133.473 50.427 133.514 50.3419C133.554 50.2568 133.577 50.1645 133.582 50.0703C133.587 49.9762 133.573 49.882 133.542 49.7932C133.478 49.614 133.346 49.4674 133.174 49.3857C133.002 49.304 132.805 49.2939 132.626 49.3575C126.385 51.5796 119.375 43.7929 122.094 36.6493C122.609 35.2945 122.744 33.0614 122.792 30.6542C122.841 28.2469 122.756 25.7322 122.653 24.0982C122.641 23.9082 122.555 23.7309 122.412 23.6051C122.269 23.4792 122.083 23.4153 121.893 23.4272Z" fill="black"/>
<mask id="mask9_230_21" style="mask-type:luminance" maskUnits="userSpaceOnUse" x="-25" y="-39" width="614" height="3248">
<path d="M588.222 3208.07L588.222 -38.1917L-24.608 -38.1917L-24.608 3208.07H588.222Z" fill="white"/>
</mask>
<g mask="url(#mask9_230_21)">
<path fill-rule="evenodd" clip-rule="evenodd" d="M120.307 25.5923C116.723 24.1971 113.485 22.4518 110.794 20.1942C107.607 17.5201 104.631 14.3289 120.668 15.7023C121.891 11.1493 124.852 6.11283 131.484 2.99408C147.688 -4.6262 167.4 6.64087 161.636 30.1047C160.668 34.0446 146.53 31.6816 134.608 29.428C129.57 28.4758 124.681 27.2951 120.307 25.5923Z" fill="#FD7E14"/>
</g>
<path d="M120.854 15.0095C120.763 14.985 120.668 14.9787 120.574 14.9909C120.481 15.0031 120.391 15.0336 120.309 15.0807C120.228 15.1277 120.156 15.1904 120.099 15.2652C120.041 15.3399 119.999 15.4252 119.975 15.5162C119.327 17.9286 119.152 20.1992 119.18 22.0109C119.208 23.8226 119.42 25.1344 119.62 25.7995C119.647 25.8898 119.692 25.9738 119.752 26.0468C119.811 26.1198 119.885 26.1803 119.968 26.2249C120.051 26.2695 120.142 26.2973 120.235 26.3067C120.329 26.3161 120.424 26.3069 120.514 26.2797C120.696 26.2247 120.849 26.0997 120.939 25.932C121.029 25.7643 121.048 25.5678 120.993 25.3855C120.874 24.9888 120.64 23.6899 120.614 21.9892C120.588 20.2884 120.754 18.1448 121.36 15.8887C121.409 15.7049 121.383 15.5091 121.288 15.3442C121.194 15.1793 121.037 15.059 120.854 15.0095Z" fill="black"/>
<path d="M153.491 25.4136C151.611 25.4468 150.333 26.6952 149.813 27.9684C149.553 28.605 149.453 29.2573 149.568 29.8659C149.683 30.4744 150.125 31.1082 150.816 31.2575C152.08 31.5305 154.734 31.7969 157.37 31.544C157.747 31.5079 158.114 31.317 158.347 31.0378C158.58 30.7585 158.687 30.4248 158.723 30.0939C158.794 29.4321 158.607 28.7311 158.23 28.0457C157.476 26.675 155.841 25.3722 153.491 25.4136ZM153.516 26.8492C155.336 26.8171 156.448 27.7823 156.974 28.7384C157.237 29.2165 157.323 29.6935 157.297 29.9393C157.283 30.0622 157.248 30.1149 157.245 30.1185C157.242 30.1221 157.281 30.1106 157.234 30.1151C154.791 30.3494 152.147 30.0764 151.119 29.8543C151.042 29.8377 151.023 29.8427 150.977 29.5992C150.931 29.3557 150.969 28.933 151.141 28.5119C151.485 27.6697 152.245 26.8716 153.516 26.8492Z" fill="black"/>
<path d="M167.404 49.4208C167.156 49.4156 166.901 49.4652 166.685 49.5897C166.254 49.8388 166.068 50.2145 165.965 50.5381C165.758 51.1851 165.804 51.839 165.974 52.5432C166.316 53.9516 167.392 55.6447 169.384 55.902C169.384 55.902 169.384 55.902 169.385 55.902C171.743 56.2065 173.536 54.9141 174.427 53.5729C174.872 52.9022 175.146 52.2342 175.147 51.5093C175.147 51.1469 175.073 50.7178 174.739 50.3455C174.405 49.9732 173.834 49.8229 173.4 49.8789C172.305 50.0204 171.156 50.0562 170.181 49.993C169.206 49.9297 168.383 49.7336 168.081 49.5807C168.081 49.5804 168.081 49.5802 168.081 49.58C167.894 49.4854 167.653 49.4259 167.404 49.4208ZM167.96 51.6929C168.587 51.8781 169.265 52.0043 170.048 52.0551C170.937 52.1128 171.926 52.0413 172.901 51.955C172.841 52.1266 172.847 52.2176 172.707 52.4292C172.161 53.2508 171.158 54.0479 169.649 53.853C168.717 53.7327 168.186 52.9063 167.98 52.0558C167.938 51.882 167.966 51.8384 167.96 51.6929Z" fill="black"/>
<path d="M129.206 59.6949C128.942 59.7245 128.69 59.7841 128.452 59.8717C127.498 60.2219 126.834 60.9574 126.314 61.7362C126.262 61.8146 126.226 61.9025 126.207 61.995C126.189 62.0874 126.189 62.1826 126.207 62.2751C126.226 62.3675 126.262 62.4554 126.314 62.5338C126.367 62.6122 126.434 62.6795 126.512 62.7318C126.59 62.7842 126.678 62.8206 126.771 62.839C126.863 62.8574 126.958 62.8574 127.05 62.839C127.143 62.8206 127.231 62.7842 127.309 62.7318C127.387 62.6794 127.454 62.6121 127.507 62.5338C127.942 61.8811 128.408 61.4168 128.946 61.2194C129.483 61.022 130.171 61.0252 131.257 61.558C135.223 63.5048 141.62 64.3304 146.995 62.9767C148.215 62.6695 149.161 62.8071 149.866 63.2327C150.57 63.6584 151.086 64.4002 151.332 65.5094C151.352 65.6014 151.391 65.6885 151.445 65.7657C151.499 65.8428 151.567 65.9086 151.647 65.9592C151.726 66.0098 151.815 66.0442 151.908 66.0606C152 66.0769 152.095 66.0747 152.187 66.0543C152.373 66.0129 152.534 65.8996 152.637 65.7391C152.739 65.5786 152.773 65.384 152.732 65.1983C152.42 63.7947 151.689 62.6576 150.606 62.0039C149.524 61.3501 148.143 61.2074 146.645 61.5846C141.678 62.8357 135.436 62.0105 131.888 60.2692C130.9 59.7844 129.998 59.6059 129.206 59.6949Z" fill="black"/>
<mask id="mask10_230_21" style="mask-type:luminance" maskUnits="userSpaceOnUse" x="-25" y="-39" width="614" height="3248">
<path d="M588.222 3208.07L588.222 -38.1917L-24.608 -38.1917L-24.608 3208.07H588.222Z" fill="white"/>
</mask>
<g mask="url(#mask10_230_21)">
<path fill-rule="evenodd" clip-rule="evenodd" d="M125.339 27.2783C128.308 28.135 131.428 28.8271 134.607 29.4281C144.415 31.2817 155.721 33.2096 159.962 31.6423C159.533 42.4504 153.706 53.0732 145.922 53.4256C138.97 53.7405 132.358 53.0962 128.857 47.1288C126.409 42.9579 125.765 39.0371 127.528 38.7717C130.035 38.394 133.215 34.5036 131.772 32.2678C129.502 28.7489 126.813 32.3954 125.492 31.6233C124.628 31.1188 124.847 29.1558 125.339 27.2783Z" fill="black"/>
</g>
</g>
<defs>
<clipPath id="clip0_230_21">
<rect width="181" height="151" fill="white"/>
</clipPath>
</defs>
</svg>
