<svg width="200" height="138" viewBox="0 0 200 138" fill="none" xmlns="http://www.w3.org/2000/svg">
<g clip-path="url(#clip0_230_2128)">
<path d="M18.8087 119.429L0.602562 124.19C0.435303 124.234 0.289486 124.337 0.192114 124.481C0.0947421 124.624 0.0524062 124.798 0.0729325 124.971C0.0934588 125.143 0.175465 125.302 0.303769 125.419C0.432072 125.535 0.597989 125.601 0.770808 125.604L32.0268 126.125C32.2164 126.128 32.3994 126.055 32.5356 125.923C32.6718 125.79 32.7501 125.609 32.7532 125.418C32.7564 125.228 32.6841 125.044 32.5523 124.907C32.4206 124.77 32.2401 124.691 32.0506 124.688L6.03599 124.254L19.1686 120.82C19.352 120.772 19.5089 120.653 19.6049 120.489C19.7008 120.324 19.728 120.128 19.6803 119.944C19.6326 119.76 19.514 119.602 19.3505 119.505C19.1871 119.409 18.9922 119.381 18.8087 119.429Z" fill="black"/>
<mask id="mask0_230_2128" style="mask-type:luminance" maskUnits="userSpaceOnUse" x="-210" y="-1743" width="444" height="2359">
<path d="M233.483 615.316L233.483 -1742.65H-209.793L-209.793 615.316H233.483Z" fill="white"/>
</mask>
<g mask="url(#mask0_230_2128)">
<path fill-rule="evenodd" clip-rule="evenodd" d="M133.772 123.305L109.655 129.664L89.044 125.443L89.2209 123.305L50.6823 130.958L15.7466 120.538L16.1237 99.9148L25.1418 96.3578L25.2526 66.9139L48.9988 59.0094L49.5474 46.3066L58.7281 41.7202L77.2504 45.5881L76.7018 56.9075L108.086 67.794L109.655 89.4055L124.301 94.813L124.818 109.454L134.39 112.885L133.772 123.305Z" fill="#FD7E14"/>
</g>
<path d="M183.231 88.4192C183.137 88.4127 183.043 88.4248 182.954 88.4548C182.865 88.4848 182.783 88.5323 182.712 88.5943C182.642 88.6563 182.584 88.7317 182.542 88.8162C182.5 88.9007 182.475 88.9927 182.469 89.0869C182.416 89.8635 182.29 92.9708 181.832 96.9949C181.375 101.019 180.586 105.915 179.239 110.076C179.149 110.353 178.818 110.945 178.372 111.6C177.926 112.256 177.366 113.004 176.808 113.742C176.251 114.481 175.695 115.21 175.248 115.849C174.8 116.488 174.457 116.971 174.304 117.526C174.304 117.527 174.304 117.528 174.304 117.529C174.226 117.819 173.844 118.882 173.454 119.832C173.259 120.307 173.058 120.767 172.89 121.115C172.805 121.29 172.729 121.436 172.671 121.534C172.614 121.632 172.54 121.693 172.634 121.612C172.479 121.747 172.353 121.997 172.349 122.219C172.345 122.441 172.423 122.606 172.501 122.724C172.658 122.959 172.839 123.069 173.041 123.162C173.447 123.349 173.979 123.407 174.561 123.229C175.725 122.874 176.912 121.611 177.648 118.742C177.696 118.558 177.668 118.362 177.572 118.198C177.476 118.034 177.318 117.915 177.135 117.867C177.044 117.843 176.949 117.838 176.856 117.851C176.763 117.864 176.674 117.896 176.593 117.944C176.512 117.992 176.442 118.055 176.385 118.131C176.329 118.206 176.287 118.292 176.264 118.383C175.594 120.994 174.656 121.698 174.145 121.854C174.134 121.858 174.127 121.854 174.116 121.858C174.136 121.817 174.155 121.787 174.176 121.744C174.365 121.352 174.573 120.873 174.776 120.38C175.18 119.394 175.547 118.409 175.683 117.908V117.911C175.706 117.828 175.997 117.28 176.419 116.678C176.84 116.076 177.389 115.353 177.949 114.612C178.508 113.871 179.078 113.11 179.553 112.413C180.028 111.715 180.409 111.108 180.6 110.523C181.998 106.205 182.791 101.238 183.254 97.1598C183.718 93.0818 183.851 89.8478 183.896 89.1872C183.909 88.9971 183.847 88.8096 183.722 88.6658C183.598 88.5221 183.421 88.4341 183.232 88.4209L183.231 88.4192Z" fill="black"/>
<path d="M194.485 92.6702C194.309 92.7394 194.167 92.8762 194.091 93.0506C194.091 93.0506 186.733 109.879 186.002 111.513C186.002 111.513 186.002 111.514 186.002 111.515C185.729 112.131 185.655 112.886 185.588 113.813C185.521 114.741 185.491 115.815 185.448 116.903C185.362 119.079 185.159 121.361 184.701 122.307C184.701 122.307 184.701 122.307 184.701 122.307C184.043 123.653 182.557 124.547 181.021 125.061C179.484 125.575 177.868 125.685 177.446 125.643C177.353 125.633 177.258 125.643 177.168 125.67C177.079 125.698 176.995 125.742 176.922 125.802C176.85 125.862 176.79 125.936 176.745 126.019C176.701 126.102 176.674 126.194 176.665 126.288C176.646 126.477 176.703 126.667 176.823 126.814C176.944 126.961 177.117 127.055 177.306 127.073C178.153 127.157 179.736 127.006 181.473 126.424C183.21 125.843 185.073 124.807 185.985 122.938C185.985 122.937 185.985 122.937 185.985 122.936C186.712 121.438 186.79 119.158 186.876 116.959C186.92 115.86 186.949 114.794 187.013 113.918C187.077 113.041 187.206 112.327 187.307 112.099C188.072 110.388 195.4 93.6281 195.4 93.6281C195.476 93.4536 195.48 93.2557 195.411 93.0781C195.342 92.9005 195.206 92.7578 195.033 92.6811C194.947 92.643 194.854 92.6222 194.76 92.6201C194.666 92.6179 194.573 92.6343 194.485 92.6685V92.6702Z" fill="black"/>
<mask id="mask1_230_2128" style="mask-type:luminance" maskUnits="userSpaceOnUse" x="-210" y="-1743" width="444" height="2359">
<path d="M233.483 615.316L233.483 -1742.65H-209.793L-209.793 615.316H233.483Z" fill="white"/>
</mask>
<g mask="url(#mask1_230_2128)">
<path fill-rule="evenodd" clip-rule="evenodd" d="M141.24 105.34C143.061 106.616 147.186 108.107 156.258 108.448C169.165 108.933 175.59 105.807 178.135 104.388C178.537 106.077 178.982 108.502 179.421 111.286C178.181 113.334 175.289 116.64 174.993 117.718C174.778 118.508 173.493 121.814 173.1 122.155C172.752 122.46 174.941 123.7 176.424 120.179C176.735 121.544 177.075 122.658 175.633 125.011C174.837 126.305 176.215 127.239 176.928 126.772C177.071 126.664 177.221 126.538 177.375 126.359C178.013 126.431 179.631 126.287 181.28 125.73C181.913 132.018 182.156 137.102 181.518 137.227C180.111 137.497 160.558 136.688 160.558 136.688L159.357 134.353C159.357 134.353 159.532 136.527 158.83 136.652C158.125 136.778 142.559 136.778 142.382 135.898C142.207 135.018 141.24 105.34 141.24 105.34Z" fill="black"/>
</g>
<path d="M178.423 103.73C178.322 103.686 178.212 103.665 178.102 103.67C177.992 103.675 177.884 103.706 177.788 103.759C175.3 105.147 169.068 108.21 156.285 107.73C147.283 107.391 143.269 105.885 141.649 104.75C141.54 104.674 141.412 104.63 141.28 104.622C141.148 104.615 141.016 104.645 140.899 104.709C140.783 104.772 140.686 104.867 140.62 104.983C140.554 105.099 140.521 105.23 140.526 105.364C140.526 105.364 140.768 112.783 141.031 120.314C141.163 124.079 141.3 127.872 141.416 130.78C141.473 132.235 141.525 133.467 141.569 134.367C141.59 134.817 141.61 135.183 141.627 135.455C141.644 135.727 141.638 135.824 141.681 136.039C141.737 136.317 141.902 136.468 142.017 136.554C142.132 136.64 142.23 136.683 142.329 136.722C142.527 136.799 142.733 136.847 142.978 136.893C143.469 136.986 144.109 137.058 144.87 137.12C146.391 137.244 148.383 137.322 150.391 137.37C152.4 137.417 154.422 137.433 155.989 137.429C156.773 137.427 157.443 137.42 157.943 137.409C158.193 137.404 158.4 137.398 158.562 137.391C158.723 137.384 158.799 137.388 158.954 137.359C159.381 137.282 159.608 136.982 159.756 136.695L159.922 137.017C159.98 137.13 160.067 137.225 160.173 137.293C160.279 137.362 160.402 137.4 160.528 137.405C160.528 137.405 165.418 137.607 170.486 137.776C173.02 137.86 175.598 137.936 177.635 137.974C178.654 137.993 179.537 138.003 180.217 137.999C180.896 137.996 181.293 137.999 181.651 137.932C181.652 137.932 181.654 137.932 181.655 137.932C181.92 137.88 182.104 137.708 182.204 137.57C182.305 137.431 182.354 137.305 182.395 137.178C182.478 136.925 182.519 136.656 182.55 136.331C182.612 135.681 182.62 134.821 182.589 133.768C182.528 131.664 182.308 128.812 181.991 125.658C181.98 125.55 181.945 125.447 181.889 125.355C181.833 125.263 181.757 125.184 181.667 125.126C181.577 125.067 181.475 125.03 181.368 125.017C181.262 125.003 181.153 125.014 181.052 125.048C179.501 125.572 177.854 125.689 177.454 125.644C177.338 125.631 177.221 125.647 177.113 125.69C177.005 125.732 176.908 125.801 176.833 125.89C176.732 126.008 176.637 126.086 176.53 126.168C176.519 126.168 176.345 126.168 176.22 126.044C176.091 125.914 175.98 125.812 176.24 125.389C177.761 122.906 177.424 121.356 177.12 120.019C177.086 119.871 177.007 119.738 176.893 119.638C176.779 119.538 176.636 119.477 176.486 119.464C176.335 119.45 176.184 119.485 176.055 119.564C175.925 119.642 175.824 119.759 175.765 119.899C175.152 121.353 174.524 121.743 174.119 121.848C174.137 121.81 174.154 121.783 174.173 121.744C174.363 121.352 174.571 120.872 174.773 120.379C175.177 119.395 175.544 118.411 175.68 117.91C175.7 117.838 175.909 117.421 176.226 116.949C176.544 116.477 176.967 115.905 177.422 115.299C178.333 114.088 179.371 112.75 180.031 111.661C180.119 111.515 180.153 111.343 180.126 111.174C179.685 108.38 179.239 105.945 178.828 104.221C178.803 104.113 178.753 104.013 178.682 103.928C178.611 103.843 178.522 103.775 178.421 103.731L178.423 103.73ZM177.628 105.465C177.959 106.989 178.312 108.889 178.668 111.121C178.073 112.063 177.144 113.287 176.283 114.433C175.823 115.044 175.39 115.628 175.043 116.143C174.697 116.658 174.433 117.058 174.304 117.526C174.304 117.527 174.304 117.527 174.304 117.528C174.226 117.817 173.843 118.88 173.453 119.83C173.258 120.305 173.058 120.765 172.889 121.114C172.805 121.288 172.728 121.434 172.671 121.532C172.613 121.63 172.54 121.692 172.634 121.61C172.633 121.611 172.632 121.611 172.631 121.612C172.494 121.732 172.376 121.939 172.354 122.141C172.332 122.344 172.387 122.514 172.45 122.635C172.577 122.878 172.737 122.993 172.907 123.091C173.247 123.288 173.676 123.379 174.17 123.313C174.768 123.233 175.408 122.86 176.003 122.19C175.955 122.809 175.701 123.529 175.025 124.633C174.49 125.503 174.671 126.515 175.209 127.058C175.749 127.601 176.604 127.841 177.319 127.373C177.332 127.364 177.345 127.355 177.358 127.346C177.442 127.283 177.546 127.169 177.643 127.081C178.382 127.108 179.438 126.984 180.646 126.658C180.913 129.431 181.108 131.966 181.162 133.809C181.191 134.83 181.18 135.656 181.128 136.191C181.112 136.36 181.091 136.432 181.071 136.531C180.89 136.542 180.693 136.559 180.21 136.562C179.551 136.565 178.676 136.556 177.663 136.537C175.639 136.499 173.065 136.424 170.535 136.34C165.685 136.178 161.384 136 161.002 135.984L159.993 134.022C159.917 133.874 159.792 133.758 159.641 133.692C159.489 133.626 159.32 133.615 159.161 133.661C159.002 133.707 158.864 133.806 158.77 133.943C158.676 134.079 158.632 134.244 158.645 134.41C158.645 134.41 158.683 134.912 158.645 135.397C158.627 135.626 158.585 135.834 158.546 135.953C158.518 135.955 158.533 135.953 158.501 135.955C158.357 135.96 158.157 135.967 157.914 135.971C157.427 135.982 156.764 135.987 155.987 135.99C154.432 135.993 152.419 135.977 150.426 135.931C148.433 135.884 146.456 135.805 144.987 135.686C144.252 135.626 143.641 135.554 143.244 135.479C143.152 135.461 143.126 135.45 143.06 135.433C143.056 135.389 143.058 135.409 143.055 135.361C143.039 135.102 143.02 134.74 142.998 134.294C142.955 133.403 142.903 132.172 142.845 130.72C142.73 127.817 142.593 124.025 142.461 120.261C142.22 113.38 142.036 107.717 141.999 106.6C144.349 107.782 148.543 108.874 156.232 109.163C168.073 109.608 174.58 107.028 177.629 105.463L177.628 105.465ZM173.572 122.694C173.572 122.694 173.57 122.695 173.57 122.697L173.567 122.699C173.57 122.697 173.569 122.695 173.572 122.694Z" fill="black"/>
<mask id="mask2_230_2128" style="mask-type:luminance" maskUnits="userSpaceOnUse" x="-210" y="-1743" width="444" height="2359">
<path d="M233.483 615.316L233.483 -1742.65H-209.793L-209.793 615.316H233.483Z" fill="white"/>
</mask>
<g mask="url(#mask2_230_2128)">
<path fill-rule="evenodd" clip-rule="evenodd" d="M133.139 79.3274C134.608 80.7106 135.852 81.519 136.222 81.4112C137.462 81.1058 139.424 78.9321 139.866 77.1895C140.695 77.1536 141.519 77.1356 142.339 77.0997C146.448 76.9021 150.453 76.5429 154.355 75.986C155.284 75.8423 156.206 75.7165 157.123 75.5548C156.249 74.9799 155.384 74.369 154.526 73.7762C150.632 71.0097 146.907 68.0455 143.337 64.8837C140.72 62.5663 138.184 60.141 135.723 57.608C135.5 57.608 135.276 57.5901 135.055 57.5901C135.055 57.5901 140.944 46.946 143.451 44.0303C144.981 42.2482 149.386 40.5362 150.575 40.2865C150.61 40.1733 150.648 40.0637 150.685 39.9577C151.055 38.9266 154.46 35.736 156.656 33.7528C156.91 33.715 157.166 33.6648 157.416 33.5984C157.979 34.7391 158.603 36.3343 158.722 37.9727C158.797 39.0021 156.19 42.0722 154.36 44.0896C154.812 46.7879 155.035 50.6719 155.102 54.8595C158.022 51.4049 163.149 39.7458 163.868 39.232C165.887 37.7912 168.813 34.9852 170.042 33.7798C169.892 33.1241 169.71 32.3534 169.51 31.5612C171.074 31.5199 172.323 32.5852 174.705 36.5769C175.123 37.2775 181.829 37.123 188.965 40.4428C192.511 42.0938 195.454 48.5215 196.46 52.8923C200.099 68.7102 202.608 80.1717 195.293 93.4296C194.552 94.777 194.763 90.2319 189.998 88.7588C185.164 87.2857 182.506 90.3038 182.463 88.6511C182.433 87.5013 184.034 80.4412 182.683 70.8301C180.667 73.5607 178.607 82.1118 178.703 83.1178C179.362 90.0701 179.516 103.598 178.615 104.119C176.46 105.358 170.071 108.969 156.258 108.448C154.73 108.394 153.341 108.304 152.083 108.179C140.906 107.155 139.778 104.065 139.886 103.472C140.659 99.2323 138.486 98.298 138.434 96.5375C138.35 93.5553 141.408 88.6509 141.894 84.4652C141.294 84.8784 137.791 86.7468 135.9 86.5851C134.553 86.4594 132.172 83.064 131.795 81.4293C131.584 80.4951 132.253 79.6507 133.139 79.3274Z" fill="#FD7E14"/>
</g>
<path d="M153.424 15.5026C153.048 15.5106 152.703 15.5996 152.414 15.7429C151.836 16.0296 151.472 16.4732 151.249 16.8211C151.146 16.9812 151.11 17.1757 151.15 17.362C151.19 17.5483 151.302 17.711 151.461 17.8144C151.54 17.8657 151.628 17.9008 151.721 17.9178C151.813 17.9348 151.908 17.9332 151.999 17.9134C152.091 17.8936 152.178 17.8558 152.256 17.8022C152.333 17.7485 152.399 17.6801 152.45 17.6008C152.578 17.4008 152.8 17.1545 153.047 17.032C153.294 16.9095 153.556 16.8498 154.046 17.0646C154.22 17.1407 154.416 17.1443 154.593 17.0746C154.769 17.005 154.911 16.8677 154.987 16.6931C155.062 16.5184 155.066 16.3207 154.997 16.1434C154.927 15.9661 154.791 15.8237 154.617 15.7475C154.207 15.5674 153.8 15.4945 153.424 15.5026Z" fill="black"/>
<path d="M157.328 24.6873C156.094 24.5675 154.99 25.0593 154.153 25.6238C153.316 26.1884 152.758 26.7616 152.47 27.2719C152.376 27.4376 152.352 27.6338 152.402 27.8175C152.452 28.0012 152.573 28.1573 152.738 28.2515C152.903 28.3456 153.098 28.3701 153.281 28.3196C153.464 28.269 153.619 28.1476 153.713 27.982C153.758 27.9013 154.286 27.2653 154.95 26.8171C155.614 26.3689 156.426 26.0436 157.19 26.1178C157.379 26.1361 157.567 26.0783 157.713 25.9571C157.86 25.836 157.952 25.6615 157.971 25.4719C157.98 25.378 157.97 25.2832 157.943 25.1929C157.915 25.1027 157.871 25.0186 157.811 24.9458C157.751 24.8729 157.678 24.8126 157.595 24.7682C157.512 24.7239 157.421 24.6964 157.328 24.6873Z" fill="black"/>
<path d="M159.435 12.1702C152.105 11.9802 146.724 14.4253 146.724 14.4253C146.593 14.4848 146.483 14.5827 146.408 14.7059C146.333 14.8292 146.297 14.9723 146.305 15.1165C146.305 15.1165 146.48 18.6204 147.051 22.516C147.336 24.4638 147.719 26.512 148.238 28.2935C148.756 30.075 149.371 31.5937 150.337 32.5334C151.736 33.8948 153.835 34.6319 155.966 34.5383C158.098 34.4447 160.293 33.4714 161.708 31.3604C161.814 31.2024 161.853 31.0087 161.817 30.8217C161.781 30.6347 161.672 30.4698 161.515 30.3633C161.437 30.3105 161.35 30.2738 161.258 30.255C161.166 30.2362 161.071 30.2357 160.979 30.2538C160.886 30.2718 160.799 30.308 160.72 30.3601C160.642 30.4122 160.575 30.4794 160.522 30.5576C159.373 32.2731 157.657 33.0255 155.904 33.1025C154.15 33.1796 152.391 32.5323 151.331 31.5008C150.739 30.9241 150.098 29.568 149.61 27.8896C149.121 26.2111 148.744 24.2143 148.465 22.3069C147.97 18.9296 147.806 16.2131 147.768 15.5487C149.945 14.6754 161.641 10.5513 173.249 17.682C173.329 17.7313 173.418 17.7642 173.511 17.7789C173.604 17.7935 173.698 17.7896 173.79 17.7675C173.881 17.7453 173.967 17.7054 174.043 17.6498C174.119 17.5942 174.183 17.524 174.232 17.4435C174.331 17.2808 174.361 17.0854 174.317 16.9001C174.272 16.7149 174.156 16.5551 173.995 16.4557C168.934 13.3469 163.834 12.2842 159.435 12.1702H159.435Z" fill="black"/>
<path d="M156.212 12.2983C156.123 12.2693 156.028 12.2582 155.935 12.2657C155.841 12.2732 155.75 12.2992 155.666 12.3422C155.583 12.3852 155.508 12.4442 155.447 12.5161C155.387 12.5879 155.34 12.6712 155.312 12.761C155.283 12.8508 155.272 12.9453 155.279 13.0394C155.287 13.1335 155.313 13.2252 155.355 13.3092C157.202 16.9395 159.019 19.0303 160.499 20.1161C161.24 20.6591 161.889 20.96 162.492 21.0382C162.793 21.0773 163.094 21.0625 163.385 20.9298C163.676 20.7971 163.939 20.5048 164.024 20.1796C164.188 19.5591 164.956 18.7333 165.683 18.4383C166.046 18.2907 166.366 18.2708 166.586 18.3411C166.806 18.4113 166.992 18.5439 167.165 18.9839C167.426 19.6477 167.285 20.612 166.754 21.4873C166.224 22.3626 165.338 23.1054 164.312 23.3701C164.221 23.3936 164.135 23.4349 164.06 23.4915C163.985 23.5482 163.922 23.6191 163.874 23.7003C163.826 23.7815 163.795 23.8714 163.782 23.9648C163.768 24.0583 163.774 24.1534 163.797 24.2448C163.844 24.4294 163.962 24.5877 164.125 24.6847C164.289 24.7816 164.483 24.8094 164.667 24.762C166.113 24.389 167.268 23.4019 167.975 22.235C168.682 21.0683 168.975 19.6785 168.494 18.4562C168.201 17.7079 167.653 17.1744 167.019 16.9716C166.384 16.7688 165.73 16.8691 165.147 17.106C164.045 17.5534 163.101 18.4789 162.724 19.6165C162.701 19.6183 162.722 19.6196 162.674 19.6135C162.441 19.5833 161.951 19.4023 161.342 18.9556C160.123 18.0622 158.402 16.1427 156.628 12.6554C156.542 12.4857 156.392 12.3575 156.211 12.2989L156.212 12.2983Z" fill="black"/>
<path d="M165.006 23.1787C164.912 23.1785 164.819 23.1968 164.732 23.2327C164.646 23.2687 164.567 23.3216 164.5 23.3882C164.366 23.5226 164.29 23.7052 164.29 23.8957C164.289 24.0863 164.364 24.2692 164.498 24.4043C164.953 24.8647 165.575 25.2777 166.178 25.8141C166.78 26.3506 167.334 26.9759 167.622 27.6979C167.657 27.7856 167.708 27.8655 167.774 27.933C167.839 28.0006 167.918 28.0544 168.004 28.0916C168.09 28.1288 168.183 28.1486 168.277 28.1497C168.371 28.1508 168.464 28.1334 168.551 28.0983C168.727 28.0275 168.868 27.8894 168.943 27.7143C169.017 27.5391 169.02 27.3412 168.95 27.1643C168.536 26.1258 167.809 25.3471 167.126 24.7383C166.442 24.1295 165.774 23.656 165.511 23.3906C165.377 23.2555 165.196 23.1793 165.006 23.1787ZM169.221 30.4295C169.131 30.453 169.045 30.4943 168.97 30.5511C168.895 30.6078 168.832 30.6789 168.784 30.7602C168.736 30.8415 168.705 30.9315 168.692 31.0249C168.679 31.1184 168.684 31.2135 168.708 31.3049C168.947 32.2391 169.168 33.1705 169.346 33.9421C169.367 34.034 169.406 34.1209 169.461 34.1977C169.515 34.2745 169.585 34.3397 169.664 34.3896C169.744 34.4396 169.833 34.4732 169.925 34.4887C170.018 34.5042 170.113 34.5013 170.204 34.48C170.296 34.4586 170.382 34.4194 170.458 34.3645C170.535 34.3096 170.6 34.2402 170.649 34.1601C170.699 34.08 170.732 33.9908 170.748 33.8977C170.763 33.8046 170.76 33.7094 170.739 33.6175C170.559 32.839 170.336 31.8968 170.092 30.946C170.045 30.7614 169.926 30.6034 169.763 30.5065C169.6 30.4096 169.405 30.382 169.221 30.4295Z" fill="black"/>
<path d="M148.391 7.7228C146.651 7.71004 145.041 7.89038 143.687 8.29437C141.881 8.83302 140.433 9.82907 140.052 11.4119C139.86 12.2145 140.103 13.0193 140.521 13.7515C140.938 14.4836 141.549 15.1755 142.26 15.8002C143.683 17.0497 145.481 18.046 147.123 18.2097C147.312 18.2285 147.5 18.1712 147.647 18.0504C147.794 17.9296 147.887 17.7551 147.905 17.5655C147.924 17.3758 147.867 17.1864 147.747 17.039C147.627 16.8916 147.453 16.7983 147.264 16.7795C146.13 16.6665 144.44 15.806 143.201 14.7178C142.582 14.1737 142.069 13.5765 141.761 13.0368C141.453 12.497 141.371 12.0472 141.442 11.7494C141.659 10.8504 142.541 10.1347 144.094 9.67154C145.646 9.20832 147.771 9.05731 150.062 9.23155C154.645 9.57999 159.905 11.2427 162.884 13.7946C163.029 13.9182 163.216 13.9791 163.405 13.9639C163.594 13.9487 163.769 13.8587 163.892 13.7136C164.015 13.5686 164.076 13.3804 164.061 13.1904C164.046 13.0005 163.956 12.8243 163.812 12.7006C160.447 9.81828 155.003 8.16569 150.17 7.79824C149.566 7.75232 148.971 7.72667 148.391 7.72245V7.7228Z" fill="black"/>
<path d="M160.966 0.000318604C155.375 -0.0376407 149.814 3.31968 147.912 8.27529C147.878 8.36334 147.862 8.45725 147.864 8.5516C147.866 8.64595 147.887 8.73882 147.925 8.8251C147.963 8.91138 148.018 8.98933 148.086 9.0544C148.154 9.11947 148.234 9.17044 148.321 9.2044C148.498 9.27289 148.695 9.26796 148.868 9.19071C149.042 9.11346 149.177 8.97023 149.245 8.79247C150.991 4.24461 156.652 1.01107 161.957 1.48521C166.558 1.89696 170.818 5.11584 172.489 9.69983C174.161 14.2838 173.327 20.2593 167.496 26.3733C167.365 26.5108 167.294 26.6951 167.298 26.8855C167.302 27.076 167.381 27.2572 167.518 27.389C167.585 27.4544 167.665 27.5056 167.753 27.5399C167.84 27.5742 167.934 27.5909 168.027 27.5889C168.121 27.5869 168.214 27.5663 168.3 27.5283C168.386 27.4904 168.463 27.4358 168.528 27.3676C174.639 20.9603 175.698 14.3228 173.832 9.20545C171.966 4.08807 167.258 0.517113 162.083 0.054002C161.712 0.0207495 161.338 0.00285162 160.966 0.000318604Z" fill="black"/>
<path d="M148.275 16.6124C147.77 16.5639 147.3 16.6466 146.885 16.8468C146.8 16.8876 146.724 16.9446 146.661 17.0149C146.599 17.0851 146.55 17.1671 146.519 17.2561C146.488 17.3451 146.474 17.4396 146.48 17.5338C146.485 17.6281 146.508 17.7203 146.549 17.8054C146.589 17.8905 146.646 17.9668 146.716 18.0298C146.786 18.0928 146.867 18.1414 146.956 18.1728C147.045 18.2041 147.138 18.2175 147.232 18.2124C147.326 18.2073 147.418 18.1837 147.502 18.1429C147.954 17.9254 148.28 17.8953 149.164 18.4096C149.245 18.4569 149.335 18.4877 149.428 18.5001C149.521 18.5125 149.616 18.5064 149.706 18.482C149.797 18.4577 149.882 18.4156 149.957 18.3582C150.031 18.3008 150.094 18.2292 150.141 18.1475C150.236 17.9825 150.262 17.7865 150.213 17.6024C150.164 17.4183 150.044 17.2612 149.88 17.1658C149.321 16.8408 148.78 16.661 148.275 16.6124Z" fill="black"/>
<path d="M150.691 17.8059C150.501 17.8132 150.322 17.8956 150.194 18.0354C150.065 18.1752 149.996 18.3607 150.003 18.5512C150.038 19.4652 150.214 21.9752 149.915 23.4659C149.833 23.8773 150.008 24.3138 150.256 24.5651C150.504 24.8164 150.8 24.9492 151.11 25.0255C151.73 25.178 152.466 25.1105 153.067 24.6276C153.215 24.5087 153.31 24.3356 153.332 24.1462C153.353 23.9568 153.298 23.7667 153.18 23.6178C153.121 23.544 153.049 23.4825 152.967 23.4369C152.884 23.3913 152.794 23.3623 152.701 23.3518C152.607 23.3413 152.513 23.3493 152.423 23.3755C152.333 23.4017 152.248 23.4455 152.175 23.5044C152.013 23.6341 151.677 23.6852 151.45 23.6294C151.378 23.6118 151.366 23.5982 151.337 23.5813C151.67 21.7213 151.461 19.2672 151.432 18.4968C151.425 18.3064 151.343 18.1265 151.204 17.997C151.065 17.8674 150.88 17.7987 150.691 17.8059Z" fill="black"/>
<mask id="mask3_230_2128" style="mask-type:luminance" maskUnits="userSpaceOnUse" x="-210" y="-1743" width="444" height="2359">
<path d="M230.384 614.678L233.484 -1742.65L-206.693 -1742.01L-209.793 615.316L230.384 614.678Z" fill="white"/>
</mask>
<g mask="url(#mask3_230_2128)">
<path fill-rule="evenodd" clip-rule="evenodd" d="M153.896 19.5393C153.942 19.781 153.935 20.0227 153.875 20.2115C153.816 20.4002 153.709 20.5205 153.579 20.5456C153.449 20.5708 153.306 20.4987 153.181 20.3456C153.057 20.1924 152.961 19.9707 152.915 19.7289C152.869 19.4871 152.877 19.2452 152.936 19.0565C152.996 18.8677 153.102 18.7475 153.232 18.7223C153.363 18.6972 153.506 18.7692 153.63 18.9224C153.755 19.0756 153.85 19.2975 153.896 19.5393Z" fill="black"/>
</g>
<mask id="mask4_230_2128" style="mask-type:luminance" maskUnits="userSpaceOnUse" x="-210" y="-1743" width="444" height="2359">
<path d="M230.384 614.678L233.484 -1742.65L-206.693 -1742.01L-209.793 615.316L230.384 614.678Z" fill="white"/>
</mask>
<g mask="url(#mask4_230_2128)">
<path fill-rule="evenodd" clip-rule="evenodd" d="M149.494 20.4382C149.54 20.68 149.533 20.9219 149.473 21.1106C149.414 21.2994 149.307 21.4195 149.177 21.4446C149.047 21.4698 148.904 21.3979 148.779 21.2447C148.655 21.0916 148.559 20.8696 148.513 20.6279C148.467 20.3861 148.475 20.1442 148.534 19.9555C148.594 19.7667 148.7 19.6466 148.831 19.6215C148.961 19.5963 149.104 19.6682 149.228 19.8214C149.353 19.9746 149.449 20.1965 149.494 20.4382Z" fill="black"/>
</g>
<path d="M157.644 32.9175C157.555 32.8874 157.461 32.8751 157.368 32.8815C157.274 32.8879 157.182 32.9128 157.098 32.9547C157.014 32.9966 156.939 33.0548 156.877 33.1259C156.816 33.197 156.768 33.2796 156.738 33.3691C156.708 33.4585 156.696 33.553 156.703 33.6471C156.709 33.7413 156.734 33.8333 156.775 33.9178C157.314 35.009 157.9 36.535 158.009 38.0255C158.004 37.9547 157.944 38.307 157.708 38.7241C157.473 39.1413 157.111 39.6658 156.687 40.2248C155.839 41.3427 154.739 42.6052 153.832 43.6054C153.769 43.6751 153.72 43.7566 153.688 43.8454C153.656 43.9342 153.641 44.0285 153.646 44.1228C153.65 44.2171 153.673 44.3096 153.713 44.395C153.753 44.4805 153.809 44.5572 153.878 44.6208C154.018 44.7492 154.203 44.8163 154.393 44.8075C154.582 44.7987 154.76 44.7146 154.888 44.5738C155.811 43.5565 156.93 42.2752 157.824 41.0963C158.271 40.5069 158.662 39.9452 158.951 39.4342C159.24 38.9233 159.478 38.5061 159.435 37.9202C159.305 36.134 158.644 34.4693 158.056 33.2789C157.972 33.1083 157.824 32.9783 157.644 32.9175Z" fill="black"/>
<mask id="mask5_230_2128" style="mask-type:luminance" maskUnits="userSpaceOnUse" x="-210" y="-1743" width="444" height="2359">
<path d="M233.483 615.316L233.483 -1742.65H-209.793L-209.793 615.316H233.483Z" fill="white"/>
</mask>
<g mask="url(#mask5_230_2128)">
<path fill-rule="evenodd" clip-rule="evenodd" d="M173.622 17.0692C172.941 20.1986 171.188 23.54 168.012 26.8706C167.185 25.4406 165.644 24.5424 165.004 23.8975C167.179 23.0298 168.518 20.4716 167.83 18.72C166.897 16.3433 163.821 18.1435 163.333 19.9956C163.067 21.0034 159.613 20.0998 155.992 12.9822C158.197 12.799 160.696 12.8204 163.348 13.248C166.62 13.7762 170.13 14.9242 173.622 17.0692Z" fill="black"/>
</g>
<path d="M152.813 39.6224C152.33 39.5585 152.051 39.8106 151.844 40.0119C151.732 40.1207 151.642 40.2657 151.545 40.3947C151.463 40.2476 151.333 40.134 151.176 40.0736C151.088 40.0417 150.994 40.0275 150.9 40.0319C150.807 40.0363 150.715 40.0593 150.63 40.0994C150.545 40.1396 150.469 40.1963 150.405 40.2661C150.342 40.3359 150.293 40.4175 150.261 40.5063C149.417 42.8594 149.071 45.5269 149.071 45.5269C149.048 45.7015 149.089 45.8786 149.187 46.0246C149.285 46.1706 149.433 46.2752 149.603 46.3186C149.773 46.3621 149.953 46.3414 150.108 46.2604C150.264 46.1794 150.384 46.0437 150.447 45.8792C150.447 45.8792 150.956 44.5454 151.567 43.2403C151.872 42.5877 152.205 41.9414 152.488 41.5031C152.587 41.3509 152.657 41.2724 152.731 41.1849C152.812 41.2888 152.912 41.4423 153.016 41.6894C153.249 42.2448 153.473 43.1207 153.655 44.2083C154.729 50.6187 154.484 64.3367 153.933 72.0718C153.893 72.6287 153.854 73.1843 153.813 73.7205C153.799 73.9105 153.86 74.0985 153.984 74.2431C154.107 74.3878 154.283 74.4772 154.472 74.4917C154.661 74.5062 154.848 74.4447 154.992 74.3207C155.135 74.1967 155.224 74.0203 155.239 73.8303C155.28 73.2887 155.32 72.7306 155.359 72.1739C155.916 64.3515 156.199 50.7381 155.065 43.9697C154.873 42.8208 154.643 41.8679 154.332 41.1294C154.177 40.7602 154.004 40.4414 153.769 40.1729C153.534 39.9045 153.209 39.6742 152.813 39.6217L152.813 39.6224ZM154.412 75.2693C154.319 75.2616 154.225 75.2726 154.135 75.3016C154.046 75.3305 153.963 75.3769 153.891 75.438C153.82 75.4992 153.761 75.574 153.718 75.658C153.675 75.7421 153.65 75.8338 153.642 75.9279C153.002 83.8893 152.338 89.0526 151.862 92.562C151.386 96.0714 151.08 97.9188 151.212 99.3865C151.374 101.176 151.839 102.627 152.037 103.938C152.234 105.249 152.209 106.396 151.451 107.843C151.407 107.927 151.38 108.018 151.371 108.112C151.363 108.206 151.373 108.301 151.4 108.391C151.428 108.481 151.473 108.565 151.533 108.637C151.593 108.71 151.667 108.77 151.75 108.814C151.918 108.902 152.114 108.921 152.295 108.864C152.476 108.808 152.627 108.681 152.716 108.513C153.623 106.78 153.672 105.196 153.45 103.723C153.229 102.25 152.781 100.862 152.636 99.2565C152.534 98.1193 152.802 96.2748 153.279 92.7559C153.756 89.2366 154.424 84.0347 155.067 76.0435C155.075 75.9494 155.064 75.8547 155.035 75.7649C155.006 75.675 154.96 75.5919 154.899 75.52C154.839 75.4481 154.764 75.3888 154.681 75.3458C154.597 75.3027 154.506 75.2769 154.412 75.2693Z" fill="black"/>
<path d="M126.911 56.6648C123.999 56.6558 121.121 56.71 118.273 56.8181C118.138 56.8233 118.007 56.8668 117.895 56.9437C117.784 57.0207 117.696 57.1279 117.643 57.2528C117.59 57.3778 117.573 57.5156 117.594 57.6499C117.615 57.7841 117.674 57.9094 117.764 58.0114C120.641 61.2936 123.631 64.4706 126.786 67.4881C127.705 68.3736 128.636 69.2394 129.578 70.1032C129.718 70.2316 129.903 70.2989 130.092 70.2902C130.282 70.2815 130.46 70.1976 130.588 70.0569C130.715 69.9161 130.782 69.73 130.774 69.5397C130.765 69.3493 130.682 69.1703 130.542 69.0418C129.604 68.1816 128.681 67.3232 127.774 66.449C127.773 66.4484 127.772 66.4477 127.771 66.4471C125.027 63.8217 122.42 61.0533 119.883 58.2107C124.96 58.0543 130.128 58.0677 135.422 58.316C141.522 64.542 148.084 70.1805 155.214 75.1091C150.264 75.8496 145.149 76.3109 139.852 76.4708H139.71C138.775 75.7989 137.853 75.1143 136.946 74.4112C136.872 74.3535 136.787 74.3112 136.697 74.2865C136.606 74.2617 136.511 74.2551 136.418 74.2672C136.325 74.2792 136.235 74.3095 136.154 74.3565C136.072 74.4034 136.001 74.466 135.944 74.5407C135.886 74.6154 135.844 74.7006 135.819 74.7917C135.795 74.8828 135.788 74.9779 135.8 75.0715C135.812 75.1652 135.843 75.2554 135.889 75.3373C135.936 75.4192 135.998 75.4911 136.073 75.5487C137.052 76.309 138.048 77.051 139.06 77.775C139.181 77.8616 139.326 77.9079 139.474 77.908H139.866C139.873 77.9081 139.88 77.9081 139.887 77.908C145.884 77.7274 151.668 77.1861 157.239 76.2641C157.38 76.2407 157.512 76.175 157.616 76.0756C157.72 75.9761 157.792 75.8475 157.822 75.7064C157.852 75.5654 157.839 75.4184 157.785 75.2847C157.731 75.151 157.639 75.0368 157.519 74.9568C149.808 69.7956 142.76 63.7926 136.234 57.1051C136.107 56.9759 135.937 56.8994 135.757 56.8907C132.771 56.7465 129.824 56.6741 126.911 56.6651L126.911 56.6648Z" fill="black"/>
<path d="M133.878 67.6846C133.515 67.6828 133.134 67.7956 132.795 68.0204L132.801 68.0169C131.974 68.5544 131.162 68.7532 130.475 68.8214C129.789 68.8895 129.302 68.8179 128.893 68.8179C128.703 68.8179 128.521 68.8937 128.387 69.0284C128.253 69.1632 128.178 69.3459 128.178 69.5365C128.178 69.7271 128.253 69.9098 128.387 70.0446C128.521 70.1793 128.703 70.2551 128.893 70.2551C129.043 70.2551 129.764 70.3362 130.616 70.2516C131.468 70.1671 132.524 69.908 133.577 69.2239C133.579 69.2227 133.581 69.2216 133.582 69.2204C133.854 69.0409 133.929 69.1345 133.917 69.1232C133.904 69.1124 133.973 69.036 133.828 69.2372C133.192 70.1072 131.334 70.784 130.456 70.8888C130.363 70.8999 130.273 70.9293 130.191 70.9754C130.109 71.0216 130.037 71.0835 129.979 71.1577C129.92 71.2319 129.878 71.3168 129.852 71.4077C129.827 71.4986 129.819 71.5936 129.83 71.6873C129.853 71.8766 129.949 72.0492 130.098 72.1672C130.247 72.2851 130.436 72.3386 130.625 72.3161C131.852 72.1693 133.883 71.589 134.98 70.0877C134.981 70.0871 134.981 70.0864 134.982 70.0858C135.453 69.4369 135.397 68.515 134.857 68.0413C134.588 67.8043 134.241 67.6867 133.878 67.6846Z" fill="black"/>
<path d="M136.466 69.271C136.091 69.3042 135.708 69.4355 135.355 69.6864C135.353 69.6876 135.352 69.6887 135.35 69.6899C134.631 70.2105 133.787 70.4955 132.78 70.2878C132.595 70.2495 132.401 70.287 132.243 70.3918C132.085 70.4967 131.975 70.6604 131.936 70.8471C131.918 70.9396 131.917 71.0349 131.935 71.1276C131.952 71.2203 131.988 71.3085 132.04 71.3873C132.092 71.4661 132.158 71.5338 132.236 71.5867C132.314 71.6396 132.401 71.6766 132.493 71.6955C133.924 71.9907 135.218 71.557 136.186 70.8562L136.181 70.8599C136.366 70.7288 136.586 70.717 136.764 70.7371C136.265 71.1848 135.449 71.5833 134.603 71.8427C133.633 72.1398 132.657 72.284 132.22 72.3241C132.126 72.3326 132.036 72.3597 131.952 72.4036C131.869 72.4474 131.796 72.5074 131.735 72.5799C131.675 72.6524 131.63 72.7361 131.602 72.8262C131.574 72.9163 131.564 73.0111 131.573 73.1051C131.59 73.2949 131.681 73.47 131.827 73.592C131.973 73.714 132.161 73.7729 132.349 73.7557C132.894 73.7059 133.922 73.5537 135.02 73.2174C136.117 72.8813 137.289 72.3868 138.065 71.4781C138.067 71.4764 138.068 71.4747 138.069 71.4729C138.346 71.1427 138.472 70.628 138.318 70.2241C138.165 69.8203 137.851 69.5861 137.529 69.4445C137.208 69.3031 136.841 69.2381 136.466 69.2712L136.466 69.271Z" fill="black"/>
<path d="M136.778 70.988C136.638 71.0042 136.495 71.0381 136.351 71.0946C136.264 71.129 136.184 71.1804 136.116 71.2457C136.049 71.311 135.994 71.3891 135.957 71.4755C135.919 71.562 135.898 71.655 135.897 71.7494C135.895 71.8437 135.911 71.9376 135.945 72.0255C136.013 72.1741 136.128 72.2952 136.273 72.3688C136.418 72.4425 136.584 72.4644 136.743 72.4308C136.665 72.4879 136.678 72.4901 136.58 72.5494C136.245 72.7513 135.807 72.9765 135.345 73.1816C134.421 73.5918 133.333 73.902 132.942 73.902C132.753 73.902 132.571 73.9777 132.437 74.1125C132.303 74.2473 132.228 74.43 132.228 74.6206C132.228 74.8111 132.303 74.994 132.437 75.1288C132.571 75.2636 132.753 75.3391 132.942 75.3391C133.846 75.3391 134.905 74.9485 135.923 74.4964C136.432 74.2704 136.914 74.0242 137.316 73.7813C137.718 73.5384 138.027 73.3522 138.286 72.9985C138.288 72.9955 138.29 72.9924 138.292 72.9894C138.495 72.7041 138.562 72.2853 138.457 71.9659C138.351 71.6466 138.141 71.4358 137.921 71.2876C137.591 71.0652 137.197 70.9406 136.778 70.9873L136.778 70.988Z" fill="black"/>
<path d="M137.223 72.4313C137.094 72.4242 136.959 72.4312 136.819 72.4584C136.633 72.4927 136.467 72.6 136.36 72.7568C136.252 72.9136 136.21 73.107 136.244 73.2945C136.283 73.4525 136.373 73.5929 136.5 73.6927C136.628 73.7925 136.785 73.8457 136.947 73.844C136.699 74.0114 136.403 74.2042 136.081 74.4039C135.371 74.8443 134.545 75.3068 134.336 75.3955C134.334 75.3961 134.333 75.3967 134.331 75.3973C133.325 75.8322 132.531 75.3972 132.212 75.1299C132.14 75.0692 132.057 75.0234 131.968 74.995C131.878 74.9666 131.784 74.9561 131.69 74.9643C131.597 74.9725 131.506 74.9993 131.422 75.0429C131.339 75.0865 131.265 75.146 131.205 75.2183C131.083 75.3643 131.024 75.553 131.04 75.7429C131.057 75.9327 131.148 76.1081 131.293 76.2306C131.953 76.7877 133.324 77.3956 134.893 76.7186C135.361 76.52 136.094 76.0846 136.832 75.6271C137.201 75.3982 137.556 75.1694 137.842 74.9738C137.985 74.8759 138.11 74.7866 138.217 74.7046C138.32 74.6252 138.392 74.5789 138.511 74.4338C138.735 74.1654 138.792 73.7298 138.692 73.4429C138.591 73.154 138.416 72.9719 138.229 72.8262C137.948 72.6074 137.61 72.452 137.223 72.4313Z" fill="black"/>
<path d="M127.374 66.2554C127.281 66.2429 127.186 66.2488 127.095 66.2731C127.004 66.2974 126.919 66.3395 126.845 66.3968C126.77 66.4541 126.708 66.5255 126.661 66.6071C126.613 66.6888 126.583 66.779 126.57 66.8726C126.365 68.4146 126.246 70.2786 126.842 71.7781C127.944 74.5677 129.956 77.1509 131.812 79.0419C132.74 79.9873 133.629 80.7567 134.367 81.2916C134.737 81.559 135.066 81.7678 135.368 81.9162C135.669 82.0637 135.905 82.2353 136.397 82.1071C137.311 81.88 138.123 81.1777 138.88 80.3145C139.638 79.4496 140.293 78.4159 140.559 77.3671C140.605 77.1825 140.577 76.9868 140.48 76.8229C140.384 76.6591 140.226 76.5405 140.042 76.4935C139.859 76.4464 139.664 76.4748 139.501 76.5721C139.338 76.6694 139.22 76.8278 139.173 77.0124C138.997 77.7062 138.451 78.6304 137.807 79.3643C137.201 80.0556 136.494 80.5394 136.14 80.6638C136.103 80.6584 136.064 80.6582 135.995 80.6246C135.808 80.5327 135.528 80.361 135.203 80.1253C134.552 79.6543 133.709 78.9283 132.83 78.0324C131.071 76.2406 129.162 73.7576 128.17 71.2476C127.766 70.232 127.797 68.5042 127.988 67.0647C128.001 66.9711 127.995 66.8759 127.971 66.7847C127.947 66.6934 127.905 66.6079 127.848 66.5329C127.791 66.4579 127.72 66.3948 127.638 66.3475C127.557 66.3001 127.467 66.2694 127.374 66.257L127.374 66.2554Z" fill="black"/>
<path d="M179.049 56.2212C178.961 56.1865 178.868 56.1695 178.774 56.171C178.68 56.1725 178.588 56.1926 178.501 56.2301C178.327 56.3059 178.191 56.448 178.121 56.6252C178.051 56.8024 178.054 57.0002 178.13 57.175C180.198 61.9795 181.348 66.5689 181.944 70.6997C181.957 70.7931 181.989 70.883 182.037 70.9641C182.085 71.0452 182.148 71.1159 182.224 71.1724C182.299 71.2288 182.384 71.2698 182.475 71.2931C182.566 71.3163 182.661 71.3214 182.754 71.3078C182.942 71.2804 183.111 71.1791 183.224 71.0264C183.337 70.8737 183.386 70.682 183.359 70.4934C182.746 66.2527 181.565 61.5365 179.441 56.6041C179.366 56.4293 179.225 56.2914 179.049 56.2212Z" fill="black"/>
<path d="M170.622 32.4879C170.432 32.4879 170.25 32.5637 170.116 32.6984C170.116 32.6984 165.952 36.8642 163.454 38.6461C163.231 38.8057 163.189 38.9086 163.094 39.0485C162.999 39.1885 162.899 39.3536 162.786 39.5503C162.561 39.9435 162.287 40.4602 161.971 41.0741C161.34 42.3018 160.541 43.914 159.675 45.6151C157.943 49.0171 155.895 52.8121 154.558 54.3935C154.497 54.4655 154.451 54.5488 154.422 54.6386C154.393 54.7285 154.382 54.823 154.39 54.917C154.398 55.0111 154.424 55.1029 154.466 55.1869C154.509 55.2708 154.568 55.3454 154.64 55.4065C154.784 55.5299 154.972 55.5905 155.16 55.5751C155.349 55.5597 155.524 55.4695 155.647 55.3244C157.231 53.4512 159.207 49.6894 160.948 46.2698C161.818 44.56 162.619 42.9452 163.242 41.7344C163.553 41.129 163.821 40.6236 164.025 40.2674C164.127 40.0893 164.214 39.948 164.275 39.859C164.334 39.771 164.412 39.7244 164.285 39.8159C167.02 37.8641 171.128 33.7142 171.128 33.7142C171.262 33.5794 171.337 33.3967 171.337 33.2061C171.337 33.0156 171.262 32.8328 171.128 32.6981C170.994 32.5633 170.812 32.4876 170.623 32.4875L170.622 32.4879Z" fill="black"/>
<path d="M156.192 41.1967C156.099 41.2053 156.008 41.2325 155.925 41.2765C155.842 41.3205 155.768 41.3805 155.708 41.4531C155.648 41.5257 155.603 41.6095 155.575 41.6996C155.547 41.7898 155.537 41.8846 155.546 41.9786C155.555 42.0725 155.582 42.1639 155.625 42.2473C155.669 42.3308 155.729 42.4048 155.801 42.4651C155.801 42.4651 156.412 42.9477 157.489 43.1984C158.567 43.4491 160.175 43.524 162.362 42.9352C162.545 42.8859 162.701 42.7655 162.796 42.6005C162.891 42.4355 162.916 42.2393 162.867 42.0552C162.843 41.9641 162.801 41.8786 162.744 41.8037C162.687 41.7288 162.616 41.666 162.534 41.6188C162.453 41.5715 162.363 41.5409 162.27 41.5286C162.177 41.5162 162.083 41.5224 161.992 41.5468C160.001 42.0827 158.649 41.9932 157.812 41.7984C156.974 41.6036 156.715 41.3595 156.715 41.3595C156.569 41.2377 156.381 41.1791 156.192 41.1967Z" fill="black"/>
<mask id="mask6_230_2128" style="mask-type:luminance" maskUnits="userSpaceOnUse" x="-210" y="-1743" width="444" height="2359">
<path d="M233.483 615.316L233.483 -1742.65H-209.793L-209.793 615.316H233.483Z" fill="white"/>
</mask>
<g mask="url(#mask6_230_2128)">
<path fill-rule="evenodd" clip-rule="evenodd" d="M156.258 41.9124C156.258 41.9124 157.999 43.3655 162.177 42.2409C160.238 46.0692 157.135 52.4521 155.102 54.8594C155.035 50.6718 154.812 46.7878 154.36 44.0895C154.951 43.4392 155.622 42.6794 156.258 41.9124Z" fill="black"/>
</g>
<path d="M174.701 36.6403C174.518 36.687 174.36 36.8051 174.263 36.9687C174.263 36.9687 173.256 38.666 171.916 40.6108C170.672 42.4153 169.118 44.3969 167.958 45.3781C167.86 45.1564 167.756 44.9112 167.572 44.4139C167.084 43.0953 166.258 41.0462 164.435 38.7722C164.376 38.6987 164.304 38.6376 164.221 38.5924C164.139 38.5471 164.048 38.5186 163.955 38.5085C163.862 38.4984 163.767 38.5068 163.677 38.5334C163.587 38.56 163.503 38.6042 163.43 38.6634C163.357 38.7226 163.296 38.7957 163.251 38.8785C163.206 38.9613 163.178 39.0524 163.168 39.1462C163.158 39.2401 163.166 39.3349 163.193 39.4255C163.219 39.5161 163.263 39.6004 163.322 39.6739C165.015 41.7868 165.758 43.6352 166.232 44.9153C166.469 45.5553 166.608 46.0349 166.875 46.4594C167.008 46.6717 167.215 46.9297 167.587 47.0198C167.958 47.1098 168.304 46.9544 168.528 46.7875C170.054 45.6531 171.72 43.4191 173.091 41.4297C174.462 39.4402 175.491 37.7052 175.491 37.7052C175.539 37.6241 175.57 37.5344 175.584 37.441C175.598 37.3476 175.593 37.2523 175.57 37.1608C175.547 37.0693 175.506 36.9833 175.45 36.9076C175.393 36.832 175.323 36.7682 175.242 36.7199C175.08 36.6224 174.885 36.5939 174.701 36.6406L174.701 36.6403Z" fill="black"/>
<path d="M144.986 48.1035C144.893 48.0934 144.798 48.1019 144.708 48.1286C144.618 48.1552 144.534 48.1993 144.461 48.2585C144.388 48.3178 144.327 48.391 144.282 48.4738C144.237 48.5567 144.209 48.6475 144.199 48.7413C144.199 48.7413 143.403 56.2069 142.625 64.8187C142.616 64.9127 142.626 65.0073 142.654 65.0974C142.682 65.1875 142.728 65.2712 142.788 65.3437C142.848 65.4162 142.922 65.4762 143.005 65.5201C143.088 65.5639 143.179 65.5908 143.272 65.5993C143.461 65.6165 143.649 65.5575 143.795 65.4355C143.94 65.3134 144.032 65.1383 144.049 64.9485C144.826 56.3501 145.621 48.8943 145.621 48.8943C145.641 48.7049 145.585 48.5151 145.466 48.3668C145.347 48.2185 145.174 48.1238 144.986 48.1035ZM142.39 76.3827C142.296 76.3761 142.202 76.3879 142.113 76.4178C142.024 76.4477 141.942 76.495 141.871 76.5569C141.8 76.6188 141.742 76.6941 141.7 76.7785C141.658 76.8629 141.633 76.9549 141.627 77.049C141.456 79.4787 141.32 81.7482 141.239 83.717V83.7135C141.229 83.9303 141.211 84.1662 141.185 84.3773C141.174 84.471 141.181 84.566 141.206 84.657C141.231 84.7479 141.273 84.8329 141.331 84.9073C141.389 84.9817 141.461 85.044 141.542 85.0905C141.624 85.137 141.714 85.1669 141.807 85.1784C141.901 85.1899 141.995 85.1829 142.086 85.1577C142.176 85.1325 142.261 85.0896 142.335 85.0315C142.409 84.9734 142.471 84.9012 142.517 84.8191C142.563 84.7369 142.593 84.6464 142.604 84.5528C142.636 84.2968 142.656 84.03 142.668 83.7798C142.668 83.7786 142.668 83.7773 142.668 83.7761C142.748 81.8284 142.883 79.5706 143.053 77.1499C143.059 77.0557 143.048 76.9612 143.018 76.8716C142.988 76.7821 142.941 76.6994 142.88 76.6281C142.818 76.5569 142.743 76.4985 142.659 76.4564C142.575 76.4142 142.484 76.3893 142.39 76.3827Z" fill="black"/>
<path d="M176.265 119.478C176.173 119.499 176.087 119.538 176.01 119.593C175.934 119.648 175.869 119.717 175.819 119.797C175.769 119.877 175.735 119.966 175.72 120.059C175.704 120.152 175.707 120.247 175.728 120.339C176.045 121.733 176.387 122.41 175.024 124.634C174.49 125.504 174.67 126.516 175.209 127.059C175.748 127.603 176.603 127.843 177.319 127.374C177.321 127.372 177.324 127.37 177.327 127.368C178.153 126.81 178.781 125.779 179.365 124.69C179.949 123.601 180.409 122.527 180.556 121.751C180.592 121.564 180.552 121.37 180.445 121.212C180.339 121.055 180.175 120.946 179.988 120.91C179.896 120.893 179.801 120.893 179.709 120.912C179.617 120.932 179.53 120.969 179.452 121.022C179.375 121.075 179.308 121.143 179.257 121.222C179.205 121.3 179.17 121.389 179.152 121.482C179.074 121.892 178.643 123.008 178.107 124.008C177.572 125.003 176.854 125.95 176.535 126.17C176.532 126.17 176.349 126.173 176.221 126.045C176.092 125.914 175.981 125.812 176.241 125.389C177.762 122.907 177.425 121.357 177.121 120.019C177.1 119.927 177.061 119.84 177.007 119.763C176.952 119.686 176.883 119.621 176.804 119.571C176.724 119.521 176.636 119.487 176.543 119.471C176.451 119.455 176.356 119.458 176.264 119.479L176.265 119.478Z" fill="black"/>
<path d="M117.016 106.033L89.74 113.919C89.6006 113.96 89.4767 114.042 89.3848 114.155C89.2928 114.267 89.2371 114.405 89.2251 114.551L88.3315 125.383C88.3171 125.558 88.3671 125.733 88.4721 125.874C88.5771 126.014 88.7298 126.111 88.9012 126.147L109.513 130.368C109.614 130.389 109.719 130.387 109.82 130.363C109.921 130.339 110.016 130.294 110.098 130.229C110.179 130.165 110.246 130.083 110.293 129.99C110.34 129.897 110.366 129.795 110.37 129.69L110.715 120.151C110.722 119.961 110.653 119.776 110.524 119.636C110.395 119.496 110.216 119.414 110.027 119.407C109.837 119.4 109.653 119.469 109.514 119.599C109.375 119.729 109.293 119.909 109.286 120.099L108.972 128.791L89.8091 124.866L90.6095 115.163L117.19 107.478L124.577 110.131C124.666 110.162 124.76 110.176 124.853 110.172C124.947 110.167 125.039 110.144 125.124 110.104C125.209 110.063 125.285 110.006 125.348 109.936C125.411 109.866 125.46 109.785 125.491 109.696C125.555 109.516 125.545 109.319 125.464 109.147C125.383 108.974 125.237 108.841 125.058 108.777L117.454 106.047C117.313 105.996 117.16 105.991 117.016 106.032V106.033Z" fill="black"/>
<path d="M117.016 106.033L89.74 113.919C89.6006 113.96 89.4767 114.042 89.3848 114.155C89.2928 114.267 89.2371 114.405 89.2251 114.551L88.3315 125.383C88.3171 125.558 88.3671 125.733 88.4721 125.874C88.5771 126.014 88.7298 126.111 88.9012 126.147L109.513 130.368C109.614 130.389 109.719 130.387 109.82 130.363C109.921 130.339 110.016 130.294 110.098 130.229C110.179 130.165 110.246 130.083 110.293 129.99C110.34 129.897 110.366 129.795 110.37 129.69L110.715 120.151C110.722 119.961 110.653 119.776 110.524 119.636C110.395 119.496 110.216 119.414 110.027 119.407C109.837 119.4 109.653 119.469 109.514 119.599C109.375 119.729 109.293 119.909 109.286 120.099L108.972 128.791L89.8091 124.866L90.6095 115.163L117.19 107.478L124.577 110.131C124.666 110.162 124.76 110.176 124.853 110.172C124.947 110.167 125.039 110.144 125.124 110.104C125.209 110.063 125.285 110.006 125.348 109.936C125.411 109.866 125.46 109.785 125.491 109.696C125.555 109.516 125.545 109.319 125.464 109.147C125.383 108.974 125.237 108.841 125.058 108.777L117.454 106.047C117.313 105.996 117.16 105.991 117.016 106.032V106.033Z" fill="black"/>
<path d="M133.709 112.625L109.997 119.379L90.1266 113.916C90.036 113.892 89.9415 113.885 89.8483 113.897C89.7551 113.909 89.6652 113.939 89.5836 113.986C89.5021 114.032 89.4305 114.095 89.373 114.169C89.3155 114.244 89.2731 114.329 89.2484 114.42C89.1985 114.604 89.2232 114.8 89.3171 114.966C89.411 115.131 89.5665 115.252 89.7493 115.303L109.812 120.818C109.938 120.853 110.07 120.852 110.196 120.816L134.099 114.008C134.189 113.982 134.274 113.939 134.348 113.88C134.421 113.822 134.483 113.749 134.528 113.667C134.574 113.584 134.603 113.494 134.614 113.4C134.625 113.306 134.618 113.211 134.592 113.12C134.54 112.937 134.418 112.782 134.253 112.689C134.087 112.596 133.892 112.573 133.709 112.625Z" fill="black"/>
<path d="M133.82 112.603C133.632 112.625 133.46 112.722 133.343 112.871L126.049 122.177C125.97 122.279 125.919 122.4 125.902 122.528C125.885 122.656 125.903 122.786 125.954 122.904C126.004 123.023 126.086 123.126 126.189 123.202C126.293 123.278 126.415 123.325 126.543 123.337L133.704 124.02C133.893 124.038 134.081 123.979 134.227 123.858C134.373 123.737 134.466 123.562 134.483 123.372C134.501 123.183 134.444 122.994 134.323 122.847C134.202 122.7 134.028 122.607 133.839 122.589L127.984 122.031L134.466 113.761C134.583 113.611 134.636 113.421 134.614 113.232C134.592 113.042 134.496 112.87 134.347 112.752C134.273 112.693 134.188 112.65 134.098 112.625C134.008 112.599 133.913 112.592 133.82 112.603Z" fill="black"/>
<path d="M110.161 119.425C110.069 119.403 109.974 119.401 109.882 119.416C109.789 119.432 109.701 119.466 109.621 119.516C109.541 119.566 109.472 119.631 109.418 119.708C109.364 119.785 109.325 119.872 109.304 119.964C109.283 120.056 109.28 120.151 109.295 120.244C109.311 120.337 109.345 120.426 109.395 120.506C109.444 120.586 109.509 120.656 109.586 120.71C109.662 120.765 109.749 120.804 109.84 120.825L121.525 123.526L109.363 129.009C109.19 129.087 109.055 129.231 108.988 129.409C108.92 129.587 108.926 129.784 109.003 129.958C109.081 130.132 109.224 130.268 109.401 130.336C109.578 130.404 109.775 130.398 109.948 130.32L124.054 123.96C124.191 123.899 124.305 123.795 124.38 123.665C124.455 123.535 124.487 123.384 124.473 123.235C124.458 123.085 124.397 122.943 124.298 122.83C124.199 122.717 124.068 122.638 123.922 122.605L110.161 119.425Z" fill="black"/>
<path d="M15.9499 119.849C15.8599 119.822 15.7655 119.813 15.6722 119.823C15.5788 119.833 15.4882 119.861 15.4057 119.906C15.3232 119.951 15.2503 120.012 15.1912 120.086C15.1321 120.159 15.0879 120.243 15.0612 120.334C15.0073 120.516 15.0278 120.713 15.1182 120.881C15.2086 121.048 15.3615 121.173 15.5433 121.227L50.4791 131.646C50.5691 131.673 50.6635 131.682 50.7568 131.672C50.8502 131.662 50.9407 131.634 51.0232 131.589C51.1058 131.544 51.1787 131.483 51.2378 131.41C51.2969 131.337 51.3411 131.252 51.3678 131.162C51.3945 131.071 51.4032 130.976 51.3934 130.883C51.3837 130.789 51.3556 130.698 51.3108 130.615C51.2661 130.532 51.2055 130.458 51.1325 130.399C51.0596 130.34 50.9757 130.295 50.8857 130.269L15.9499 119.849Z" fill="black"/>
<mask id="mask7_230_2128" style="mask-type:luminance" maskUnits="userSpaceOnUse" x="-210" y="-1743" width="444" height="2359">
<path d="M233.483 615.316L233.483 -1742.65H-209.793L-209.793 615.316H233.483Z" fill="white"/>
</mask>
<g mask="url(#mask7_230_2128)">
<path fill-rule="evenodd" clip-rule="evenodd" d="M0.782757 124.886L32.0387 125.407L50.6825 130.958L89.2211 123.305L89.0442 125.443L109.656 129.664L133.772 123.305L136.383 123.574L136.453 134.353H0.714844L0.782757 124.886Z" fill="black"/>
</g>
<path d="M123.127 94.3663L52.1664 111.849L16.8061 99.5409C16.627 99.4786 16.4306 99.4904 16.2601 99.5736C16.0896 99.6568 15.9589 99.8048 15.8968 99.9848C15.8661 100.074 15.8531 100.168 15.8587 100.263C15.8642 100.357 15.8882 100.449 15.9292 100.534C15.9702 100.619 16.0274 100.695 16.0976 100.757C16.1679 100.82 16.2497 100.868 16.3384 100.899L51.8979 113.277C52.0279 113.322 52.1682 113.329 52.3018 113.296L123.467 95.7621C123.651 95.7166 123.81 95.5995 123.908 95.4366C124.006 95.2737 124.036 95.0783 123.991 94.8933C123.946 94.7082 123.83 94.5488 123.668 94.45C123.506 94.3512 123.311 94.321 123.127 94.3663Z" fill="black"/>
<path d="M109.656 89.2976C109.466 89.2976 109.284 89.3734 109.15 89.5081C109.016 89.6429 108.941 89.8256 108.941 90.0162V98.4238C108.941 98.6144 109.016 98.7973 109.15 98.932C109.284 99.0668 109.466 99.1424 109.656 99.1424C109.845 99.1424 110.027 99.0668 110.161 98.932C110.295 98.7973 110.371 98.6144 110.371 98.4238V90.0162C110.371 89.8256 110.295 89.6429 110.161 89.5081C110.027 89.3734 109.845 89.2976 109.656 89.2976Z" fill="black"/>
<path d="M52.1886 111.881C51.9996 111.866 51.8124 111.927 51.6681 112.051C51.5238 112.175 51.4343 112.351 51.4193 112.541L49.97 130.901C49.955 131.091 50.0158 131.279 50.1389 131.424C50.2619 131.569 50.4372 131.659 50.6262 131.674C50.8152 131.689 51.0023 131.628 51.1465 131.504C51.2907 131.38 51.3802 131.204 51.3952 131.014L52.8445 112.654C52.8594 112.464 52.7988 112.276 52.6758 112.131C52.5528 111.986 52.3775 111.897 52.1886 111.881Z" fill="black"/>
<path d="M16.7128 99.5155C16.6207 99.4969 16.5259 99.4968 16.4338 99.5151C16.3417 99.5334 16.254 99.5698 16.1759 99.6221C16.0977 99.6745 16.0306 99.7417 15.9784 99.8202C15.9261 99.8986 15.8897 99.9867 15.8713 100.079C15.8529 100.172 15.8528 100.267 15.8711 100.36C15.8893 100.452 15.9255 100.54 15.9776 100.619C15.9776 100.619 18.2129 103.99 21.1723 107.609C24.1312 111.226 27.7093 115.121 30.9344 116.207C34.1472 117.297 39.3744 116.475 43.9406 115.492C48.507 114.509 52.348 113.283 52.348 113.283C52.5287 113.225 52.6792 113.098 52.7663 112.928C52.8535 112.759 52.8703 112.562 52.813 112.381C52.7846 112.291 52.7388 112.207 52.6784 112.135C52.6179 112.063 52.5438 112.003 52.4605 111.96C52.3771 111.916 52.286 111.89 52.1925 111.882C52.0989 111.874 52.0047 111.884 51.9152 111.913C51.9152 111.913 48.1303 113.121 43.6415 114.087C39.1527 115.053 33.8957 115.695 31.3913 114.845C31.3907 114.845 31.3901 114.845 31.3895 114.845C28.8997 114.008 25.1833 110.251 22.2763 106.697C19.3693 103.143 17.1668 99.8225 17.1668 99.8225C17.1148 99.7439 17.0479 99.6764 16.9699 99.6239C16.8919 99.5713 16.8044 99.5347 16.7123 99.5162L16.7128 99.5155Z" fill="black"/>
<path d="M29.6682 114.191C28.9024 114.333 27.7324 114.749 26.2844 115.304C24.8364 115.86 23.1533 116.553 21.5502 117.231C18.3438 118.586 15.4556 119.882 15.4556 119.882C15.2825 119.96 15.1472 120.103 15.0794 120.281C15.0117 120.459 15.017 120.657 15.0943 120.831C15.1326 120.917 15.1874 120.995 15.2555 121.06C15.3237 121.125 15.4039 121.176 15.4916 121.209C15.5793 121.243 15.6727 121.259 15.7665 121.257C15.8604 121.254 15.9528 121.233 16.0385 121.194C16.0385 121.194 18.9154 119.903 22.1045 118.555C23.699 117.881 25.3713 117.193 26.794 116.647C28.2168 116.101 29.4334 115.695 29.9275 115.604C30.1139 115.569 30.279 115.462 30.3865 115.305C30.494 115.148 30.5351 114.954 30.5007 114.767C30.4663 114.58 30.3593 114.414 30.2032 114.306C30.0471 114.197 29.8546 114.156 29.6682 114.191Z" fill="black"/>
<path d="M35.0392 115.257C34.8498 115.265 34.6714 115.349 34.5432 115.489C34.415 115.63 34.3476 115.815 34.3556 116.006C34.3637 116.196 34.4466 116.375 34.5861 116.504C34.5861 116.504 37.7742 119.448 41.3177 122.791C44.8613 126.134 48.7872 129.909 50.1499 131.437C50.2765 131.579 50.4539 131.665 50.6432 131.675C50.8325 131.686 51.0182 131.62 51.1594 131.493C51.2293 131.43 51.2863 131.354 51.3269 131.269C51.3675 131.184 51.3911 131.091 51.3963 130.997C51.4014 130.903 51.3881 130.808 51.3569 130.719C51.3258 130.63 51.2775 130.548 51.2149 130.478C49.727 128.809 45.8463 125.092 42.2961 121.743C38.7459 118.394 35.5534 115.446 35.5534 115.446C35.4842 115.382 35.4032 115.333 35.315 115.3C35.2268 115.268 35.1331 115.253 35.0392 115.257Z" fill="black"/>
<path d="M58.9103 78.614C58.8171 78.6028 58.7226 78.61 58.6322 78.6354C58.5418 78.6609 58.4573 78.704 58.3834 78.7623C58.3096 78.8206 58.2479 78.8928 58.2019 78.9751C58.1558 79.0573 58.1264 79.1481 58.1152 79.2418C55.7678 98.8845 58.3836 111.026 58.3836 111.026C58.4035 111.118 58.4413 111.205 58.4948 111.283C58.5483 111.361 58.6165 111.427 58.6955 111.478C58.7744 111.529 58.8626 111.564 58.955 111.581C59.0474 111.597 59.1422 111.596 59.2339 111.576C59.3257 111.556 59.4127 111.518 59.4898 111.464C59.567 111.41 59.6329 111.342 59.6837 111.262C59.7345 111.183 59.7692 111.094 59.7859 111.001C59.8026 110.908 59.8009 110.813 59.7809 110.721C59.7809 110.721 57.2106 98.8613 59.5348 79.413C59.5574 79.2238 59.5043 79.0334 59.3872 78.8835C59.2701 78.7337 59.0986 78.6368 58.9103 78.614Z" fill="black"/>
<path d="M25.9867 66.6511C25.8084 66.5864 25.6118 66.5955 25.4403 66.6765C25.2687 66.7575 25.1362 66.9036 25.0718 67.0828C25.0399 67.1716 25.0257 67.2659 25.0301 67.3602C25.0344 67.4544 25.0572 67.5468 25.0971 67.6323C25.137 67.7177 25.1932 67.7945 25.2626 67.8581C25.332 67.9216 25.4132 67.9707 25.5015 68.0028L58.582 80.003C58.7117 80.05 58.8522 80.0585 58.9866 80.0272L107.371 68.7094C107.462 68.6881 107.549 68.6488 107.625 68.5938C107.701 68.5389 107.766 68.4694 107.816 68.3893C107.865 68.3092 107.899 68.2201 107.914 68.127C107.93 68.0339 107.927 67.9386 107.905 67.8466C107.884 67.7547 107.845 67.668 107.79 67.5912C107.736 67.5145 107.666 67.4493 107.587 67.3995C107.507 67.3496 107.418 67.3159 107.326 67.3005C107.233 67.2851 107.138 67.2881 107.047 67.3095L58.8686 78.5791L25.9867 66.6511Z" fill="black"/>
<path d="M25.5323 66.6408C25.4426 66.6688 25.3594 66.7144 25.2872 66.7747C25.215 66.835 25.1553 66.9089 25.1116 66.9924C25.0678 67.0759 25.0409 67.1674 25.0323 67.2614C25.0237 67.3553 25.0336 67.45 25.0614 67.5401C25.0614 67.5401 26.5686 72.4214 28.7136 77.521C29.7861 80.0709 31.0167 82.6771 32.3194 84.7816C33.622 86.8862 34.9378 88.5409 36.5489 89.0651C38.1847 89.5984 40.2982 89.1637 42.671 88.3767C45.0439 87.5896 47.6591 86.3911 50.1046 85.1416C54.9955 82.6429 59.2101 79.9326 59.2101 79.9326C59.3697 79.8299 59.4823 79.6678 59.523 79.4817C59.5637 79.2956 59.5292 79.1008 59.4272 78.9403C59.3766 78.8608 59.311 78.7922 59.234 78.7382C59.157 78.6842 59.0701 78.6458 58.9784 78.6256C58.8867 78.6053 58.792 78.6034 58.6995 78.62C58.6071 78.6365 58.5188 78.6712 58.4397 78.7221C58.4397 78.7221 54.2714 81.401 49.4571 83.8606C47.0499 85.0904 44.4817 86.2632 42.2232 87.0121C39.9647 87.7612 37.999 88.027 36.9898 87.6981C36.0882 87.4047 34.7694 86.0191 33.5338 84.0227C32.2981 82.0263 31.0865 79.4712 30.031 76.9617C27.9198 71.9428 26.4273 67.1142 26.4273 67.1142C26.371 66.9322 26.2452 66.7802 26.0774 66.6915C25.9097 66.6028 25.7137 66.5847 25.5327 66.6412L25.5323 66.6408Z" fill="black"/>
<path d="M25.3208 95.7083C25.2335 95.7432 25.154 95.795 25.0866 95.8608C25.0193 95.9266 24.9656 96.0052 24.9284 96.0918C24.8913 96.1785 24.8715 96.2717 24.8702 96.366C24.8689 96.4604 24.8861 96.554 24.9208 96.6416C24.9555 96.7293 25.0071 96.8093 25.0725 96.8769C25.138 96.9446 25.216 96.9987 25.3023 97.036L58.7996 111.533C58.9737 111.609 59.1704 111.612 59.3466 111.541C59.5228 111.471 59.6639 111.333 59.7389 111.158C59.776 111.071 59.7958 110.978 59.7971 110.883C59.7983 110.789 59.7811 110.695 59.7464 110.608C59.7116 110.52 59.66 110.44 59.5945 110.372C59.5291 110.305 59.4509 110.251 59.3647 110.213L25.8677 95.716C25.6936 95.6408 25.4968 95.6383 25.3208 95.7088V95.7083Z" fill="black"/>
<path d="M36.5554 87.5259C36.3723 87.4766 36.1771 87.5025 36.013 87.5978C34.4438 88.5088 31.772 90.5396 29.4357 92.3711C27.0993 94.2026 25.1325 95.8195 25.1325 95.8195C25.0598 95.8792 24.9995 95.9528 24.9551 96.036C24.9107 96.1191 24.8831 96.2103 24.8737 96.3042C24.8643 96.3981 24.8734 96.4928 24.9005 96.5831C24.9276 96.6735 24.9722 96.7576 25.0316 96.8307C25.091 96.9037 25.1642 96.9643 25.2469 97.0089C25.3297 97.0536 25.4203 97.0814 25.5137 97.0909C25.6071 97.1003 25.7015 97.0911 25.7914 97.0638C25.8813 97.0366 25.9649 96.9918 26.0376 96.9321C26.0376 96.9321 27.9935 95.3242 30.3149 93.5044C32.6364 91.6846 35.3574 89.6377 36.7282 88.842C36.8923 88.7467 37.012 88.5898 37.0611 88.4057C37.1101 88.2217 37.0844 88.0256 36.9896 87.8606C36.9427 87.7789 36.8801 87.7074 36.8056 87.6499C36.7311 87.5925 36.6461 87.5503 36.5554 87.5259Z" fill="black"/>
<path d="M40.7004 87.503C40.5113 87.4897 40.3247 87.5527 40.1817 87.6777C40.0387 87.8028 39.9509 87.9798 39.9378 88.17C39.9246 88.3601 39.9871 88.5476 40.1115 88.6914C40.1115 88.6914 44.197 93.4125 48.5406 98.601C50.7123 101.195 52.9485 103.907 54.7671 106.198C56.5856 108.489 58.008 110.41 58.4573 111.222C58.5494 111.389 58.7036 111.512 58.8859 111.564C59.0682 111.617 59.2637 111.594 59.4294 111.501C59.5951 111.409 59.7174 111.254 59.7693 111.07C59.8213 110.887 59.7987 110.691 59.7066 110.524C59.1175 109.459 57.7167 107.61 55.8847 105.302C54.0528 102.993 51.8109 100.275 49.6345 97.6758C45.2817 92.4761 41.1901 87.7482 41.1901 87.7482C41.0657 87.6044 40.8895 87.5162 40.7004 87.503Z" fill="black"/>
<path d="M76.7249 56.6958C76.6315 56.6854 76.5371 56.6935 76.4469 56.7198C76.3567 56.7461 76.2726 56.7901 76.1993 56.8491C76.126 56.9081 76.065 56.9811 76.0197 57.0639C75.9745 57.1466 75.9459 57.2374 75.9357 57.3312L75.2365 63.6988L67.3426 68.0995L49.3249 64.6918L49.7113 59.6754C49.7259 59.4855 49.6649 59.2973 49.5416 59.1526C49.4184 59.0079 49.243 58.9184 49.054 58.9037C48.8651 58.8889 48.678 58.9501 48.534 59.074C48.39 59.1979 48.3008 59.3742 48.2861 59.5642L47.8498 65.223C47.8362 65.3996 47.8879 65.5749 47.995 65.7155C48.1022 65.8561 48.2572 65.952 48.4303 65.9848L67.3317 69.5598C67.4955 69.5907 67.6649 69.5632 67.8106 69.4819L76.2533 64.7753C76.3532 64.7196 76.4384 64.6406 76.5016 64.545C76.5649 64.4494 76.6045 64.34 76.617 64.2259L77.357 57.4891C77.3674 57.3953 77.3592 57.3003 77.333 57.2096C77.3068 57.119 77.2631 57.0344 77.2044 56.9607C77.1457 56.887 77.0732 56.8258 76.9909 56.7803C76.9086 56.7349 76.8182 56.7061 76.7249 56.6958Z" fill="black"/>
<path d="M76.5326 45.4047L68.0851 48.8313L50.1418 45.9293C49.9546 45.899 49.7631 45.9448 49.6095 46.0564C49.4559 46.1681 49.3526 46.3365 49.3225 46.5247C49.2925 46.7128 49.3379 46.9052 49.4489 47.0596C49.5599 47.214 49.7274 47.3179 49.9145 47.3482L68.0544 50.2818C68.1829 50.3027 68.3147 50.2879 68.4355 50.239L77.0677 46.7377C77.1548 46.7023 77.2341 46.6501 77.301 46.584C77.368 46.5178 77.4214 46.4391 77.458 46.3522C77.4947 46.2654 77.5141 46.172 77.5149 46.0777C77.5157 45.9833 77.498 45.8897 77.4629 45.8022C77.3919 45.6255 77.2541 45.4843 77.0796 45.4098C76.9052 45.3352 76.7084 45.3334 76.5326 45.4047Z" fill="black"/>
<path d="M68.1943 48.8542C68.0048 48.8472 67.8203 48.9161 67.6814 49.0458C67.5425 49.1755 67.4605 49.3554 67.4536 49.5458L66.7495 68.8273C66.7426 69.0177 66.8111 69.2031 66.9402 69.3427C67.0692 69.4823 67.2481 69.5648 67.4375 69.5718C67.6269 69.5789 67.8114 69.5099 67.9503 69.3803C68.0892 69.2506 68.1712 69.0707 68.1782 68.8803L68.8822 49.5988C68.8892 49.4084 68.8207 49.223 68.6917 49.0834C68.5626 48.9437 68.3837 48.8613 68.1943 48.8542Z" fill="black"/>
<path d="M49.7576 45.9737C49.6707 46.0094 49.5917 46.062 49.5251 46.1284C49.4584 46.1949 49.4054 46.2738 49.3691 46.3609C49.3328 46.4479 49.3139 46.5412 49.3135 46.6356C49.3131 46.73 49.3311 46.8235 49.3667 46.9109C49.3667 46.9109 50.4503 49.5771 51.9232 52.3353C52.6596 53.7145 53.4921 55.1188 54.36 56.2497C55.2278 57.3805 56.087 58.2958 57.1981 58.5272C58.6647 58.8328 60.1314 58.3658 61.4664 57.5879C62.8015 56.81 64.0395 55.7054 65.1144 54.5795C67.2644 52.328 68.7701 49.9599 68.7701 49.9599C68.8723 49.7995 68.907 49.6047 68.8664 49.4185C68.8258 49.2324 68.7133 49.0701 68.5537 48.9673C68.394 48.8646 68.2003 48.8297 68.0151 48.8705C67.8299 48.9113 67.6685 49.0244 67.5662 49.1849C67.5662 49.1849 66.1168 51.4545 64.083 53.5844C63.066 54.6494 61.9048 55.6716 60.7495 56.3448C59.5941 57.0181 58.479 57.3262 57.4882 57.1198C57.0892 57.0367 56.2792 56.3972 55.4923 55.3718C54.7054 54.3465 53.8977 52.9938 53.1829 51.6554C51.7535 48.9784 50.69 46.3667 50.69 46.3667C50.6544 46.2793 50.6021 46.1998 50.536 46.1328C50.4699 46.0658 50.3914 46.0126 50.3048 45.9761C50.2182 45.9396 50.1253 45.9206 50.0315 45.9202C49.9376 45.9198 49.8445 45.9379 49.7576 45.9737Z" fill="black"/>
<path d="M56.63 56.7821C56.5361 56.7791 56.4426 56.7946 56.3547 56.8279C56.2669 56.8612 56.1864 56.9116 56.1179 56.9761C54.6429 58.3655 48.0655 64.7627 48.0655 64.7627C47.9292 64.8952 47.8509 65.0767 47.8478 65.2673C47.8446 65.4578 47.9169 65.6418 48.0487 65.7788C48.114 65.8466 48.192 65.9008 48.2781 65.9383C48.3643 65.9758 48.457 65.9959 48.5508 65.9974C48.6447 65.9989 48.7379 65.9818 48.8252 65.9471C48.9125 65.9123 48.9922 65.8606 49.0596 65.795C49.0596 65.795 55.6718 59.3654 57.0956 58.0242C57.2338 57.8939 57.3149 57.7137 57.3211 57.5233C57.3272 57.3329 57.2579 57.1478 57.1284 57.0088C57.0642 56.9399 56.9872 56.8844 56.9016 56.8454C56.8161 56.8065 56.7238 56.7848 56.6299 56.7818L56.63 56.7821Z" fill="black"/>
<path d="M58.991 57.1352C58.8047 57.0999 58.6121 57.1405 58.4555 57.2479C58.3779 57.3011 58.3116 57.3692 58.2602 57.4482C58.2088 57.5272 58.1733 57.6156 58.1559 57.7084C58.1385 57.8012 58.1395 57.8964 58.1587 57.9887C58.178 58.0811 58.2151 58.1689 58.2681 58.2468C58.2681 58.2468 59.9815 60.7696 61.9206 63.4166C62.8902 64.74 63.9159 66.0947 64.8213 67.1905C65.274 67.7385 65.6959 68.2214 66.074 68.6098C66.4522 68.9982 66.7586 69.2899 67.1268 69.4877C67.2096 69.5322 67.3004 69.5599 67.3938 69.5691C67.4873 69.5783 67.5817 69.569 67.6715 69.5416C67.7614 69.5141 67.845 69.4692 67.9175 69.4093C67.9901 69.3493 68.0502 69.2756 68.0944 69.1923C68.1837 69.0242 68.2029 68.8272 68.1477 68.6449C68.0926 68.4626 67.9677 68.3098 67.8005 68.22C67.7255 68.1798 67.431 67.9486 67.0961 67.6046C66.7612 67.2605 66.3583 66.8014 65.9212 66.2723C65.0469 65.2142 64.0319 63.8753 63.0718 62.5646C61.1515 59.9434 59.4489 57.4363 59.4489 57.4363C59.396 57.3583 59.3283 57.2916 59.2498 57.24C59.1712 57.1883 59.0832 57.1527 58.991 57.1352Z" fill="black"/>
<path d="M133.845 122.59C133.752 122.58 133.657 122.589 133.567 122.616C133.477 122.643 133.394 122.688 133.321 122.747C133.248 122.807 133.187 122.88 133.143 122.963C133.098 123.046 133.07 123.137 133.061 123.231C133.051 123.325 133.06 123.42 133.087 123.51C133.114 123.601 133.158 123.685 133.217 123.758C133.277 123.831 133.35 123.892 133.432 123.937C133.515 123.982 133.605 124.01 133.699 124.02L135.672 124.223L135.733 133.634H1.435L1.49783 124.891C1.49921 124.7 1.42523 124.517 1.29214 124.381C1.15906 124.245 0.977779 124.168 0.788192 124.167C0.598616 124.166 0.416251 124.24 0.281207 124.374C0.146164 124.507 0.0695025 124.69 0.0680858 124.88L1.95802e-05 134.348C-0.000678379 134.443 0.0172897 134.536 0.0529018 134.624C0.0885139 134.712 0.141062 134.792 0.207512 134.859C0.273963 134.927 0.352993 134.98 0.440072 135.016C0.527151 135.053 0.620561 135.072 0.714889 135.072H136.453C136.547 135.072 136.641 135.053 136.728 135.017C136.815 134.98 136.894 134.927 136.96 134.859C137.027 134.792 137.079 134.712 137.115 134.625C137.15 134.537 137.168 134.443 137.168 134.348L137.098 123.569C137.097 123.392 137.031 123.222 136.912 123.091C136.794 122.96 136.631 122.877 136.456 122.859L133.845 122.59Z" fill="black"/>
</g>
<defs>
<clipPath id="clip0_230_2128">
<rect width="200" height="138" fill="white"/>
</clipPath>
</defs>
</svg>
