<svg width="24" height="24" viewBox="0 0 24 24" fill="none" xmlns="http://www.w3.org/2000/svg">
<path d="M12.7174 15.5491C12.7088 15.3533 12.5508 15.1937 12.3548 15.1937C12.1589 15.1937 11.9992 15.3532 12.0072 15.549C12.1147 18.1658 13.4229 20.0156 15.8115 20.9291C15.9944 20.9991 16.1961 20.8979 16.258 20.7121C16.32 20.5262 16.2185 20.326 16.0357 20.2553C13.9342 19.4423 12.8196 17.8615 12.7174 15.5491Z" fill="black"/>
<path d="M8.23631 10.8304C8.2643 10.6365 8.13713 10.4517 7.94441 10.4164C7.75165 10.3812 7.56631 10.5087 7.53785 10.7026C7.43785 11.3837 7.38708 12.1763 7.38708 13.0646C7.38708 14.062 7.55163 14.9595 7.87667 15.7383C7.95218 15.9192 8.16634 15.9904 8.34187 15.9031C8.51733 15.8158 8.58762 15.6032 8.5139 15.4217C8.23701 14.7398 8.09676 13.9487 8.09676 13.0646C8.09676 12.2209 8.14377 11.4714 8.23631 10.8304Z" fill="black"/>
<path d="M21.3844 16.2208C22.4865 15.6694 23 14.5538 23 12.7097C23 10.0623 20.5353 8.85864 19.7798 8.55171C19.7263 8.26926 19.5868 7.99816 19.3842 7.74197H19.8065C21.1761 7.74197 22.2903 6.62777 22.2903 5.25809V4.90326H20.5161C19.3799 4.90326 18.4254 5.65871 18.1295 6.70406C17.1562 6.12284 15.9706 5.72932 15.1747 5.63529C15.0335 4.25887 14.0694 3.27703 14.0251 3.23268L13.9211 3.12906H12L12.0007 4.38271L12.1568 4.48809C12.1661 4.49448 13.0645 5.11084 13.0645 5.96777C13.0645 6.16755 12.9144 6.35206 12.6951 6.54226C12.6224 5.91384 12.0646 5.44119 11.5174 4.98558C11.0568 4.60164 10.5806 4.20493 10.5806 3.83874C10.5806 2.29022 9.46006 1.15155 9.41216 1.104L9.30819 1.00003H7.3871L7.38781 2.25368L7.54394 2.35906C7.55068 2.36368 8.05242 2.70822 8.30684 3.23906C7.5631 3.40442 6.65081 3.75322 5.873 4.22303C5.57813 3.17626 4.6229 2.41939 3.48565 2.41939H1.71145V2.77422C1.71145 4.1439 2.82565 5.25809 4.19532 5.25809H4.62929C4.42348 5.51535 4.28013 5.7861 4.22442 6.06606C3.47323 6.37051 1 7.57413 1 10.2258C1 12.0699 1.51345 13.1855 2.61558 13.737L3.12903 13.9935V13.4194C3.12903 12.3499 3.55342 11.405 3.84758 10.8787L4.49339 11.8471L4.79926 11.5409C4.84716 11.4937 5.96774 10.355 5.96774 8.80648C5.96774 7.30339 5.26658 6.48406 4.92594 6.17429C5.1211 5.2659 7.03474 4.25035 8.43636 3.93632C8.36326 4.27484 7.93461 4.63535 7.51448 4.98558C6.92864 5.47384 6.32258 5.97913 6.32258 6.67745V8.23413L6.78955 8.07871C6.80197 8.07445 6.82219 8.06771 6.84384 8.0599C6.357 9.02613 5.96774 10.5211 5.96774 13.0645C5.96774 18.6181 10.1559 20.2089 12.7274 20.662C14.9892 22.7634 18.4126 23 19.8065 23H20.6737C21.174 23 21.5806 22.5934 21.5806 22.0743C21.5806 21.6424 21.2744 21.2755 20.8362 21.1822C19.276 20.8508 16.9677 18.6054 16.9677 14.8387C16.9677 11.9386 16.8006 11.0505 16.5817 10.1066C16.714 10.1591 16.8137 10.1939 16.8553 10.2077L17.3226 10.3632V8.80648C17.3226 7.86758 16.5895 7.32219 16.0005 6.88397C15.7638 6.70797 15.5473 6.54509 15.3972 6.38187C16.7942 6.64268 18.8665 7.72813 19.0734 8.65887C18.7327 8.96864 18.0323 9.78761 18.0323 11.2904C18.0323 12.8389 19.1528 13.9775 19.2007 14.0251L19.5066 14.3313L20.1531 13.3619C20.4473 13.886 20.871 14.8288 20.871 15.9033V16.4774L21.3844 16.2208ZM20.5161 5.61293H21.5448C21.3802 6.42161 20.663 7.03229 19.8065 7.03229H18.7771C18.9406 6.21687 19.6567 5.61293 20.5161 5.61293ZM2.45661 3.12906H3.48529C4.34471 3.12906 5.06077 3.733 5.22435 4.54842H4.19497C3.33839 4.54842 2.62161 3.93774 2.45661 3.12906ZM5.25806 8.80648C5.25806 9.61232 4.86206 10.3039 4.57855 10.696L3.85574 9.61161L3.55484 10.0129C3.51368 10.0676 2.661 11.2215 2.46087 12.7775C2.05423 12.3904 1.70968 11.6832 1.70968 10.2258C1.70968 8.05139 3.84439 6.99538 4.48274 6.72855C4.73397 6.96771 5.25806 7.60997 5.25806 8.80648ZM7.03226 6.67745C7.03226 6.31126 7.50845 5.91455 7.96903 5.53061C8.55523 5.04235 9.16129 4.53706 9.16129 3.83874C9.16129 2.85832 8.42855 2.15539 8.09677 1.88748V1.70971H9.00445C9.2461 1.9918 9.87097 2.81929 9.87097 3.83874C9.87097 4.53706 10.477 5.04235 11.0632 5.53061C11.5238 5.91455 12 6.31126 12 6.67745V7.07913C11.9635 7.10751 11.9269 7.13732 11.8904 7.16677C11.0756 6.78497 10.5806 6.33858 10.5806 5.96777H9.87097C9.87097 6.186 9.93484 6.38826 10.0392 6.57526C9.82945 7.16003 9.61123 7.38713 9.51613 7.38713C9.42103 7.38713 9.20281 7.15968 8.99274 6.57384C9.09635 6.38755 9.16129 6.186 9.16129 5.96777H8.45161C8.45161 6.44609 7.66706 6.93293 7.03226 7.21964V6.67745ZM6.67742 13.0645C6.67742 9.51829 7.4421 8.18906 8.12055 7.43751C8.24226 7.35803 8.36184 7.27251 8.47397 7.17884C8.75571 7.78526 9.10416 8.0968 9.51613 8.0968C9.92845 8.0968 10.2776 7.78455 10.559 7.17635C10.8017 7.37861 11.0803 7.55035 11.3506 7.69158C11.1079 7.99355 10.9355 8.35371 10.9355 8.80648V10.3632L11.4025 10.2077C11.4149 10.2035 11.4351 10.1967 11.4567 10.1889C10.9699 11.1552 10.5806 12.6501 10.5806 15.1936C10.5806 17.1746 11.1111 18.6536 11.923 19.7604C9.33339 19.0812 6.67742 17.3432 6.67742 13.0645ZM15.8475 10.0839C16.0771 11.0611 16.2581 11.8333 16.2581 14.8387C16.2581 19.0436 18.8487 21.4856 20.6886 21.8763C20.7794 21.8958 20.871 21.9646 20.871 22.0931C20.871 22.2016 20.7823 22.2904 20.6737 22.2904H19.8065C17.2459 22.2904 11.2903 21.5988 11.2903 15.1936C11.2903 11.6473 12.055 10.3181 12.7335 9.56655C12.8552 9.48706 12.9747 9.40155 13.0869 9.30787C13.3686 9.91429 13.7171 10.2258 14.129 10.2258C14.541 10.2258 14.8895 9.91429 15.1712 9.30787C15.3561 9.46222 15.5608 9.59706 15.7624 9.71345C15.7911 9.84155 15.8198 9.96539 15.8475 10.0839ZM15.5771 7.45348C16.1097 7.84984 16.6129 8.22419 16.6129 8.80648V9.34868C15.9781 9.06197 15.1935 8.57513 15.1935 8.0968H14.4839C14.4839 8.31503 14.5488 8.51658 14.6524 8.70287C14.4424 9.28871 14.2245 9.51616 14.129 9.51616C14.0339 9.51616 13.8157 9.28871 13.6056 8.70287C13.7093 8.51658 13.7742 8.31503 13.7742 8.0968H13.0645C13.0645 8.57513 12.28 9.06197 11.6452 9.34868V8.80648C11.6452 8.22419 12.1483 7.84984 12.6809 7.45348C13.2185 7.05358 13.7742 6.64019 13.7742 5.96777C13.7742 4.98735 13.0415 4.28442 12.7097 4.01651V3.83874H13.6174C13.859 4.12084 14.4839 4.94832 14.4839 5.96777C14.4839 6.64019 15.0395 7.05358 15.5771 7.45348ZM20.4452 12.4968L20.1443 12.0955L19.4207 13.1809C19.1372 12.791 18.7419 12.1012 18.7419 11.2904C18.7419 10.0942 19.2646 9.45264 19.518 9.21206C20.1567 9.47748 22.2903 10.5274 22.2903 12.7097C22.2903 14.167 21.9458 14.8742 21.5388 15.2614C21.339 13.7054 20.4863 12.5514 20.4452 12.4968Z" fill="black"/>
</svg>
