<svg width="22" height="20" viewBox="0 0 22 20" fill="none" xmlns="http://www.w3.org/2000/svg">
<path d="M10.8097 1.59021C10.8693 1.40539 11.1307 1.40539 11.1903 1.59021L13.1888 7.7868C13.2155 7.86957 13.2926 7.92561 13.3796 7.92542L19.8904 7.91119C20.0846 7.91076 20.1654 8.15945 20.0081 8.27325L14.7323 12.0887C14.6618 12.1397 14.6324 12.2303 14.6594 12.313L16.6849 18.5008C16.7453 18.6854 16.5338 18.839 16.3769 18.7246L11.1179 14.8861C11.0477 14.8348 10.9523 14.8348 10.8821 14.8861L5.62306 18.7246C5.4662 18.839 5.25466 18.6854 5.31507 18.5008L7.34057 12.313C7.36763 12.2303 7.33817 12.1397 7.2677 12.0887L1.99194 8.27325C1.83459 8.15945 1.91539 7.91076 2.10958 7.91119L8.62044 7.92542C8.70741 7.92561 8.78453 7.86957 8.81122 7.7868L10.8097 1.59021Z" stroke="black" stroke-width="2"/>
</svg>
