<?xml version="1.0" encoding="iso-8859-1"?>
<!-- Uploaded to: SVG Repo, www.svgrepo.com, Generator: SVG Repo Mixer Tools -->
<!DOCTYPE svg PUBLIC "-//W3C//DTD SVG 1.1//EN" "http://www.w3.org/Graphics/SVG/1.1/DTD/svg11.dtd">
<svg fill="#000000" height="20px" width="20px" version="1.1" id="Capa_1" xmlns="http://www.w3.org/2000/svg" xmlns:xlink="http://www.w3.org/1999/xlink" 
	 viewBox="0 0 56.847 56.847" xml:space="preserve">
<path d="M48.697,47.838c8.345-8.097,10.55-20.735,5.362-30.734c-0.365-0.705-0.467-1.436-0.286-2.057
	c0.108-0.371,0.313-0.852,0.673-1.031l0.929-0.464l-0.499-0.911c-0.321-0.587-1.243-1.625-2.658-1.793
	c-0.744-0.087-1.513,0.072-2.302,0.464C44.155,5.19,35.769,2.138,27.192,3.406c-0.025-0.042-0.055-0.073-0.081-0.114
	c-0.087-0.138-0.181-0.264-0.276-0.389c-0.118-0.156-0.239-0.3-0.364-0.432C26.404,2.4,26.35,2.31,26.28,2.244
	c-0.614-0.578-1.287-0.888-1.898-1.039c-0.036-0.009-0.069-0.013-0.104-0.021c-0.129-0.028-0.256-0.052-0.377-0.067
	c-0.074-0.009-0.143-0.015-0.214-0.02c-0.084-0.006-0.164-0.009-0.243-0.01c-0.064,0-0.126-0.002-0.187,0.001
	c-0.131,0.006-0.254,0.017-0.36,0.034c-0.196,0.007-0.385,0.039-0.569,0.085c-0.094,0.023-0.182,0.058-0.271,0.09
	c-0.084,0.031-0.168,0.063-0.248,0.103c-0.098,0.048-0.194,0.101-0.286,0.162c-0.069,0.045-0.134,0.096-0.2,0.147
	c-0.087,0.068-0.174,0.135-0.255,0.215c-0.009,0.009-0.02,0.015-0.028,0.024c-0.051,0.052-0.092,0.115-0.14,0.17
	c-0.139,0.162-0.268,0.341-0.387,0.541c-0.057,0.097-0.119,0.19-0.17,0.292c-0.057,0.113-0.105,0.238-0.156,0.361
	C20.143,3.417,20.1,3.52,20.063,3.626c-0.043,0.122-0.084,0.247-0.122,0.378c-0.057,0.196-0.106,0.391-0.147,0.583
	c-0.018,0.087-0.036,0.175-0.053,0.265c-0.059,0.319-0.103,0.625-0.131,0.898c-2.508,1.223-4.774,2.837-6.741,4.76
	c-0.6,0.53-1.173,1.095-1.726,1.682c-0.061,0.065-0.12,0.13-0.181,0.195c-0.347,0.375-0.683,0.761-1.009,1.158
	c-0.072,0.088-0.155,0.171-0.226,0.259c-0.499-0.058-0.97-0.097-1.419-0.121c-0.01,0-0.02-0.002-0.03-0.002
	c-0.43-0.023-0.835-0.03-1.222-0.024c-0.029,0-0.06,0-0.089,0c-0.369,0.007-0.717,0.027-1.048,0.057
	c-0.038,0.003-0.078,0.006-0.116,0.01c-0.318,0.031-0.617,0.073-0.9,0.123c-0.042,0.007-0.085,0.014-0.126,0.022
	c-0.273,0.052-0.53,0.111-0.773,0.179c-0.042,0.012-0.084,0.023-0.125,0.035c-0.233,0.068-0.453,0.143-0.659,0.223
	c-0.041,0.016-0.08,0.032-0.12,0.048c-0.197,0.081-0.383,0.167-0.556,0.257c-0.038,0.02-0.075,0.04-0.112,0.061
	c-0.165,0.091-0.32,0.184-0.463,0.282c-0.035,0.024-0.068,0.048-0.102,0.072c-0.135,0.097-0.264,0.195-0.38,0.297
	c-0.032,0.028-0.061,0.056-0.092,0.084c-0.109,0.1-0.212,0.199-0.305,0.301c-0.029,0.032-0.055,0.064-0.083,0.096
	c-0.084,0.098-0.166,0.195-0.236,0.293c-0.027,0.037-0.05,0.073-0.075,0.11c-0.063,0.092-0.124,0.184-0.176,0.274
	c-0.025,0.042-0.044,0.082-0.066,0.124c-0.044,0.082-0.088,0.164-0.124,0.243c-0.023,0.05-0.04,0.097-0.06,0.145
	c-0.027,0.067-0.057,0.134-0.079,0.197c-0.022,0.061-0.037,0.116-0.054,0.172c-0.013,0.044-0.03,0.091-0.04,0.132
	c-0.025,0.095-0.044,0.182-0.059,0.258c-0.043,0.23-0.05,0.471-0.021,0.715c0.324,2.699,2.205,4.118,3.296,4.724
	c0.127,0.07,0.157,0.229,0.131,0.355c-2.282,10.973,2.659,21.986,12.59,28.06c0.568,0.347,1.143,0.673,1.723,0.976
	c4.064,2.125,8.414,3.178,12.698,3.178h0h0c2.874,0,5.719-0.474,8.427-1.418c2.708-0.943,5.28-2.356,7.61-4.233
	c0.007-0.006,0.013-0.015,0.02-0.021c0.144-0.119,0.273-0.253,0.382-0.401c0.354-0.291,1.282-1.086,1.779-1.827L48.697,47.838
	C48.696,47.839,48.696,47.839,48.697,47.838L48.697,47.838L48.697,47.838z M51.965,12.832c0.235,0.025,0.437,0.108,0.601,0.212
	c-0.306,0.391-0.547,0.875-0.712,1.443c-0.326,1.117-0.173,2.374,0.43,3.537c4.175,8.048,3.147,17.959-2.31,25.328
	c0.097-0.328,0.169-0.635,0.251-0.95c0.061-0.233,0.133-0.476,0.186-0.702c0.072-0.307,0.122-0.593,0.18-0.887
	c0.044-0.224,0.099-0.458,0.136-0.674c0.047-0.279,0.076-0.538,0.112-0.805c0.028-0.211,0.066-0.433,0.087-0.637
	c0.028-0.27,0.039-0.521,0.056-0.778c0.012-0.181,0.032-0.372,0.038-0.547c0.009-0.26,0.004-0.501,0.002-0.747
	c-0.001-0.154,0.006-0.318,0.001-0.466c-0.008-0.235-0.029-0.451-0.046-0.672c-0.011-0.143-0.016-0.295-0.03-0.432
	c-0.022-0.21-0.055-0.401-0.084-0.598c-0.02-0.131-0.034-0.272-0.057-0.398c-0.036-0.198-0.08-0.378-0.121-0.563
	c-0.025-0.108-0.045-0.225-0.071-0.329c-0.047-0.186-0.101-0.353-0.154-0.525c-0.027-0.087-0.05-0.182-0.078-0.266
	c-0.057-0.171-0.118-0.324-0.179-0.48c-0.027-0.069-0.052-0.146-0.079-0.211c-0.06-0.144-0.121-0.27-0.182-0.399
	c-0.03-0.064-0.06-0.136-0.09-0.196c-0.06-0.12-0.119-0.224-0.179-0.331c-0.031-0.055-0.062-0.119-0.092-0.17
	c-0.045-0.077-0.087-0.139-0.131-0.208c-0.043-0.068-0.087-0.143-0.128-0.203c-0.008-0.012-0.015-0.02-0.023-0.032
	c-0.236-0.345-0.436-0.571-0.542-0.681c-6.806-9.105-0.416-14.34-0.143-14.557l0.125-0.116c0.254-0.28,0.502-0.526,0.75-0.748
	c0.016-0.015,0.032-0.03,0.048-0.045c0.252-0.223,0.503-0.42,0.756-0.59l0.228-0.153C51.06,12.937,51.55,12.789,51.965,12.832z
	 M48.263,12.457c-0.019,0.016-0.038,0.039-0.057,0.056c-0.299,0.268-0.599,0.556-0.902,0.887c-0.445,0.383-2.604,2.379-3.384,5.691
	c-0.015,0.065-0.027,0.133-0.041,0.199c-0.028,0.132-0.058,0.263-0.082,0.399c-0.052,0.298-0.088,0.608-0.115,0.925
	c-0.015,0.173-0.026,0.349-0.033,0.528c-0.012,0.329-0.008,0.668,0.011,1.016c0.004,0.064,0.003,0.125,0.008,0.189
	c0.031,0.426,0.092,0.868,0.178,1.321c0.01,0.055,0.017,0.107,0.028,0.163c0.026,0.13,0.062,0.264,0.093,0.397
	c0.03,0.127,0.055,0.253,0.09,0.382c0.495,1.846,1.471,3.891,3.143,6.115l0.111,0.124c0.033,0.032,3.299,3.341,0.718,12.032
	c0,0,0.612-5.599-1.33-8.809c-2.558-4.226-7.364-4.913-7.656-4.948c-0.058-0.003-5.84-0.301-9.088-4.269
	c-1.931-2.36-2.593-5.582-1.968-9.578c0.666-4.253,0.656-7.572-0.008-9.951C35.626,4.356,43.06,7.07,48.263,12.457z M39.293,44.784
	c-0.454-0.294-0.848-0.641-1.183-1.04c-0.384-0.459-0.669-0.964-0.878-1.482c-0.905-2.243-0.385-4.725-0.379-4.754l0.024-0.209
	c0,0,0-0.001,0-0.001v0c0.02-2.425-0.613-4.232-1.881-5.371c-0.005-0.005-0.011-0.007-0.016-0.012
	c-0.224-0.2-0.464-0.366-0.709-0.516c-0.052-0.032-0.104-0.065-0.157-0.095c-0.248-0.139-0.503-0.259-0.766-0.356
	c-0.046-0.017-0.092-0.03-0.138-0.046c-0.251-0.086-0.507-0.158-0.767-0.213c-0.034-0.007-0.068-0.017-0.102-0.024
	c-0.282-0.056-0.567-0.093-0.854-0.119c-0.06-0.005-0.119-0.01-0.179-0.015c-0.274-0.02-0.549-0.033-0.822-0.033
	c-0.008,0-0.016,0.001-0.024,0.001c-0.447,0.001-0.885,0.027-1.315,0.062c-0.115,0.009-0.222,0.018-0.335,0.029
	c-0.391,0.037-0.773,0.078-1.129,0.119c-0.451,0.052-0.866,0.101-1.227,0.123c-0.075,0.005-0.149,0.013-0.224,0.021
	c-0.048,0.005-0.096,0.014-0.112,0.017c-3.306-0.688-4.079-3.365-4.232-4.115c-0.022-0.107-0.031-0.175-0.033-0.192l-0.021-0.12
	c-0.144-0.599-0.308-1.164-0.483-1.708c-0.057-0.178-0.121-0.342-0.181-0.514c-0.125-0.357-0.252-0.707-0.389-1.04
	c-0.076-0.186-0.156-0.362-0.235-0.541c-0.133-0.299-0.27-0.59-0.411-0.869c-0.086-0.169-0.172-0.335-0.261-0.497
	c-0.149-0.272-0.301-0.532-0.457-0.784c-0.087-0.141-0.172-0.284-0.261-0.419c-0.178-0.272-0.361-0.527-0.546-0.776
	c-0.07-0.094-0.138-0.195-0.208-0.286c-0.258-0.332-0.519-0.646-0.784-0.937c-0.035-0.038-0.069-0.07-0.104-0.107
	c-0.231-0.249-0.462-0.485-0.694-0.705c-0.089-0.084-0.177-0.16-0.266-0.24c-0.179-0.162-0.358-0.319-0.535-0.465
	c-0.098-0.08-0.194-0.155-0.29-0.23c-0.169-0.131-0.336-0.256-0.501-0.374c-0.094-0.067-0.187-0.133-0.28-0.195
	c-0.169-0.114-0.334-0.22-0.498-0.32c-0.081-0.05-0.162-0.102-0.241-0.148c-0.189-0.111-0.37-0.211-0.548-0.304
	c-0.046-0.024-0.094-0.052-0.139-0.075c-0.223-0.114-0.435-0.215-0.634-0.304c-0.039-0.017-0.071-0.03-0.109-0.046
	c-0.158-0.069-0.308-0.131-0.448-0.185c-0.057-0.022-0.105-0.039-0.159-0.059c-0.06-0.022-0.125-0.048-0.181-0.067
	c0.108-0.122,0.2-0.249,0.311-0.37c0.03-0.033,0.06-0.065,0.091-0.098c0.484-0.521,0.997-1.034,1.547-1.538
	c0.065-0.066,0.137-0.122,0.203-0.187c2.017-1.792,4.307-3.233,6.782-4.237l0.629-0.257L21.55,6.882
	c-0.001-0.093,0.003-0.2,0.007-0.306l0.006-0.118c0.033-0.612,0.143-1.432,0.364-2.107c0.007-0.02,0.014-0.039,0.021-0.059
	c0.046-0.134,0.098-0.26,0.153-0.378c0.018-0.038,0.036-0.074,0.055-0.11c0.053-0.101,0.11-0.191,0.171-0.273
	c0.021-0.029,0.043-0.059,0.065-0.085c0.077-0.09,0.16-0.166,0.25-0.22c0.006-0.004,0.012-0.01,0.018-0.013
	C22.765,3.154,22.878,3.121,23,3.121l0.199-0.02c0.001,0,0.006-0.001,0.007-0.001c0.016-0.003,0.048-0.007,0.082-0.01
	c0.014-0.001,0.029-0.002,0.046-0.003c0.035-0.002,0.081-0.001,0.126-0.001c0.03,0,0.056,0,0.089,0.002
	c0.073,0.005,0.157,0.015,0.246,0.032c0.031,0.006,0.067,0.017,0.1,0.025c0.075,0.018,0.153,0.041,0.234,0.072
	c0.029,0.01,0.058,0.023,0.087,0.035c0.485,0.208,1.052,0.664,1.498,1.642c0.687,1.513,1.18,4.434,0.298,10.073
	c-0.717,4.581,0.089,8.334,2.396,11.153c3.808,4.652,10.274,4.988,10.459,4.992c0.04,0.005,4.054,0.578,6.122,3.994
	c1.6,2.644,1.644,6.298,0.131,10.87c-0.056-0.002-0.111-0.002-0.167,0.001C42.546,46.064,40.654,45.664,39.293,44.784z
	 M17.079,49.898C9.757,45.42,2.845,36.253,5.403,23.953c0.211-1.014-0.238-2.023-1.119-2.513c-0.926-0.513-2.074-1.487-2.281-3.214
	c-0.005-0.041-0.004-0.078,0.001-0.107c0.006-0.03,0.013-0.065,0.024-0.106c0.009-0.035,0.022-0.075,0.036-0.117
	c0.002-0.007,0.003-0.012,0.006-0.018c0.243-0.698,1.228-2.23,5.166-2.23c0.759,0,1.627,0.057,2.621,0.188l0.452,0.063l0-0.001
	c0.042,0.005,0.087,0.012,0.13,0.018c0.106,0.016,0.205,0.028,0.314,0.046c0.704,0.165,6.933,1.867,9.126,10.895
	c0.028,0.216,0.076,0.458,0.146,0.718c0.492,1.819,2.081,4.505,5.687,5.255c0.017,0.003,0.03,0.001,0.047,0.004
	c0.279,0.05,0.524,0.029,0.703,0.008l0.121-0.013c0.392-0.024,0.844-0.076,1.334-0.133c0.693-0.081,1.481-0.172,2.269-0.191
	c1.313-0.031,2.622,0.142,3.476,0.909c0.808,0.726,1.218,1.995,1.218,3.773c-0.099,0.517-0.434,2.618,0.171,4.846
	c0.275,1.013,0.744,2.052,1.517,2.981c0.439,0.527,0.946,0.984,1.519,1.371c1.72,1.162,4.043,1.694,6.943,1.59
	c0.051-0.001,0.113,0.013,0.158,0.035l0.032,0.021c0.105,0.075,0.136,0.181,0.14,0.24c0.005,0.065-0.005,0.188-0.12,0.28
	C37.279,54.962,26.225,55.493,17.079,49.898z"/>
</svg>