<svg width="24" height="21" viewBox="0 0 24 21" fill="none" xmlns="http://www.w3.org/2000/svg">
<path fill-rule="evenodd" clip-rule="evenodd" d="M18.8967 15.9449C19.8967 15.4449 21.1513 14.0969 21.5974 12.8915C22.049 11.6709 22.1873 10.2552 21.9536 9.22529C21.58 7.04453 20.1568 5.48634 18.6492 4.75221C17.8877 4.3814 17.0651 4.20008 16.2923 4.27868C15.5172 4.35751 14.7431 4.70721 14.1872 5.45348C13.8287 5.93479 13.3831 6.01008 12.7928 5.84044C12.4989 5.75599 12.2116 5.61903 11.9454 5.47965C11.8969 5.45426 11.828 5.41742 11.7602 5.38118C11.6885 5.34283 11.618 5.30512 11.5744 5.28246C11.4875 5.23728 11.3826 5.18443 11.2791 5.14578C8.94057 3.84681 6.86449 4.14373 5.24469 5.06446C3.66432 5.96277 2.56181 7.42807 2.06386 8.4388C2.03991 8.48499 2.01943 8.53417 2.003 8.58598L2.00127 8.59148L2 8.59557C1.48227 10.2672 1.79432 11.8944 2.62042 13.2545C3.4419 14.607 4.78749 15.7338 6.4408 16.5C9.73328 18.0258 14.2519 18.4642 18.8967 15.9449ZM16.2827 5.82931C15.7719 5.88126 15.4083 6.09278 15.1809 6.39817C14.2861 7.5995 13.1575 7.58571 12.3481 7.35307C11.9421 7.23638 11.5732 7.05626 11.2887 6.90727C11.1991 6.86037 11.1389 6.82798 11.0842 6.79851C11.0317 6.77025 10.9842 6.74468 10.9205 6.71155C10.8705 6.68554 10.8305 6.66564 10.7981 6.65079C10.7822 6.6435 10.7698 6.6382 10.7604 6.63446L10.75 6.6305C10.7299 6.62436 10.7099 6.61704 10.6902 6.60851C10.6678 6.59885 10.6461 6.58783 10.6253 6.57554C8.63476 5.4585 6.98654 5.74398 5.74923 6.44729C4.50647 7.15371 3.63229 8.31024 3.25267 9.05516C2.94287 10.1217 3.11624 11.2307 3.75617 12.2843C4.41514 13.3692 5.55173 14.3546 7.04814 15.048C10.0346 16.432 14.317 16.5883 18.6095 14.2365C18.6289 14.2254 18.6489 14.2153 18.6693 14.2061C18.7132 14.1864 18.7575 14.1719 18.8017 14.1625C19.3967 13.9449 20.0052 13.354 20.3574 12.4023C20.7131 11.4411 20.7874 10.3787 20.6364 9.73483C20.6324 9.71775 20.6289 9.70044 20.626 9.68296C20.3534 8.05284 19.2611 6.79813 18.0222 6.19482C17.4074 5.89548 16.7958 5.77712 16.2827 5.82931Z" fill="black"/>
<path d="M3 13C3 14.3612 3.1836 16.6022 3.4555 17.0802C4.46456 18.8541 6.89358 20.3216 12.0001 19.9388C17.3285 19.5393 20.5 18.353 20.9141 16.6719V13" stroke="black" stroke-width="1.5" stroke-linecap="round" stroke-linejoin="round"/>
<line x1="6.71151" y1="4.76283" x2="10.7115" y2="16.7628" stroke="black" stroke-width="1.5"/>
<line x1="10.7115" y1="5.76283" x2="14.19" y2="16.1983" stroke="black" stroke-width="1.5"/>
<line x1="14.7115" y1="5.76283" x2="17.8738" y2="15.2497" stroke="black" stroke-width="1.5"/>
</svg>
