<svg width="14" height="22" viewBox="0 0 14 22" fill="none" xmlns="http://www.w3.org/2000/svg">
<path d="M11.078 7.59508L10.8434 7.6805L10.8594 7.92964C10.9375 9.14679 11.3265 10.6478 11.8214 12.1803C12.2919 13.6374 12.8661 15.1467 13.3808 16.4991C13.409 16.5735 13.4372 16.6474 13.4651 16.7208C14.2226 18.7137 12.7478 20.8528 10.6152 20.8528H3.38467C1.25269 20.8528 -0.222894 18.7142 0.534811 16.7208C0.568564 16.632 0.602692 16.5423 0.637141 16.4518C1.13529 15.1431 1.70054 13.658 2.16783 12.214C2.66587 10.675 3.06178 9.1559 3.14049 7.92964L3.15648 7.6805L2.9219 7.59507C2.36161 7.39103 1.96165 6.85309 1.96165 6.22522C1.96165 5.56227 2.40788 4.99996 3.01715 4.82484L3.34495 4.73062L3.24323 4.40507C2.99307 3.60445 3.27949 2.81102 3.96796 2.19246C4.66053 1.57022 5.74531 1.14716 6.99992 1.14716C8.25434 1.14716 9.33919 1.57014 10.0319 2.19236C10.7204 2.81088 11.0069 3.6043 10.7567 4.40505L10.6549 4.7306L10.9827 4.82484C11.592 4.99999 12.0382 5.56227 12.0382 6.22522C12.0382 6.85309 11.6382 7.39104 11.078 7.59508ZM10.3353 7.99335L10.3144 7.68242H10.0028H3.99716H3.68552L3.66458 7.99335C3.55238 9.65901 2.91378 11.7654 2.14507 13.9146L1.86312 14.7028L2.60972 14.3241L6.88078 12.1576L6.88081 12.1576C6.95563 12.1197 7.04425 12.1196 7.11914 12.1576L7.11914 12.1576L11.3902 14.3241L12.1368 14.7028L11.8549 13.9146C11.0861 11.7654 10.4475 9.65901 10.3353 7.99335ZM5.54272 2.39634V1.86805L5.06589 2.09548C4.57837 2.328 4.13548 2.67263 3.88673 3.10389C3.62673 3.55466 3.58928 4.08909 3.91319 4.61057L4.01099 4.76802H4.19634H9.80342H9.98879L10.0866 4.61055C10.3958 4.11273 10.3787 3.58896 10.1308 3.13501C9.89267 2.69901 9.45336 2.34319 8.93395 2.09547L8.45712 1.86807V2.39634V2.64415C8.45712 2.78967 8.33913 2.90766 8.19361 2.90766C8.04809 2.90766 7.9301 2.78967 7.9301 2.64415V2.04798V1.75684L7.6416 1.71768C7.2144 1.65969 6.78529 1.65968 6.35822 1.71768L6.06974 1.75686V2.04798V2.64415C6.06974 2.78967 5.95175 2.90766 5.80623 2.90766C5.66071 2.90766 5.54272 2.78967 5.54272 2.64415V2.39634ZM1.02747 16.908L1.33905 17.0264L1.02746 16.908C0.399605 18.5598 1.6159 20.3258 3.38467 20.3258H10.6152C12.3822 20.3258 13.6009 18.5614 12.9724 16.908L12.6608 17.0265L12.9724 16.908C12.9461 16.8389 12.9201 16.7705 12.8944 16.7027C12.7443 16.3082 12.6025 15.9352 12.4595 15.5555L12.4139 15.4343L12.2983 15.3757L7.15071 12.7646L6.99992 12.6881L6.84913 12.7646L1.70154 15.3756L1.58603 15.4342L1.54038 15.5555C1.39942 15.9298 1.2631 16.2883 1.10854 16.6948C1.08209 16.7643 1.0551 16.8353 1.02747 16.908ZM10.581 5.29504H3.41885C2.90566 5.29504 2.48867 5.71203 2.48867 6.22522C2.48867 6.73842 2.90566 7.1554 3.41885 7.1554H10.581C11.0942 7.1554 11.5112 6.73842 11.5112 6.22522C11.5112 5.71203 11.0942 5.29504 10.581 5.29504Z" fill="black" stroke="black" stroke-width="0.666667"/>
<path d="M4.61271 17.565C4.94234 17.565 5.20956 17.2978 5.20956 16.9681C5.20956 16.6385 4.94234 16.3713 4.61271 16.3713C4.28309 16.3713 4.01587 16.6385 4.01587 16.9681C4.01587 17.2978 4.28309 17.565 4.61271 17.565Z" fill="black"/>
<path d="M6.40324 15.7746C6.73287 15.7746 7.00009 15.5074 7.00009 15.1778C7.00009 14.8481 6.73287 14.5809 6.40324 14.5809C6.07361 14.5809 5.8064 14.8481 5.8064 15.1778C5.8064 15.5074 6.07361 15.7746 6.40324 15.7746Z" fill="black"/>
<path d="M7.59697 18.162C7.9266 18.162 8.19381 17.8948 8.19381 17.5651C8.19381 17.2355 7.9266 16.9683 7.59697 16.9683C7.26734 16.9683 7.00012 17.2355 7.00012 17.5651C7.00012 17.8948 7.26734 18.162 7.59697 18.162Z" fill="black"/>
</svg>
