<svg width="24" height="24" viewBox="0 0 24 24" fill="none" xmlns="http://www.w3.org/2000/svg">
<path d="M6.675 10.4728H1.5V20.2228H22.65V18.3478" stroke="black" stroke-width="1.5" stroke-linecap="round" stroke-linejoin="round"/>
<path d="M22.65 12.7228V10.4728H6.44995" stroke="black" stroke-width="1.5" stroke-linecap="round" stroke-linejoin="round"/>
<path d="M22.65 10.4728L11.775 5.29777C10.2852 4.54054 8.58176 4.31365 6.94567 4.6545C5.30958 4.99536 3.83851 5.8836 2.77501 7.17277C1.98103 8.09213 1.53042 9.25838 1.5 10.4728" stroke="black" stroke-width="1.5" stroke-linecap="round" stroke-linejoin="round"/>
<path d="M7.57506 17.9728C8.90054 17.9728 9.97507 16.8982 9.97507 15.5728C9.97507 14.2473 8.90054 13.1728 7.57506 13.1728C6.24957 13.1728 5.17505 14.2473 5.17505 15.5728C5.17505 16.8982 6.24957 17.9728 7.57506 17.9728Z" stroke="black" stroke-width="1.5" stroke-linecap="round" stroke-linejoin="round"/>
<path d="M15.0001 17.1478C15.8699 17.1478 16.5751 16.4426 16.5751 15.5728C16.5751 14.7029 15.8699 13.9978 15.0001 13.9978C14.1302 13.9978 13.425 14.7029 13.425 15.5728C13.425 16.4426 14.1302 17.1478 15.0001 17.1478Z" stroke="black" stroke-width="1.5" stroke-miterlimit="10"/>
<path d="M22.6501 18.3478C22.2422 18.4146 21.8248 18.3919 21.4266 18.2813C21.0284 18.1708 20.659 17.9749 20.3441 17.7073C20.0291 17.4398 19.7761 17.107 19.6026 16.7319C19.4291 16.3568 19.3392 15.9485 19.3392 15.5353C19.3392 15.122 19.4291 14.7137 19.6026 14.3387C19.7761 13.9636 20.0291 13.6308 20.3441 13.3632C20.659 13.0957 21.0284 12.8998 21.4266 12.7892C21.8248 12.6786 22.2422 12.656 22.6501 12.7228" stroke="black" stroke-width="1.5" stroke-linecap="round" stroke-linejoin="round"/>
</svg>
