<?xml version="1.0" encoding="iso-8859-1"?>
<!-- Uploaded to: SVG Repo, www.svgrepo.com, Generator: SVG Repo Mixer Tools -->
<!DOCTYPE svg PUBLIC "-//W3C//DTD SVG 1.1//EN" "http://www.w3.org/Graphics/SVG/1.1/DTD/svg11.dtd">
<svg fill="#000000" height="20px" width="20px" version="1.1" id="Capa_1" xmlns="http://www.w3.org/2000/svg" xmlns:xlink="http://www.w3.org/1999/xlink" 
	 viewBox="0 0 54.285 54.285" xml:space="preserve">
<g>
	<path d="M41.063,2.687C31.956,0.313,22.332,0.31,13.151,2.71C5.234,5.445,0.813,9.917,0.009,16.002L0,16.133
		C0,23.564,6.046,29.61,13.478,29.61l0.171-0.015c2.773-0.482,5.559-0.797,8.348-0.98c-0.06,0.252-0.099,0.51-0.088,0.777
		c0.125,3.314,0.044,11.428-3.402,15.155c-0.089,0.092-2.176,2.26-1.83,4.791c0.201,1.474,1.145,2.709,2.805,3.672
		c0.413,0.239,0.9,0.366,1.41,0.366h12.902c0.508,0,0.995-0.127,1.41-0.366c1.659-0.963,2.603-2.198,2.804-3.671
		c0.336-2.46-1.624-4.577-1.817-4.779c-3.459-3.751-3.54-11.856-3.415-15.167c0.01-0.258-0.026-0.508-0.081-0.752
		c2.655,0.188,5.306,0.495,7.946,0.954l0.171,0.015c7.432,0,13.478-6.046,13.476-13.54C53.861,9.358,49.539,4.982,41.063,2.687z
		 M30.537,28.685c0.163,0.17,0.248,0.394,0.239,0.631c-0.168,4.426,0.122,12.468,3.951,16.609l0.02,0.021
		c0.015,0.015,1.49,1.574,1.278,3.123c-0.113,0.83-0.728,1.574-1.825,2.211c-0.108,0.063-0.253,0.097-0.407,0.097H20.891
		c-0.155,0-0.299-0.034-0.406-0.097c-1.096-0.636-1.71-1.377-1.826-2.204c-0.218-1.559,1.265-3.117,1.297-3.15
		c3.829-4.142,4.119-12.184,3.951-16.609c-0.009-0.237,0.076-0.462,0.24-0.632c0.086-0.089,0.188-0.154,0.3-0.198
		c1.938-0.067,3.878-0.068,5.816,0.009C30.364,28.54,30.458,28.603,30.537,28.685z M40.894,27.61
		c-3.429-0.592-6.877-0.962-10.33-1.109c-0.21-0.048-0.426-0.079-0.648-0.079h-5.149c-0.211,0-0.417,0.026-0.618,0.07
		c-3.594,0.134-7.185,0.502-10.755,1.118C7.125,27.564,2.036,22.469,2,16.198c0.729-5.312,4.591-9.106,11.73-11.575
		c8.776-2.29,18.055-2.289,26.817-0.003c7.643,2.069,11.374,5.747,11.739,11.513C52.287,22.433,47.184,27.564,40.894,27.61z"/>
	<path d="M25.521,6.307c-2.288-0.025-4.495,0.116-6.572,0.414c-0.547,0.079-0.927,0.586-0.849,1.132
		c0.072,0.499,0.5,0.858,0.989,0.858c0.047,0,0.095-0.003,0.143-0.01c1.978-0.284,4.081-0.419,6.27-0.395
		c0.531-0.013,1.003-0.438,1.01-0.99C26.518,6.765,26.074,6.313,25.521,6.307z"/>
	<path d="M15.206,7.494C9.02,9.192,5.45,13.22,5.659,18.269c0.022,0.538,0.465,0.959,0.998,0.959c0.015,0,0.028,0,0.042-0.001
		c0.552-0.022,0.98-0.488,0.958-1.04c-0.241-5.843,5.569-8.076,8.078-8.766c0.532-0.146,0.846-0.696,0.699-1.229
		C16.289,7.659,15.736,7.345,15.206,7.494z"/>
</g>
</svg>